<svg width="419" height="329" viewBox="0 0 419 329" fill="none" xmlns="http://www.w3.org/2000/svg">
<path d="M1.18042 47.218C23.0267 19.4939 71.0356 9.68299 96.2293 29.6042C164.146 83.3087 64.4817 146.349 96.2293 160.369C122.691 174.372 180.901 155.702 186.187 193.06C191.49 235.087 207.363 291.134 265.573 277.114C302.624 267.778 334.635 256.981 371.404 263.093C439.515 274.436 415.149 327.7 413.123 329.638H1.18042V47.218Z" fill="#1A6652"/>
<path d="M418.109 299.237C418.109 294.868 417.545 290.271 416.118 285.727C410.71 268.589 395.047 257.668 369.572 253.229C337.525 247.663 308.631 255.554 278.064 263.921C273.342 265.207 268.568 266.51 263.705 267.796C246.827 272.041 232.416 270.174 220.911 262.265C203.117 250.041 191.578 222.969 186.609 181.823C183.121 156.124 157.91 154.768 133.526 153.465C119.89 152.742 105.796 151.985 96.4054 146.789C93.5689 145.486 91.8952 143.812 91.1905 141.628C89.1292 135.287 95.0488 124.701 101.885 112.424C117.512 84.4537 138.9 46.1436 96.6345 11.2507C85.817 2.32045 70.4013 -1.48413 53.2414 0.523844C31.818 3.04262 11.9274 13.9808 0 29.7628L2.3608 31.5418C13.6363 16.6053 33.2627 5.84322 53.5938 3.44774C69.9433 1.52784 84.5662 5.10343 94.767 13.5052C135.13 46.8129 114.446 83.89 99.33 110.945C91.8424 124.349 85.9227 134.935 88.3893 142.509C89.3582 145.486 91.6133 147.793 95.0841 149.396C104.985 154.874 119.432 155.649 133.385 156.389C157.628 157.692 180.531 158.907 183.685 182.175C188.829 224.765 200.457 251.767 219.238 264.678C231.482 273.098 246.687 275.106 264.445 270.632C269.343 269.346 274.118 268.043 278.839 266.739C309.089 258.461 337.666 250.658 369.061 256.1C392.281 260.134 406.939 269.698 412.595 284.547C419.36 302.266 410.71 321.448 409.723 322.716L411.855 324.759C413 323.649 418.109 312.5 418.109 299.237Z" fill="#407042"/>
</svg>
