<svg width="565" height="500" viewBox="0 0 565 500" fill="none" xmlns="http://www.w3.org/2000/svg">
<path d="M463.891 270.141L463.714 267.686C463.714 267.686 464.815 267.61 466.649 267.61C468.496 267.585 471.128 267.673 474.265 267.914C480.541 268.369 488.878 269.634 496.95 271.962C505.06 274.176 512.777 277.63 518.319 280.591C521.089 282.109 523.392 283.349 524.898 284.437C526.428 285.449 527.314 286.031 527.314 286.031L525.935 288.068C525.935 288.068 525.075 287.498 523.582 286.524C522.127 285.474 519.862 284.26 517.167 282.779C511.752 279.882 504.212 276.517 496.279 274.341C488.385 272.064 480.212 270.824 474.076 270.381C471.001 270.153 468.446 270.065 466.662 270.09C464.865 270.077 463.891 270.141 463.891 270.141Z" fill="#108F6E"/>
<path d="M530.692 294.128C530.692 294.128 531.679 294.621 533.083 295.051C534.5 295.469 536.158 296.038 537.764 295.861C537.777 294.267 537.157 292.42 536.36 291.155C535.576 289.877 534.791 288.979 534.791 288.979C537.182 288.371 539.068 287.245 540.333 286.259C541.611 285.272 542.256 284.411 542.256 284.411C539.422 282.956 536.904 282.299 534.766 282.134C532.64 281.957 530.73 282.463 529.288 283.007C526.365 284.158 524.91 285.904 524.91 285.904C524.91 285.904 523.961 287.992 523.873 291.003C523.81 292.534 524.037 294.178 524.505 296.101C524.999 298.012 525.872 300.011 527.403 301.984C527.403 301.984 528.136 301.187 528.921 299.821C529.731 298.467 530.566 296.506 530.692 294.128Z" fill="#108F6E"/>
<path d="M287.463 500.006C427.294 500.006 540.649 490.495 540.649 478.764C540.649 467.032 427.294 457.522 287.463 457.522C147.632 457.522 34.277 467.032 34.277 478.764C34.277 490.495 147.632 500.006 287.463 500.006Z" fill="#EDEDED"/>
<path d="M115.248 264.662L114.35 267.155C114.35 267.155 113.338 266.788 111.49 266.219C109.643 265.637 106.986 264.865 103.773 264.042C97.3458 262.385 88.6414 260.589 79.8358 259.526C71.0302 258.413 62.1614 258.147 55.5319 258.261C52.2171 258.425 49.4464 258.451 47.5233 258.653C45.6003 258.843 44.4996 258.957 44.4996 258.957L44.2339 256.325C44.2339 256.325 45.3599 256.211 47.3209 256.021C49.2819 255.806 52.1032 255.781 55.4686 255.617C62.212 255.503 71.2326 255.781 80.1521 256.907C89.0842 257.982 97.9024 259.804 104.431 261.487C107.695 262.322 110.402 263.106 112.287 263.701C114.16 264.27 115.248 264.662 115.248 264.662Z" fill="#108F6E"/>
<path d="M35.6813 255.224C35.6813 255.224 34.492 255.654 33.0877 256.464C31.6707 257.211 30.1019 258.552 29.2668 260.07C30.6712 261.069 32.531 261.487 34.0871 261.841C35.6307 262.157 36.8199 262.195 36.8199 262.195C35.6813 264.511 35.4156 266.788 35.4282 268.496C35.4282 270.204 35.7066 271.33 35.7066 271.33C38.2369 270.254 40.1473 268.812 41.6276 267.269C43.1331 265.839 44.1832 264.257 44.917 262.803C46.3973 259.88 46.5364 257.426 46.5364 257.426C46.5364 257.426 46.0304 255.035 43.8796 252.479C42.8042 251.201 41.2986 249.873 39.2237 248.797C37.1489 247.823 34.492 247.14 31.1393 247.026C31.1393 247.026 31.2911 248.177 31.9617 249.771C32.6195 251.366 33.7709 253.415 35.6813 255.224Z" fill="#108F6E"/>
<path d="M308.768 109.188C303.088 96.6252 292.751 83.1767 292.65 83.0501L293.219 82.62C293.321 82.7592 303.695 96.2583 309.414 108.897L308.768 109.188Z" fill="white"/>
<path d="M334.158 57.8453L325.669 107.027L326.367 107.147L334.857 57.9659L334.158 57.8453Z" fill="white"/>
<path d="M169.385 147.054C169.385 147.054 160.933 128.52 143.512 128.532C126.09 128.532 123.56 146.94 133.757 160.591C133.757 160.591 117.032 148.977 92.9809 149.913C68.93 150.849 51.167 168.612 56.3921 188.475C61.6173 208.338 88.4516 212.867 96.1185 210.78C96.1185 210.78 69.6385 229.592 80.0888 246.672C90.5391 263.752 123.307 246.672 123.307 246.672L169.385 147.054Z" fill="#29B79C"/>
<path d="M134.213 195.307C133.909 195.18 104.266 182.959 89.0969 181.453L89.2361 180.036C104.608 181.567 134.453 193.865 134.757 193.991L134.213 195.307Z" fill="white"/>
<path d="M89.6029 195.218L88.7552 194.067C94.7015 189.702 106.455 185.337 106.948 185.148L107.442 186.476C107.315 186.539 95.3847 190.98 89.6029 195.218Z" fill="white"/>
<path d="M120.562 189.791C120.397 189.335 116.475 178.506 116.134 174.116L117.551 174.002C117.879 178.215 121.865 189.196 121.903 189.31L120.562 189.791Z" fill="white"/>
<path d="M95.2456 238.638L94.5244 237.411C109.289 228.795 121.004 227.05 121.118 227.037L121.321 228.441C121.22 228.466 109.757 230.174 95.2456 238.638Z" fill="white"/>
<path d="M158.757 166.424C158.289 165.917 147.269 153.899 144.258 144.119L145.612 143.701C148.522 153.165 159.681 165.336 159.795 165.462L158.757 166.424Z" fill="white"/>
<path d="M121.089 293.218L23.5513 311.642L23.8143 313.034L121.352 294.611L121.089 293.218Z" fill="white"/>
<path d="M56.4808 306.843C49.535 306.438 35.7573 300.428 35.1753 300.175L35.7446 298.872C35.8838 298.935 49.8766 305.033 56.5693 305.426L56.4808 306.843Z" fill="white"/>
<path d="M62.0728 317.773L60.6937 317.432C62.174 311.486 69.8662 303.553 70.1952 303.212L71.2073 304.198C71.144 304.287 63.4645 312.207 62.0728 317.773Z" fill="white"/>
<path d="M94.7269 299.606C86.7436 297.784 78.4188 289.333 78.0646 288.979L79.0767 287.979C79.1653 288.068 87.4774 296.481 95.0432 298.214L94.7269 299.606Z" fill="white"/>
<path d="M447.895 335.512L447.657 336.909L543.131 353.14L543.369 351.744L447.895 335.512Z" fill="white"/>
<path d="M527.681 360.662C527.58 360.561 516.851 350.237 510.854 347.618L511.424 346.315C517.648 349.035 528.225 359.207 528.668 359.637L527.681 360.662Z" fill="white"/>
<path d="M497.646 345.025L497.039 343.747C497.14 343.696 506.831 339.053 509.994 334.435L511.171 335.232C507.78 340.167 498.051 344.822 497.646 345.025Z" fill="white"/>
<path d="M484.324 355.943C484.273 355.842 479.529 345.316 473.19 341.166L473.974 339.977C480.655 344.354 485.424 354.906 485.627 355.361L484.324 355.943Z" fill="white"/>
<path d="M407.284 426.854L388.538 475.555L391.336 476.632L410.082 427.931L407.284 426.854Z" fill="#29B79C"/>
<path d="M410.086 426.857L407.287 427.934L426.033 476.635L428.832 475.558L410.086 426.857Z" fill="#29B79C"/>
<path d="M417.118 446.199H400.911V449.197H417.118V446.199Z" fill="#29B79C"/>
<path d="M420.66 456.915H397.179V459.913H420.66V456.915Z" fill="#29B79C"/>
<path d="M81.1895 476.158C81.1895 476.158 81.645 477.941 82.8849 479.637C84.1121 481.332 85.9845 483.432 86.2123 484.343C86.44 485.254 85.3393 486.076 84.2892 485.71C83.2391 485.343 75.6607 481.914 73.8768 480.548C72.093 479.181 71.5995 478.675 71.6375 478.359C71.6755 478.043 73.8515 474.222 74.4841 473.273C75.1167 472.337 79.8611 472.362 81.1895 476.158Z" fill="#1A6652"/>
<path d="M100.914 466.037C100.914 466.037 102.166 467.39 104.064 468.289C105.949 469.187 108.606 470.136 109.238 470.831C109.871 471.527 109.302 472.767 108.214 472.957C107.113 473.134 98.826 473.754 96.5993 473.4C94.3853 473.045 93.7021 472.843 93.5882 472.539C93.4743 472.236 93.5629 467.846 93.6515 466.72C93.7527 465.581 97.9404 463.329 100.914 466.037Z" fill="#1A6652"/>
<path d="M101.268 399.439C101.268 399.439 104.924 423.945 105.076 430.359C105.228 436.774 101.268 466.454 101.268 466.454H93.5376C93.5376 466.454 94.2967 451.993 94.2967 449.729C94.2967 447.464 93.5376 427.715 93.5376 427.715L94.2967 400.223C94.284 400.223 98.8134 397.453 101.268 399.439Z" fill="#0E1A34"/>
<path d="M83.3783 400.299C83.3783 400.299 80.9618 406.587 81.7083 419.542C82.4674 432.497 83.0873 435.521 83.0873 435.521C83.0873 435.521 74.4209 469.225 73.2822 473.248C73.2822 473.248 77.3055 476.145 81.7083 476.398C81.7083 476.398 90.8934 453.764 94.1575 445.705C97.4217 437.659 98.3706 431.991 98.3959 424.957C98.4338 417.91 99.1803 398.92 99.1803 398.92L83.3783 400.299Z" fill="#0E1A34"/>
<path d="M95.2329 443.947L94.5497 443.744C96.9788 435.812 98.1807 426.855 98.2313 416.341H98.9398C98.8892 426.918 97.6747 435.951 95.2329 443.947Z" fill="white"/>
<path d="M107.315 395.909C107.315 395.909 91.3742 393.151 85.605 389.963C79.8358 386.762 80.5443 383.928 81.3414 381.879C82.1384 379.842 84.6308 375.49 84.6308 375.49L90.2735 379.526L90.1343 380.791L89.1728 382.992C89.1728 382.992 91.0199 384.156 93.8033 385.699C96.5867 387.243 107.91 392.43 107.91 392.43C107.91 392.43 110.655 394.707 107.315 395.909Z" fill="#FF9A5C"/>
<path d="M106.898 395.77C108.201 397.174 109.896 397.921 109.896 397.921C110.023 398.996 110.643 399.452 110.984 399.414C111.339 399.376 111.339 397.756 111.339 397.756C111.642 398.503 112.869 399.249 113.034 398.794C113.198 398.338 113.034 397.592 113.034 397.592C113.034 397.592 113.527 398.25 113.907 398.25C114.274 398.25 114.729 397.921 114.565 397.086C114.4 396.263 113.907 395.011 113.401 394.353C112.907 393.695 112.616 393.025 111.541 392.784C110.466 392.531 110.086 392.696 108.846 392.582C107.606 392.455 105.734 392.582 105.734 392.582L106.898 395.77Z" fill="#FF9A5C"/>
<path d="M95.1443 345.278C95.1443 345.278 93.0188 340.66 87.0346 342.406C81.0503 344.152 82.9228 349.769 79.0513 352.135C75.1799 354.501 69.4487 355.753 67.9431 362.37C66.4502 368.987 71.0681 369.48 67.9431 373.478C64.8182 377.476 63.7048 380.335 67.0702 384.46C70.4355 388.571 76.3692 387.331 80.0761 385.332C83.7831 383.334 100.003 375.73 100.003 375.73C100.003 375.73 103.76 371.745 100.003 367.494C96.245 363.243 97.2571 356.765 97.2571 356.765C97.2571 356.765 98.6235 356.512 99.1296 352.767C99.6357 349.01 98.4464 344.139 95.1443 345.278Z" fill="#753519"/>
<path d="M389.17 31.8368L391.258 30.3186C391.258 30.3186 398.431 39.0734 410.159 44.9817C421.887 50.8899 425.911 53.1546 426.973 53.3443C428.036 53.5341 433.084 54.4071 434.83 56.6337C436.576 58.8604 436.766 60.1255 436.386 60.2141C435.994 60.3153 434.058 57.494 434.058 57.494C434.058 57.494 435.994 59.999 435.804 60.9226C435.614 61.8588 434.526 60.2647 434.134 59.8725C433.742 59.4803 432.768 58.3543 432.768 58.3543C432.768 58.3543 434.83 61.0365 434.906 61.8588C434.982 62.6811 433.628 61.6311 432.578 60.4545C431.528 59.2905 430.364 58.7465 430.086 59.0881C429.807 59.4424 429.693 60.872 429.263 60.6063C428.833 60.328 428.757 59.2399 428.567 58.4682C427.872 58.4555 424.709 57.3169 419.028 56.1783C413.335 55.0396 390.574 45.045 385.387 38.6053C380.187 32.191 389.17 31.8368 389.17 31.8368Z" fill="#FF9A5C"/>
<path d="M533.349 265.396C535.348 263.043 536.575 260.462 536.955 257.729C537.22 255.111 536.6 252.365 535.133 249.708C535.133 249.708 535.803 250.417 536.803 251.48C537.79 252.555 539.169 253.934 540.434 255.401C542.85 258.451 545.267 261.5 545.267 261.5C543.179 263.929 542.015 266.484 541.383 269.255C540.801 272 540.978 274.784 542.015 277.504C544.267 275.441 545.76 273.05 546.418 270.431C546.747 269.116 546.874 267.762 546.785 266.358C546.696 264.953 546.431 263.498 545.786 262.145C545.786 262.145 546.127 262.575 546.621 263.207C547.101 263.865 547.671 264.789 548.278 265.687C549.48 267.496 550.669 269.305 550.669 269.305C550.694 270.874 550.909 272.329 551.314 273.683C551.656 275.075 552.111 276.403 552.795 277.605C554.148 280.021 556.248 282.008 559.082 283.564C559.386 280.464 558.791 277.516 557.45 274.973C556.767 273.708 555.932 272.532 554.869 271.52C553.743 270.558 552.44 269.723 550.998 269.065C550.998 269.065 550.403 268.154 549.505 266.801C549.05 266.117 548.531 265.333 547.974 264.485C547.696 264.055 547.405 263.625 547.114 263.182C546.785 262.765 546.443 262.335 546.114 261.904C543.42 258.501 540.725 255.098 540.725 255.098C545.469 258.716 551.453 259.349 557.109 257.008C554.591 254.604 551.618 253.238 548.759 252.795C545.861 252.378 543.002 252.909 540.181 254.465C540.181 254.465 537.511 251.619 534.842 248.772C533.551 247.305 532.033 246.065 530.97 245.065C529.882 244.078 529.161 243.433 529.161 243.433C530.502 244.142 531.881 244.648 533.273 244.964C534.677 245.268 536.094 245.419 537.448 245.445C540.193 245.457 543.002 244.698 545.684 243.13C544.267 242.092 542.812 241.295 541.37 240.738C539.94 240.169 538.346 239.992 536.891 239.979C533.918 239.992 531.11 240.966 528.554 242.864C528.554 242.864 527.833 242.206 526.745 241.232C525.593 240.334 524.05 239.144 522.506 237.942C520.963 236.753 519.432 235.539 518.179 234.78C516.952 233.97 516.143 233.439 516.143 233.439C517.572 233.932 519.014 234.223 520.457 234.337C521.861 234.501 523.227 234.501 524.607 234.299C527.352 233.894 530.047 232.743 532.489 230.807C529.326 229.213 526.251 228.466 523.303 228.909C520.356 229.352 517.699 230.744 515.434 232.983C515.434 232.983 514.624 232.452 513.397 231.642C512.17 230.845 510.437 229.947 508.741 228.973C507.894 228.492 507.033 228.024 506.236 227.568C505.414 227.176 504.642 226.809 503.984 226.493C502.668 225.86 501.783 225.443 501.783 225.443C504.743 226.025 507.653 225.797 510.285 225.063C512.942 224.266 515.447 222.735 517.585 220.471C515.902 219.889 514.27 219.56 512.701 219.446C511.917 219.395 511.158 219.395 510.411 219.471C509.652 219.572 508.918 219.724 508.197 219.939C505.351 220.787 502.934 222.533 501.036 225.076C501.036 225.076 500.657 224.899 500.012 224.582C499.341 224.304 498.379 223.925 497.228 223.456C494.951 222.47 491.813 221.382 488.65 220.357C485.475 219.408 482.261 218.573 479.807 218.118C477.365 217.611 475.708 217.447 475.708 217.447L475.67 217.852C475.67 217.852 476.821 217.978 478.542 218.282C480.262 218.586 482.54 219.104 484.804 219.674C487.044 220.319 489.308 220.926 490.94 221.546C492.598 222.115 493.698 222.495 493.698 222.495C493.268 225.633 493.585 228.618 494.559 231.161C495.558 233.654 497.114 235.969 499.341 237.753C500.189 234.805 500.227 231.984 499.43 229.39C498.658 226.733 496.899 224.62 494.47 222.786C494.47 222.786 495.368 223.153 496.722 223.697C498.063 224.254 499.898 224.937 501.631 225.822C503.377 226.67 505.148 227.48 506.439 228.15C507.716 228.859 508.564 229.339 508.564 229.339C507.653 232.401 507.552 235.349 508.159 237.98C508.741 240.663 509.943 243.18 511.93 245.23C513.195 242.446 513.637 239.676 513.207 237.006C512.992 235.678 512.562 234.362 511.93 233.11C511.259 231.908 510.361 230.794 509.273 229.744C509.273 229.744 510.12 230.225 511.398 230.934C512.701 231.591 514.283 232.743 515.915 233.793C519.23 235.842 522.253 238.284 522.253 238.284C520.912 241.181 520.381 244.078 520.609 246.773C520.849 249.468 521.633 252.201 523.303 254.529C524.961 251.948 525.796 249.253 525.77 246.533C525.745 245.179 525.543 243.8 525.062 242.484C524.556 241.219 523.835 239.967 522.911 238.777C522.911 238.777 523.683 239.372 524.834 240.258C526.024 241.105 527.466 242.421 528.895 243.724C530.338 245.027 531.78 246.33 532.868 247.305C533.425 247.773 533.804 248.253 534.108 248.557C534.399 248.873 534.563 249.05 534.563 249.05C532.817 251.733 531.869 254.554 531.692 257.287C531.603 258.653 531.717 259.994 532.02 261.31C532.324 262.689 532.704 264.093 533.349 265.396Z" fill="#29B79C"/>
<path d="M88.983 87.7059C86.3641 90.2742 84.6688 93.2093 83.935 96.3722C83.1632 99.5604 83.4922 102.9 84.8333 106.24C84.8333 106.24 84.1501 105.304 83.1253 103.9C82.0752 102.508 80.7721 100.598 79.4816 98.6621C78.1911 96.7391 76.888 94.8161 75.9265 93.3738C75.433 92.6653 75.0535 92.0454 74.7878 91.6026C74.5221 91.1724 74.3703 90.9194 74.3703 90.9194C77.0904 88.2499 78.8743 85.1883 79.6967 81.9874C80.1142 80.3807 80.2913 78.7486 80.2154 77.0913C80.1901 75.4086 79.975 73.7007 79.4816 71.9927C76.6476 74.3206 74.6866 77.0913 73.6618 80.2036C72.7129 83.2779 72.8015 86.6179 73.8516 90.0844C73.8516 90.0844 72.4978 87.883 71.1568 85.6817C70.4862 84.581 69.7904 83.493 69.3223 82.6453C68.8541 81.7977 68.5505 81.2283 68.5505 81.2283C68.8035 77.4455 68.0318 74.1435 66.5136 71.2083C65.0839 68.2479 62.7434 65.7429 59.4919 63.6934C58.9099 67.3749 59.4033 70.9427 60.8203 74.0549C62.3132 77.1293 64.8942 79.6469 68.133 81.4687C68.133 81.4687 68.2848 81.7471 68.5632 82.2531C68.8288 82.7465 69.2084 83.4677 69.7271 84.2773C70.7392 85.9347 72.0803 88.1361 73.4341 90.3374C74.7372 92.5641 76.2174 94.6895 77.2928 96.2963C78.3682 97.903 79.0894 98.9784 79.0894 98.9784C76.4199 96.5746 73.2949 95.107 70.094 94.4238C66.8931 93.7407 63.4519 93.9684 59.9726 95.1703C61.339 96.6632 62.794 97.8904 64.3248 98.8519C65.8683 99.8007 67.5384 100.421 69.221 100.813C72.5991 101.572 76.1289 101.23 79.6334 99.8007C79.6334 99.8007 80.2786 100.762 81.2528 102.205C82.2776 103.609 83.644 105.494 85.0104 107.366C87.6925 111.162 90.6024 114.78 90.6024 114.78C89.1728 113.679 87.6672 112.806 86.1111 112.149C84.5929 111.465 82.9988 111.023 81.3793 110.808C78.1279 110.377 74.7119 110.858 71.3212 112.326C74.2564 115.033 77.47 116.728 80.8733 117.26C84.2892 117.779 87.7938 117.209 91.2224 115.565C91.2224 115.565 91.9309 116.475 93.0063 117.854C94.0564 119.246 95.5366 121.03 97.0169 122.814C98.4971 124.61 99.9774 126.394 101.078 127.735C102.217 129.051 102.976 129.924 102.976 129.924C97.0675 125.812 90.2355 125.205 83.606 128.545C86.6678 131.05 90.0078 132.518 93.3858 132.884C96.7891 133.239 100.281 132.48 103.621 130.67C103.621 130.67 104.38 131.543 105.519 132.859C106.645 134.188 108.188 135.921 109.757 137.629C111.313 139.349 112.882 141.07 114.046 142.36C115.235 143.626 116.032 144.473 116.032 144.473C109.96 140.614 103.077 140.361 96.65 143.992C102.951 148.737 110.2 149.142 116.716 145.194C116.716 145.194 118.069 146.624 120.106 148.775C122.181 150.887 124.901 153.734 127.723 156.505C130.506 159.301 133.365 162.021 135.516 164.045C137.667 166.082 139.134 167.398 139.134 167.398L139.451 167.031C139.451 167.031 135.326 163.299 131.341 159.389C129.329 157.454 127.381 155.467 125.888 154.012C124.42 152.52 123.446 151.533 123.446 151.533C125.534 148.357 126.609 144.992 126.672 141.665C126.774 138.299 125.863 134.959 123.965 131.784C119.638 137.705 119.145 144.574 122.75 150.837C122.75 150.837 119.499 147.522 116.349 144.132C114.742 142.449 113.186 140.741 112.022 139.451C110.858 138.16 110.073 137.3 110.073 137.3C114.476 131.151 114.957 124.066 111.452 117.601C106.847 123.32 106.101 130.139 109.416 136.566C109.416 136.566 108.644 135.706 107.48 134.403C106.341 133.087 104.823 131.341 103.305 129.582C101.774 127.849 100.294 126.053 99.193 124.712C98.0923 123.37 97.3458 122.472 97.3458 122.472C99.7117 119.486 101.053 116.26 101.445 112.933C101.862 109.593 101.293 106.19 99.699 102.9C97.2572 105.633 95.7643 108.682 95.2456 111.883C94.7396 115.071 95.1571 118.474 96.7132 121.713C96.7132 121.713 95.9794 120.815 94.8661 119.474C93.7907 118.107 92.3737 116.273 90.944 114.451C88.0468 110.833 85.3646 107.05 85.3646 107.05C87.8823 104.203 89.4385 101.041 89.9952 97.7765C90.5898 94.5124 90.3494 91.0586 88.983 87.7059Z" fill="#1A6652"/>
<path d="M325.696 43.6027C324.532 42.9069 323.9 42.1478 323.9 42.1478C323.9 42.1478 323.495 41.2748 322.787 40.6675C322.078 40.0603 321.028 39.9084 321.028 39.9084C321.028 39.9084 321.711 42.2237 322.47 42.8183C322.85 43.1093 323.191 42.9575 323.457 42.7171C323.976 44.0075 324.811 44.9944 324.811 44.9944C324.811 44.9944 326.86 44.2985 325.696 43.6027Z" fill="#FF9A5C"/>
<path d="M288.045 464.366C387.922 464.366 468.888 383.401 468.888 283.526C468.888 183.65 387.922 102.685 288.045 102.685C188.168 102.685 107.201 183.65 107.201 283.526C107.201 383.401 188.168 464.366 288.045 464.366Z" fill="#1A6652"/>
<path d="M324.419 410.142C235.136 410.142 162.755 337.763 162.755 248.481C162.755 188.311 195.637 135.82 244.397 107.986C165.602 127.52 107.189 198.697 107.189 283.526C107.189 383.409 188.16 464.366 288.032 464.366C370.522 464.366 440.106 409.13 461.842 333.626C433.337 379.551 382.452 410.142 324.419 410.142Z" fill="#19614F"/>
<path d="M349.342 43.9696C349.342 43.9696 345.028 47.8536 343.586 47.8536C342.144 47.8536 327.759 43.5521 325.039 42.9701C322.331 42.4008 322.47 43.2611 321.395 43.9696C320.319 44.6781 323.685 46.8415 323.685 46.8415C323.685 46.8415 336.526 53.3949 343.168 54.9637C349.811 56.5325 355.124 51.1556 355.124 51.1556C355.124 51.1556 356.87 44.1847 349.342 43.9696Z" fill="#FF9A5C"/>
<path d="M297.686 47.9169C297.686 47.9169 307.782 49.0175 314.753 47.2463C314.753 47.2463 319.08 54.4956 320.712 57.1778L320.003 60.6316C320.003 60.6316 314.095 68.1087 303.708 68.5515C303.708 68.5641 296.117 58.0634 297.686 47.9169Z" fill="#108F6E"/>
<path d="M313.526 60.1635C311.451 60.1635 309.907 59.3412 309.819 59.2906L310.54 57.9748C310.565 57.9875 313.159 59.3538 315.815 58.2026C318.169 57.1904 319.94 54.5589 321.066 50.3966C322.344 45.6523 321.711 41.8695 319.219 39.453C316.309 36.6318 311.691 36.3661 308.389 37.3655C301.646 39.4024 302.329 48.8784 302.329 48.967L300.836 49.0935C300.823 48.9923 300.039 38.3144 307.946 35.9359C312.412 34.5949 317.346 35.569 320.244 38.3903C322.268 40.3639 324.305 44.1088 322.496 50.8014C321.243 55.4445 319.181 58.405 316.372 59.5942C315.385 60.0117 314.411 60.1635 313.526 60.1635Z" fill="#108F6E"/>
<path d="M321.37 41.8568C321.37 41.8568 320.066 41.3508 319.548 42.2364C319.004 43.1599 321.18 43.8811 323.014 43.6913C324.849 43.5142 323.204 42.1858 321.37 41.8568Z" fill="#FF9A5C"/>
<path d="M321.332 43.1472C321.332 43.1472 320.054 42.7424 319.181 43.4888C318.308 44.2352 321.117 45.298 323.267 45.1082C325.405 44.9311 323.482 43.5014 321.332 43.1472Z" fill="#FF9A5C"/>
<path d="M362.235 149.799C362.235 149.799 361.728 151.798 360.349 153.696C358.97 155.581 356.87 157.934 356.617 158.959C356.364 159.984 357.591 160.895 358.768 160.49C359.945 160.085 368.421 156.252 370.42 154.721C372.407 153.19 372.976 152.621 372.925 152.266C372.875 151.912 370.446 147.636 369.75 146.586C369.029 145.523 363.715 145.549 362.235 149.799Z" fill="#1A6652"/>
<path d="M321.091 44.3745C321.091 44.3745 319.965 43.9823 319.181 44.792C318.396 45.6017 320.889 46.6897 322.799 46.4873C324.71 46.2722 323.811 44.5137 321.091 44.3745Z" fill="#FF9A5C"/>
<path d="M298.761 58.4682C298.761 58.4682 270.94 52.193 269.915 52.1804C268.89 52.1677 265.424 51.5352 263.754 53.8377C263.754 53.8377 264.007 55.2547 265.55 56.0138C267.094 56.7855 269.143 55.2547 269.143 55.2547L302.759 67.0965C302.759 67.1092 304.897 61.1629 298.761 58.4682Z" fill="#108F6E"/>
<path d="M266.524 56.5957C266.107 56.5957 265.727 56.5072 265.398 56.3427C263.716 55.5077 263.425 53.9769 263.412 53.9136L263.349 53.572L263.69 53.5088C263.703 53.5088 264.108 53.4329 264.741 53.4329C265.968 53.4329 267.764 53.7112 269.371 55.0017L269.725 55.2926L269.358 55.571C269.308 55.5963 267.941 56.5957 266.524 56.5957ZM264.222 54.1413C264.399 54.5589 264.804 55.2547 265.715 55.6975C265.955 55.8114 266.221 55.8746 266.524 55.8746C267.284 55.8746 268.068 55.4951 268.523 55.2294C267.195 54.3185 265.753 54.116 264.741 54.116C264.538 54.1287 264.374 54.1287 264.222 54.1413Z" fill="#108F6E"/>
<path opacity="0.79" d="M263.754 53.8377C263.754 53.8377 244.017 73.5488 246.649 97.1185H270.535C270.535 97.1185 264.639 67.9821 269.143 55.2673C269.143 55.2673 267.132 53.357 263.754 53.8377Z" fill="#9AE5E5"/>
<path d="M360.312 69.9811C360.312 69.9811 341.005 85.2389 338.804 90.5145C336.59 95.7902 347.521 107.075 347.521 107.075C347.521 107.075 357.832 143.765 361.387 149.901C361.387 149.901 367.283 148.307 370.104 146.586C370.104 146.586 366.663 113.452 365.069 109.036C365.069 109.036 390.106 85.6184 394.395 78.6727C398.684 71.7397 363.285 67.5647 360.312 69.9811Z" fill="#0E1A34"/>
<path d="M373.102 130.341C373.102 130.341 373.545 132.353 373.153 134.668C372.774 136.971 371.951 140.02 372.179 141.045C372.407 142.069 373.912 142.348 374.785 141.449C375.658 140.551 381.516 133.327 382.604 131.062C383.692 128.798 383.945 128.039 383.742 127.748C383.54 127.457 379.454 124.724 378.353 124.092C377.252 123.472 372.52 125.888 373.102 130.341Z" fill="#1A6652"/>
<path d="M347.154 107.088C346.901 98.9278 360.552 85.7829 361.134 85.2262L361.627 85.7449C361.488 85.8841 347.635 99.2314 347.875 107.075L347.154 107.088Z" fill="white"/>
<path d="M348.988 108.897L372.773 130.556C372.773 130.556 376.177 126.976 377.973 124.13C377.973 124.13 369.307 107.252 365.726 103.811C362.146 100.383 348.988 108.897 348.988 108.897Z" fill="#0E1A34"/>
<path d="M421.381 414.33C421.381 414.33 420.066 415.924 418.016 417.05C415.966 418.176 413.069 419.416 412.411 420.238C411.753 421.06 412.475 422.414 413.702 422.54C414.929 422.667 424.241 422.793 426.695 422.249C429.149 421.705 429.896 421.44 429.997 421.086C430.098 420.744 429.706 415.848 429.529 414.583C429.352 413.318 424.532 411.104 421.381 414.33Z" fill="#1A6652"/>
<path d="M258.908 101.369L257.466 101.407C257.466 101.407 257.453 100.851 257.327 99.8006C257.213 98.7631 256.972 97.2829 256.605 95.5244C255.846 92.0072 254.417 87.3894 252.418 83.012C250.419 78.6346 248.028 74.4343 245.915 71.4992C244.941 69.981 243.966 68.817 243.334 67.982C242.689 67.147 242.322 66.6663 242.322 66.6663L243.448 65.7554C243.448 65.7554 243.827 66.2361 244.472 67.0964C245.118 67.9567 246.105 69.1333 247.104 70.6895C249.255 73.6752 251.709 77.9641 253.733 82.4301C255.77 86.9087 257.238 91.6277 258.01 95.2334C258.389 97.0425 258.63 98.5734 258.756 99.6488C258.895 100.724 258.908 101.369 258.908 101.369Z" fill="#108F6E"/>
<path d="M241.411 61.5425C241.411 61.5425 240.879 61.1123 240.095 60.7075C239.285 60.3279 238.248 59.961 237.312 60.0116C237.248 60.9479 237.577 61.96 237.919 62.7444C238.223 63.5414 238.552 64.1234 238.552 64.1234C235.781 64.4144 234.022 66.2615 234.022 66.2615C236.502 68.02 238.956 68.1845 240.702 68.0074C242.461 67.8303 243.612 67.1597 243.612 67.1597C243.612 67.1597 244.548 66.2109 245.092 64.4523C245.649 62.6938 245.662 60.1888 243.865 57.0638C243.878 57.0638 241.98 58.7085 241.411 61.5425Z" fill="#108F6E"/>
<path d="M448.304 394.948C448.304 394.948 448.443 397.01 447.71 399.237C446.988 401.463 445.723 404.348 445.799 405.398C445.875 406.448 447.33 406.941 448.317 406.195C449.304 405.436 456.186 399.173 457.603 397.098C459.02 395.024 459.387 394.315 459.223 393.986C459.058 393.657 455.427 390.355 454.44 389.571C453.428 388.774 448.393 390.444 448.304 394.948Z" fill="#1A6652"/>
<path d="M219.574 75.649C219.574 75.649 220.131 89.7934 233.326 99.9526C246.522 110.112 258.908 105.962 258.908 105.962C258.908 105.962 259.768 92.9183 246.573 82.7592C233.39 72.5873 219.574 75.649 219.574 75.649Z" fill="#1A6652"/>
<path d="M225.308 79.635L224.876 80.1962L258.688 106.252L259.12 105.691L225.308 79.635Z" fill="white"/>
<path d="M237.229 88.9282L229.237 89.1769L229.259 89.885L237.251 89.6364L237.229 88.9282Z" fill="white"/>
<path d="M233.36 79.5293L232.669 79.688L234.46 87.4807L235.151 87.322L233.36 79.5293Z" fill="white"/>
<path d="M245.924 95.6282L237.932 95.8784L237.954 96.5865L245.946 96.3363L245.924 95.6282Z" fill="white"/>
<path d="M242.055 86.2158L241.364 86.3745L243.155 94.1672L243.846 94.0085L242.055 86.2158Z" fill="white"/>
<path d="M254.624 102.329L246.632 102.578L246.654 103.286L254.646 103.037L254.624 102.329Z" fill="white"/>
<path d="M250.758 92.9037L250.067 93.0624L251.858 100.855L252.549 100.696L250.758 92.9037Z" fill="white"/>
<path d="M280.581 75.3453C280.581 75.3453 269.32 75.7881 261.223 86.2889C253.126 96.7896 256.441 106.67 256.441 106.67C256.441 106.67 266.828 107.354 274.925 96.8529C283.022 86.3395 280.581 75.3453 280.581 75.3453Z" fill="#29B79C"/>
<path d="M194.258 99.8766L201.697 87.9209C199.192 77.7238 195.143 66.1857 188.603 54.5842C183.339 45.3486 177.229 37.6312 170.637 31.1663L160.579 38.2258C160.579 38.2258 161.907 35.3666 163.312 32.52C164.716 29.6987 166.12 26.8774 166.12 26.8774C158.251 19.8938 150.28 14.5169 143.17 10.4811C139.539 8.48216 136.351 6.79951 133.39 5.50906C130.455 4.20595 127.874 3.29504 125.837 2.80164C124.104 5.18012 122.156 9.02617 120.46 14.188C119.575 16.7942 118.904 19.6281 118.31 22.7657C117.74 25.878 117.222 29.3571 117.007 32.9375C117.007 32.9375 120.144 34.2027 123.294 35.4805C126.419 36.695 129.532 37.9222 129.532 37.9222C129.532 37.9222 126.356 38.0487 123.193 38.1626C120.005 38.2511 116.829 38.3397 116.829 38.3397C116.69 53.5089 120.334 71.5119 130.316 88.3258C132.113 91.4001 134.023 94.272 136.009 96.9794C137.983 99.6868 139.995 102.255 142.082 104.621C142.082 104.621 146.523 104.343 150.951 104.077C155.366 103.773 159.795 103.47 159.795 103.47L148.648 111.605C157.694 120.461 166.753 126.407 173.509 130.164C176.887 132.049 179.696 133.365 181.669 134.225C183.63 135.073 184.782 135.516 184.782 135.516L195.207 128.292L205.632 121.068C205.632 121.068 205.695 120.41 205.695 119.12C205.708 117.829 205.682 115.957 205.556 113.566C205.303 108.809 204.658 102.078 203.089 94.2087L194.258 99.8766Z" fill="#1A6652"/>
<path d="M198.458 126.04C194.524 120.283 184.845 106.051 172.99 87.6299C161.11 69.2093 147.016 46.6264 134.491 23.8031C143.689 48.2078 156.214 72.0559 167.272 91.1344C178.329 110.251 187.957 124.636 191.993 130.531L195.219 128.292L198.458 126.04Z" fill="white"/>
<path d="M208.959 111.934L216.74 107.252C218.296 100.648 219.359 92.8171 218.979 84.2014C218.663 77.3316 217.347 71.0565 215.437 65.3886L207.593 66.5652C207.593 66.5652 209.212 65.3127 210.832 64.0602C212.451 62.833 214.07 61.5932 214.07 61.5932C211.553 55.2548 208.466 49.802 205.48 45.4245C202.494 41.0598 199.673 37.783 197.547 36.0751C194.22 37.8589 188.641 42.9575 183.959 51.0039C183.959 51.0039 185.414 52.6232 186.869 54.2426C188.324 55.8367 189.792 57.4182 189.792 57.4182C189.792 57.4182 187.919 56.5832 186.06 55.7482C184.187 54.9005 182.327 54.0402 182.327 54.0402C177.912 62.7065 174.8 74.0422 175.635 86.5672C175.913 91.1344 176.659 95.3853 177.621 99.3326L188.134 103.849L179.354 105.254C181.96 112.971 185.402 119.044 188.172 123.181C189.551 125.256 190.779 126.837 191.652 127.912C192.525 128.975 193.056 129.57 193.056 129.57L201.166 128.507L209.275 127.444C209.275 127.444 210.186 125.926 211.439 123.105C212.691 120.296 214.298 116.235 215.715 111.25L208.959 111.934Z" fill="#29B79C"/>
<path d="M203.658 128.191C203.101 123.725 201.748 112.705 200.331 98.6494C198.901 84.5809 197.408 67.4761 196.649 50.7002C195.017 67.4381 195.245 84.7833 196.016 98.991C196.763 113.211 198.041 124.294 198.623 128.861L201.14 128.532L203.658 128.191Z" fill="white"/>
<path d="M429.689 182.238C429.689 182.238 441.67 148.952 440.165 116.69C438.672 84.429 448.148 60.2014 463.621 62.0864C479.094 63.9715 492.568 122.358 433.674 185.73L429.689 182.238Z" fill="#29B79C"/>
<path d="M434.564 181.112L433.363 180.353C433.578 180.011 455.098 145.321 455.933 107.063L457.35 107.088C456.515 145.764 434.78 180.77 434.564 181.112Z" fill="white"/>
<path d="M432.085 186.286C432.085 186.286 453.555 175.09 475.581 173.129C497.608 171.168 513.169 162.502 510.462 152.178C507.755 141.854 466.902 138.097 429.339 183.895L432.085 186.286Z" fill="#1A6652"/>
<path d="M433.198 183.592L432.287 182.503C432.502 182.326 454.301 164.311 480.503 160.174L480.73 161.578C454.921 165.652 433.413 183.414 433.198 183.592Z" fill="white"/>
<path d="M529.262 180.745C522.91 180.087 515.13 179.366 506.476 179.682C497.835 180.036 488.396 181.618 478.553 186.033C468.71 190.423 463.346 198.305 460.31 205.213C457.286 212.108 456.641 217.991 456.641 217.991C456.641 217.991 461.183 221.824 468.47 224.317C475.732 226.809 485.79 227.948 496.215 222.596C506.602 217.219 514.143 209.768 519.393 202.164C524.669 194.598 527.554 186.754 529.262 180.745Z" fill="#29B79C"/>
<path d="M456.73 218.181L456.566 217.776C456.566 217.776 460.513 216.195 466.358 213.664C472.203 211.134 479.959 207.655 487.613 203.948C495.267 200.254 502.795 196.319 508.374 193.219C511.17 191.689 513.46 190.36 515.067 189.411C516.674 188.475 517.585 187.944 517.585 187.944L517.813 188.323C517.813 188.323 516.889 188.855 515.282 189.803C513.675 190.752 511.386 192.093 508.577 193.612C502.997 196.711 495.457 200.658 487.803 204.34C480.148 208.047 472.393 211.539 466.535 214.069C460.677 216.612 456.73 218.181 456.73 218.181Z" fill="white"/>
<path d="M498.886 198.482C498.86 198.381 498.658 197.217 498.987 195.142C499.303 193.068 500.176 190.132 502.238 186.489L502.618 186.717C500.606 190.284 499.759 193.169 499.442 195.206C499.278 196.218 499.253 197.015 499.265 197.559C499.278 198.103 499.329 198.394 499.329 198.394L498.886 198.482Z" fill="white"/>
<path d="M487.879 204.138L488.208 203.834C488.208 203.834 488.461 204.1 488.967 204.492C489.473 204.884 490.257 205.415 491.358 205.972C493.547 207.073 496.988 208.3 502.023 208.616L501.985 209.059C496.849 208.743 493.357 207.503 491.143 206.377C488.916 205.251 487.955 204.214 487.879 204.138Z" fill="white"/>
<path d="M467.434 213.512L467.775 213.234C467.775 213.234 468.054 213.55 468.61 214.031C469.18 214.512 470.052 215.144 471.28 215.84C473.734 217.219 477.618 218.763 483.375 219.383L483.324 219.825C477.479 219.193 473.557 217.649 471.065 216.258C468.56 214.853 467.51 213.614 467.434 213.512Z" fill="white"/>
<path d="M476.201 209.477C476.176 209.337 475.961 207.566 476.606 204.517C477.251 201.481 478.744 197.154 482.072 191.891L482.438 192.131C479.174 197.331 477.694 201.633 477.061 204.631C476.745 206.137 476.644 207.326 476.619 208.136C476.593 208.945 476.657 209.401 476.657 209.401L476.201 209.477Z" fill="white"/>
<path d="M506.527 194.573L506.844 194.257C506.844 194.257 507.438 194.826 508.754 195.421C510.07 196.003 512.132 196.623 515.092 196.699L515.08 197.141C512.005 197.053 509.893 196.42 508.539 195.813C507.185 195.206 506.578 194.624 506.527 194.573Z" fill="white"/>
<path d="M510.778 262.663C508.413 252.34 503.693 236.601 489.169 224.848C474.658 213.108 456.642 221.28 456.642 221.28C456.642 221.28 453.403 240.764 468.686 251.783C483.944 262.803 500.315 263.182 510.778 262.663Z" fill="#1A6652"/>
<path d="M456.528 221.432L456.756 221.141L501.783 255.566L501.568 255.857L456.528 221.432Z" fill="white"/>
<path d="M487.487 244.8C487.55 244.749 488.36 244.167 490.03 243.686C491.7 243.205 494.243 242.826 497.76 243.193L497.722 243.56C494.281 243.205 491.788 243.585 490.143 244.053C489.321 244.293 488.714 244.547 488.309 244.749C487.904 244.951 487.702 245.103 487.702 245.103L487.487 244.8Z" fill="white"/>
<path d="M479.238 238.626L479.579 238.752C479.579 238.752 479.478 239.043 479.377 239.562C479.276 240.093 479.174 240.878 479.162 241.89C479.149 243.939 479.503 246.938 481.022 250.809L480.68 250.948C479.136 247.001 478.77 243.965 478.782 241.89C478.795 239.828 479.212 238.714 479.238 238.626Z" fill="white"/>
<path d="M464.347 227.239L464.688 227.366C464.688 227.366 464.562 227.695 464.448 228.302C464.334 228.909 464.207 229.808 464.195 230.971C464.169 233.312 464.574 236.753 466.308 241.181L465.966 241.32C464.207 236.816 463.79 233.35 463.815 230.984C463.828 228.606 464.296 227.34 464.347 227.239Z" fill="white"/>
<path d="M470.799 232.034C470.9 231.958 472.102 231.098 474.607 230.39C477.112 229.681 480.895 229.124 486.145 229.668L486.108 230.035C480.933 229.504 477.175 230.061 474.696 230.769C473.456 231.123 472.545 231.503 471.938 231.806C471.33 232.11 471.014 232.325 471.014 232.325L470.799 232.034Z" fill="white"/>
<path d="M493.116 249.228L493.458 249.354C493.458 249.354 493.23 249.999 493.218 251.214C493.218 252.416 493.433 254.187 494.318 256.464L493.977 256.603C493.053 254.25 492.825 252.428 492.838 251.189C492.851 249.949 493.091 249.278 493.116 249.228Z" fill="white"/>
<path d="M89.5649 365.255C89.5649 365.255 89.0589 364.533 86.1363 365.837C83.2138 367.14 76.4704 376.046 74.4714 380.803C74.4714 380.803 78.4567 384.409 81.2274 385.952C81.2274 385.952 83.7198 383.878 85.1242 383.118C85.1242 383.118 85.2254 391.797 84.15 396.934C83.0746 402.083 82.0245 405.221 82.0245 405.221C82.0245 405.221 91.0578 409.446 102.799 407.144C102.799 407.144 102.95 394.783 103.33 390.026C103.71 385.269 105.936 379.968 104.709 375.515C103.482 371.062 98.2313 369.404 93.9804 365.052L89.5649 365.255Z" fill="#1A6652"/>
<path d="M97.9784 353.995C97.9784 353.995 97.776 350.376 95.7011 347.795C93.6388 345.215 89.0842 346.138 87.2244 350.073C85.8833 352.907 85.7315 354.956 85.7442 355.905C85.3646 355.601 84.77 355.399 83.9603 355.956C82.5686 356.905 84.6688 360.232 86.7816 359.65C87.3509 360.826 88.5655 361.801 88.5655 361.801C88.5655 364.483 89.1095 365.204 89.1095 365.204C91.0706 367.582 93.3858 369.923 94.9293 368.898C96.4855 367.861 94.613 366.418 94.107 365.596C93.5882 364.774 94.2461 364.344 94.2461 364.344C98.902 363.711 97.9784 353.995 97.9784 353.995Z" fill="#FF9A5C"/>
<path d="M94.6889 349.744C94.6889 349.744 93.487 354.273 90.7795 355.273C90.7795 355.273 91.6145 354.425 91.7664 353.969C91.7664 353.969 88.3124 357.196 86.3894 356.892C86.3894 356.892 85.1621 356.361 84.7826 352.059C84.403 347.757 88.9324 345.303 88.9324 345.303H94.0816L97.6874 349.453L98.0543 352.375C98.0543 352.363 95.7643 352.363 94.6889 349.744Z" fill="#753519"/>
<path d="M98.4086 401.071C98.4086 401.071 82.4674 398.313 76.6982 395.125C70.9291 391.924 71.6376 389.09 72.4346 387.04C73.2317 385.004 75.7241 380.651 75.7241 380.651L81.3667 384.687L81.2275 385.952L80.266 388.154C80.266 388.154 82.1132 389.318 84.8965 390.861C87.6799 392.405 99.0032 397.592 99.0032 397.592C99.0032 397.592 101.736 399.869 98.4086 401.071Z" fill="#FF9A5C"/>
<path d="M125.977 430.195L122.75 412.672C122.497 411.319 121.612 410.18 120.359 409.611L101.129 400.932L102.179 398.617L121.409 407.295C123.421 408.206 124.863 410.041 125.255 412.204L128.482 429.727L125.977 430.195Z" fill="#108F6E"/>
<path d="M135.061 419.795C135.061 419.795 138.97 417.126 140.931 416.848C142.892 416.569 143.449 418.669 144.84 418.315C146.232 417.961 147.358 416.822 147.358 416.822L150.154 418.302C150.154 418.302 150.432 417.531 152.393 418.302C154.354 419.074 153.228 418.239 154.354 419.074C155.468 419.909 157.15 419.783 157.15 419.783C157.15 419.783 158.542 419.378 159.946 419.783C161.338 420.187 163.426 419.099 166.652 419.783C169.878 420.466 172.801 419.099 174.471 419.783C176.141 420.466 176.988 422.908 178.38 422.25C179.772 421.592 182.011 419.783 182.011 419.783L184.25 423.692C184.25 423.692 185.085 421.883 186.211 423.692C187.325 425.501 189.842 426.614 189.842 426.614C189.842 426.614 190.399 426.969 191.234 428.322C192.069 429.689 192.74 433.446 192.74 433.446V435.129L150.711 433.446L133.112 423.692L135.061 419.795Z" fill="#753519"/>
<path d="M132.062 424.122L128.836 406.6C128.583 405.246 127.697 404.107 126.445 403.551L107.214 394.872L108.264 392.557L127.495 401.235C129.506 402.146 130.949 403.981 131.341 406.144L134.567 423.667L132.062 424.122Z" fill="#108F6E"/>
<path d="M128.735 419.795C128.735 419.795 125.18 430.84 124.243 432.712C123.307 434.585 126.495 441.315 126.495 441.315L159.997 457.788L192.74 435.141L128.735 419.795Z" fill="#108F6E"/>
<path d="M122.472 473.45C121.447 473.45 120.612 473.223 119.942 472.78C118.246 471.679 117.652 469.326 117.993 465.151C118.677 456.965 124.357 434.256 124.598 433.294L125.977 433.636C125.913 433.876 120.081 457.206 119.41 465.265C119.119 468.807 119.537 470.806 120.713 471.591C122.497 472.754 126.66 471.553 133.428 467.896C146.143 461.026 155.645 454.764 155.733 454.701L156.518 455.89C156.417 455.953 146.877 462.254 134.099 469.149C128.709 472.059 125.015 473.45 122.472 473.45Z" fill="#108F6E"/>
<path d="M192.765 442.479C192.765 442.479 190.753 444.719 190.639 446.11C190.526 447.502 192.765 446.11 192.765 446.11C192.765 446.11 193.878 447.628 195.004 446.73C196.118 445.832 195.004 444.744 195.004 444.744L195.498 442.479H192.765Z" fill="#753519"/>
<path d="M288.994 474.323L287.096 475.791C287.096 475.791 286.489 474.968 285.413 473.526C284.363 472.084 282.883 470.022 281.175 467.491C277.747 462.443 273.394 455.574 269.422 448.476C265.436 441.391 261.894 434.053 259.452 428.461C258.301 425.627 257.339 423.274 256.656 421.63C256.049 419.947 255.707 418.985 255.707 418.985L257.959 418.163C257.959 418.163 258.301 419.112 258.896 420.757C259.566 422.389 260.515 424.704 261.654 427.5C264.07 433.029 267.575 440.278 271.522 447.3C275.444 454.334 279.758 461.14 283.161 466.138C284.844 468.643 286.312 470.68 287.349 472.109C288.399 473.513 288.994 474.323 288.994 474.323Z" fill="#108F6E"/>
<path d="M257.567 410.598C257.567 410.598 257.061 409.636 256.188 408.51C255.758 407.941 255.226 407.333 254.644 406.764C254.088 406.195 253.468 405.676 252.772 405.309C252.317 405.954 252 406.726 251.76 407.523C251.557 408.308 251.469 409.117 251.418 409.851C251.33 411.306 251.444 412.445 251.444 412.445C249.217 411.622 247.091 411.508 245.535 411.622C243.979 411.736 242.98 412.065 242.98 412.065C245.75 417.417 249.533 419.428 252.443 420.175C255.366 420.921 257.516 420.415 257.516 420.415C257.516 420.415 259.465 419.34 261.287 416.974C263.108 414.608 264.728 411.015 264.551 405.967C264.551 405.967 263.526 406.207 262.134 406.891C260.743 407.599 258.984 408.738 257.567 410.598Z" fill="#108F6E"/>
<path d="M198.901 447.009C198.901 447.009 197.231 450.298 197.509 451.133C197.788 451.968 198.901 451.133 198.901 451.133C198.901 451.133 200.571 451.879 201.419 451.5C202.254 451.133 203.658 449.298 203.658 449.298H200.571L198.901 447.009Z" fill="#753519"/>
<path d="M207.567 469.136C207.567 469.136 200.546 468.39 200.571 469.136C200.584 469.882 200.571 472.021 200.571 472.021C200.571 472.021 199.129 470.249 197.484 472.021C195.839 473.792 195.498 476.588 195.498 476.588C195.498 476.588 195.055 478.258 193.069 478.536C191.095 478.814 190.639 480.497 190.639 480.497C190.639 480.497 194.928 481.889 197.484 482.167C200.027 482.445 202.266 482.167 202.266 482.167C202.266 482.167 205.062 481.851 207.58 482.294C210.098 482.736 212.894 483.293 215.399 483.571C217.916 483.85 222.383 481.61 222.383 481.61C222.383 481.61 230.201 481.332 233.276 481.889C236.35 482.445 239.703 481.054 239.703 481.054L240.816 478.536C240.816 478.536 238.577 478.043 237.185 476.196C235.793 474.348 234.111 469.503 232.997 469.136C231.884 468.769 228.81 466.239 228.81 466.239C228.81 466.239 226.014 461.925 225.735 459.205C225.457 456.484 221.826 454.739 221.826 454.739C221.826 454.739 220.156 455.194 219.03 457.509C217.916 459.837 215.74 459.205 215.74 459.205C215.74 459.205 214.285 459.445 213.45 461.874C212.615 464.303 212.337 466.239 212.337 466.239C212.337 466.239 208.984 465.1 207.302 466.239C205.606 467.377 207.567 469.136 207.567 469.136Z" fill="#753519"/>
<path d="M161.005 455.858L158.605 457.389L164.881 467.222L167.281 465.691L161.005 455.858Z" fill="#108F6E"/>
<path d="M437.975 426.858L419.229 475.559L422.028 476.636L440.774 427.935L437.975 426.858Z" fill="#1A6652"/>
<path d="M440.777 426.856L437.979 427.933L456.725 476.634L459.523 475.557L440.777 426.856Z" fill="#1A6652"/>
<path d="M447.785 446.199H431.591V449.197H447.785V446.199Z" fill="#1A6652"/>
<path d="M451.353 456.915H427.872V459.913H451.353V456.915Z" fill="#1A6652"/>
<path d="M420.787 273.126C420.787 273.126 416.865 276.96 415.486 281.173C414.107 285.398 416.169 289.029 420.002 290.105C420.002 290.105 420.888 294.52 420.787 296.089C420.787 296.089 423.735 296.873 425.303 296.683C426.872 296.481 428.251 295.899 428.251 295.899V289.611C428.251 289.611 431.199 286.967 432.085 284.513C432.97 282.058 433.755 276.074 430.908 273.126C428.049 270.178 422.343 271.393 420.787 273.126Z" fill="#FF9A5C"/>
<path d="M378.163 254.06C378.163 254.06 378.062 254.503 375.797 255.199C373.533 255.895 371.913 255.25 371.268 257.084C370.623 258.919 371.913 262.474 370.509 263.233C369.104 263.992 368.674 264.523 368.674 264.523C368.674 264.523 372.229 269.053 373.419 270.988C373.419 270.988 375.038 269.698 375.57 267.433C376.114 265.168 379.783 266.257 380.63 265.497C381.478 264.738 382.376 263.562 382.376 263.562C382.376 263.562 381.174 255.667 378.163 254.06Z" fill="#1A6652"/>
<path d="M426.138 277.187C426.138 277.187 422.191 274.429 421.267 271.861C420.344 269.293 421.457 266.914 423.697 267.18C425.949 267.446 427.138 267.813 427.138 267.813C427.138 267.813 429.238 265.156 432.869 268.546C436.5 271.937 436.045 276.719 436.045 276.719C436.045 276.719 440.637 278.01 438.803 282.324C436.968 286.638 432.869 288.042 432.869 288.042C432.869 288.042 432.274 290.838 430.718 290.99C429.162 291.142 428.226 291.509 428.226 291.509L428.517 286.271C428.517 286.271 429.984 286.271 430.807 284.525C431.629 282.779 429.061 283.058 429.061 283.058C429.061 283.058 427.593 280.401 428.239 279.389C428.251 279.389 425.961 278.465 426.138 277.187Z" fill="#753519"/>
<path d="M406.705 287.309C406.705 287.309 399.646 281.767 393.649 274.404C387.652 267.041 383.97 261.778 383.97 261.778C383.97 261.778 383.97 258.716 382.743 256.148C381.516 253.58 381.389 254.061 380.656 253.086C379.922 252.112 379.922 253.883 380.858 255.617C381.782 257.35 381.782 257.35 381.782 257.35C381.782 257.35 379.378 253.516 378.492 253.643C377.607 253.77 378.657 255.035 379.125 255.705C379.593 256.376 379.757 257.565 379.757 257.565C379.757 257.565 378.024 254.908 377.442 255.376C376.847 255.844 378.075 257.438 379.049 258.704C380.023 259.969 380.187 261.955 380.782 263.005C380.782 263.005 389.132 284.664 401.025 293.976C412.917 303.287 406.705 287.309 406.705 287.309Z" fill="#FF9A5C"/>
<path d="M383.755 262.056C383.755 262.056 384.021 260.652 384.122 260.5C384.223 260.348 384.552 259.172 384.792 258.45C385.033 257.729 384.679 257.008 384.274 257.362C383.869 257.717 382.945 259.02 382.971 259.804C382.996 260.589 383.755 262.056 383.755 262.056Z" fill="#FF9A5C"/>
<path d="M439.246 309.183C439.246 309.183 444.572 315.648 446.609 316.66C448.646 317.685 454.023 313.206 456.793 308.057C459.564 302.908 461.007 299.011 461.007 299.011C461.007 299.011 464.612 296.405 465.624 293.913C465.624 293.913 465.991 292.799 465.624 292.546C465.257 292.293 464.195 294.102 463.638 294.786C463.638 294.786 465.257 291.977 465.004 291.357C464.751 290.737 462.449 293.976 462.449 293.976C462.449 293.976 464.258 290.674 463.638 290.611C463.018 290.547 461.272 293.546 461.272 293.546C461.272 293.546 461.209 291.484 460.589 291.61C459.969 291.737 460.146 294.039 460.146 294.039C460.146 294.039 459.526 296.911 459.147 297.847C458.767 298.783 450.91 307.766 449.911 308.019C449.911 308.019 446.735 303.528 443.8 302.655C440.865 301.782 439.246 309.183 439.246 309.183Z" fill="#FF9A5C"/>
<path d="M411.994 329.21C411.994 329.21 419.37 407.409 420.66 413.988C420.66 413.988 427.657 414.836 430.035 413.988C430.035 413.988 429.516 366.381 430.035 361.484C430.554 356.588 434.78 331.602 433.261 328.224C431.743 324.846 411.994 329.21 411.994 329.21Z" fill="#0E1A34"/>
<path d="M435.121 327.882C435.121 327.882 437.753 359.157 439.056 363.951C440.359 368.746 454.503 388.976 454.503 388.976L448.304 395.251C448.304 395.251 435.475 382.245 431.756 377.526C428.036 372.795 421.622 353.046 421.622 353.046C421.622 353.046 425.329 322.986 435.121 327.882Z" fill="#0E1A34"/>
<path d="M325.608 151.318C318.409 149.078 313.197 148.382 308.971 146.004C304.745 143.625 300.532 141.867 297.306 142.006C294.08 142.145 287.374 140.387 283.402 142.006C279.429 143.625 275.229 151.811 269.131 153.304C263.045 154.797 247.749 151.571 243.486 148.838C239.209 146.105 238.007 140.652 239.235 137.92C240.462 135.187 240.955 130.316 240.715 128.532C240.462 126.748 246.914 123.244 249.154 120.903C251.38 118.563 253.506 110.921 248.217 107.101C222.889 112.794 199.572 123.788 179.506 138.881C179.506 138.894 179.67 140.665 181.151 143.145C182.644 145.624 180.252 147.117 180.328 147.864C180.404 148.61 181.733 148.522 180.569 149.926C179.405 151.33 180.594 151.09 179.506 152.077C178.418 153.063 177.431 154.063 176.685 154.556C175.938 155.05 176.191 156.543 174.698 158.276C173.205 160.009 170.473 161.502 170.473 164.235C170.473 166.968 166.247 170.687 165.754 172.18C165.26 173.673 161.034 179.379 160.794 183.098C160.541 186.818 160.541 190.79 160.794 193.03C161.047 195.269 161.161 197.749 160.604 200.481C160.048 203.214 159.554 205.694 159.301 210.653C159.048 215.613 161.034 217.852 165.754 219.345C170.473 220.838 179.392 225.051 181.631 228.277C183.871 231.503 185.111 235.475 186.857 235.969C188.59 236.462 190.083 241.675 195.789 245.647C201.495 249.62 212.173 250.126 216.892 255.212C221.611 260.298 230.29 272.684 232.529 279.528C234.769 286.36 238.488 288.877 242.461 292.217C246.433 295.545 251.393 299.277 255.125 299.517C258.845 299.77 260.363 298.202 260.224 296.873C260.085 295.545 255.366 291.572 254.619 290.585C253.873 289.599 252.38 282.893 250.153 278.174C247.914 273.455 247.673 273.265 248.42 271.001C249.166 268.736 250.659 263.777 252.886 262.537C255.125 261.297 256.859 262.195 258.351 260.007C259.844 257.818 260.363 256.578 260.224 255.212C260.085 253.845 257.845 252.998 255.619 252.795C253.379 252.606 252.645 250.619 249.66 250.113C246.687 249.62 242.461 248.38 241.474 246.634C240.487 244.901 238.248 244.395 236.755 244.648C235.262 244.901 230.796 245.635 227.823 242.661C224.85 239.688 224.597 233.97 224.103 230.997C223.61 228.024 223.116 227.024 223.85 224.798C224.597 222.558 224.597 220.812 228.076 219.206C231.555 217.599 237.261 216.346 240.74 219.206C244.219 222.065 251.165 219.838 252.658 218.092C254.151 216.359 258.364 211.147 261.843 210.894C265.322 210.641 271.028 210.894 273.268 208.907C275.507 206.921 283.946 202.733 285.426 199.368C286.919 196.003 292.625 186.236 292.625 183.048C292.625 179.859 303.05 173.66 306.023 174.647C308.996 175.634 312.969 170.927 314.462 170.927C315.955 170.927 320.421 171.674 322.9 168.688C325.38 165.715 327.366 163.703 329.353 160.857C331.314 158.01 332.807 153.544 325.608 151.318Z" fill="#108F6E"/>
<path d="M310.135 385.307C310.135 385.307 301.759 380.069 294.649 377.071C287.539 374.073 282.301 363.483 280.429 361.295C278.556 359.106 277.063 340.015 280.429 336.649C283.794 333.284 287.185 327.667 289.981 323.176C292.777 318.684 293.903 315.686 292.777 313.813C291.651 311.941 291.651 301.314 292.777 299.517C293.903 297.721 299.507 294.355 302.139 294.722C304.758 295.102 312.994 292.799 316.359 294.697C319.725 296.595 332.452 303.325 338.07 303.705C343.687 304.085 349.292 308.955 353.783 306.324C358.275 303.692 364.866 306.703 368.687 312.308C372.508 317.925 376.999 323.631 383.35 327.325C389.714 331.02 389.157 334.385 392.801 335.131C396.445 335.878 404.592 338.104 408.995 341.115C413.411 344.139 411.956 347.846 408.312 352.337C404.668 356.829 400.139 363.939 397.166 368.43C394.193 372.921 395.281 379.652 397.166 381.524C399.051 383.397 397.558 391.253 394.939 393.505C392.32 395.745 386.703 399.489 384.464 403.614C382.224 407.726 382.439 410.787 377.277 412.622C372.116 414.469 360.514 419.707 353.404 421.389C346.293 423.072 340.309 423.477 335.438 427.576C330.567 431.675 329.884 442.834 325.304 444.744C320.724 446.654 306.985 455.257 301.747 454.701C296.509 454.144 296.509 453.094 299.507 449.311C302.493 445.528 310.072 438.874 314.335 432.801C318.599 426.728 312.981 420.871 316.726 418.416C320.471 415.962 321.129 408.662 322.293 406.511C323.47 404.398 323.153 392.443 310.135 385.307Z" fill="#108F6E"/>
<path d="M417.662 217.978C418.408 219.509 422.406 221.255 425.392 222.748C428.39 224.241 431.199 221.938 432.414 217.978C433.628 214.018 438.866 213.272 441.611 214.765C444.357 216.258 447.355 217.004 449.342 216.511C451.315 216.017 455.136 214.55 455.237 214.512C443.813 186.856 425.734 162.653 402.998 143.904C402.998 143.904 400.949 146.915 397.697 149.901C394.459 152.886 393.649 155.126 392.801 156.872C391.953 158.618 389.461 166.107 390.461 169.346C391.46 172.585 391.043 174.837 394.749 177.582C398.456 180.327 401.746 181.264 400.101 186.286C398.456 191.309 399.696 196.673 397.95 199.355C396.204 202.037 396.002 207.275 400.101 210.767C404.188 214.259 409.438 213.512 410.678 213.765C411.918 214.018 416.915 216.46 417.662 217.978Z" fill="#108F6E"/>
<path d="M294.649 259.994C294.649 259.994 294.649 263.423 292.157 265.675C289.664 267.914 287.172 271.912 289.664 272.405C292.157 272.899 297.395 273.645 298.647 274.391C299.9 275.151 306.377 278.642 308.123 277.39C309.869 276.137 311.122 273.152 312.868 272.899C314.614 272.646 315.107 268.23 316.613 266.813C318.118 265.396 323.343 260.411 323.849 256.426C324.343 252.428 324.849 246.444 323.849 244.951C322.85 243.458 315.866 242.459 315.12 240.46C314.373 238.461 309.92 236.968 306.529 238.967C303.139 240.966 301.646 245.457 301.14 248.696C300.633 251.948 294.396 254.313 294.649 259.994Z" fill="#108F6E"/>
<path d="M401.936 154.063L399.886 152.52C399.886 152.52 400.493 151.71 401.506 150.128C402.518 148.572 403.897 146.27 405.44 143.448C408.515 137.806 412.108 129.962 414.992 121.865C417.877 113.768 420.23 105.469 421.571 99.1555C422.356 96.0179 422.748 93.3611 423.127 91.514C423.482 89.6669 423.684 88.6041 423.684 88.6041L426.214 89.0343C426.214 89.0343 426.012 90.1097 425.658 91.9821C425.278 93.8545 424.873 96.5493 424.076 99.7248C422.71 106.114 420.331 114.527 417.409 122.738C414.474 130.961 410.83 138.919 407.692 144.676C406.123 147.56 404.706 149.913 403.656 151.52C402.632 153.139 401.936 154.063 401.936 154.063Z" fill="#108F6E"/>
<path d="M429.516 81.4307C429.516 81.4307 429.466 80.2288 429.124 78.698C428.732 77.1671 428.049 75.3453 426.923 74.1055C425.569 75.0923 424.544 76.699 423.861 78.0527C423.14 79.4064 422.735 80.5071 422.735 80.5071C419.129 77.0659 414.6 76.7623 414.6 76.7623C415.106 82.3163 417.662 85.8461 419.99 87.9968C422.305 90.1476 424.557 90.9067 424.557 90.9067C424.557 90.9067 426.936 91.0332 429.909 89.7048C432.869 88.389 436.298 85.5424 438.423 79.6468C438.423 79.6595 434.008 78.9383 429.516 81.4307Z" fill="#108F6E"/>
<path d="M368.016 27.8895C368.016 27.8895 365.866 28.3576 361.653 30.7867C357.44 33.2158 347.989 42.5779 347.989 42.5779C347.989 42.5779 351.455 48.8531 355.845 52.2184C355.845 52.2184 360.995 49.8778 362.298 48.9416C362.298 48.9416 364.917 61.5678 359.679 69.3358C359.679 69.3358 362.677 72.8909 367.637 73.6374C372.596 74.3838 377.834 74.2952 382.136 77.3822C386.437 80.4692 393.459 80.1908 396.457 77.3822C396.457 77.3822 398.988 67.6532 396.457 58.5694C393.927 49.4983 390.283 44.4377 390.283 44.4377L391.878 45.6522C391.878 45.6522 397.305 39.7566 397.583 35.1768C397.583 35.1768 391.308 28.7245 386.817 26.2828C382.325 23.8537 377.417 24.6887 373.697 26.2828C369.977 27.8895 368.016 27.8895 368.016 27.8895Z" fill="#108F6E"/>
<path d="M358.262 16.3261C358.3 16.7436 359.375 21.8801 361.88 24.3851C364.385 26.8901 366.334 25.3593 367.017 25.6376C367.713 25.9159 368.13 27.8643 368.13 29.2559C368.13 30.6476 370.357 32.0393 372.444 30.5084C374.532 28.9776 373.419 21.8928 373.419 21.8928C373.419 21.8928 374.57 19.5269 373.71 16.3388C373.71 16.3388 374.772 13.6946 374.026 12.1638C373.279 10.6329 372.166 11.0504 371.609 12.1638C371.609 12.1638 368.965 7.30558 365.081 8.12793C361.172 8.95028 357.705 11.0378 358.262 16.3261Z" fill="#FF9A5C"/>
<path d="M376.329 13.4036C375.076 11.7336 375.911 7.43209 374.292 4.92709C372.672 2.42209 369.244 3.25709 369.244 3.25709C369.244 3.25709 368.409 -0.500404 365.208 0.0562623C362.007 0.612928 359.097 4.91444 359.097 4.91444C359.097 4.91444 357.427 4.35777 354.378 4.91444C351.316 5.47111 347.85 7.5586 349.102 10.6076C350.355 13.6693 355.074 13.4922 355.074 13.4922C355.074 13.4922 353.821 19.5016 358.211 17.8316C358.338 17.781 358.452 17.7178 358.578 17.6545C358.389 16.9334 358.287 16.4147 358.275 16.3008C357.87 12.5053 359.565 10.3546 361.994 9.14004C362.943 8.67194 363.993 8.33034 365.081 8.08997C368.978 7.25497 371.61 12.1258 371.61 12.1258C372.166 11.0125 373.28 10.595 374.026 12.1258C374.773 13.6566 373.71 16.3008 373.71 16.3008C374.178 18.0467 374.039 19.5396 373.824 20.539C373.975 20.5643 374.14 20.615 374.292 20.615C378.353 20.6276 377.569 15.0736 376.329 13.4036Z" fill="#753519"/>
<path d="M358.553 17.6798C358.553 17.6798 363.335 15.6555 363.677 8.49477C363.677 8.49477 365.144 12.9607 371.584 12.1637C371.584 12.1637 371.078 6.1922 365.777 4.69932C360.476 3.20644 356.592 12.0498 356.592 12.0498C356.592 12.0498 355.921 15.5796 358.553 17.6798Z" fill="#753519"/>
<path d="M367.397 126.027C366.397 117.601 364.727 109.201 364.714 109.125L365.41 108.986C365.423 109.074 367.093 117.5 368.105 125.951L367.397 126.027Z" fill="white"/>
<path d="M107.733 392.354C107.733 392.354 109.213 392.379 110.035 392.531C110.858 392.67 111.389 393.847 111.63 394.315C111.857 394.783 110.833 394.733 110.314 394.087C109.795 393.442 109.694 393.265 109.694 393.265C109.694 393.265 108.909 393.1 108.467 393.265C108.024 393.429 107.48 392.898 107.391 392.531C107.303 392.164 107.733 392.354 107.733 392.354Z" fill="#FF9A5C"/>
<path d="M97.9783 400.932C99.2814 402.336 100.977 403.083 100.977 403.083C101.103 404.158 101.723 404.613 102.065 404.575C102.419 404.537 102.419 402.918 102.419 402.918C102.723 403.664 103.95 404.411 104.114 403.955C104.279 403.5 104.114 402.754 104.114 402.754C104.114 402.754 104.608 403.411 104.987 403.411C105.354 403.411 105.81 403.082 105.645 402.248C105.481 401.425 104.987 400.173 104.481 399.515C103.988 398.857 103.697 398.186 102.621 397.946C101.546 397.693 101.167 397.857 99.9266 397.744C98.6868 397.617 96.8143 397.744 96.8143 397.744L97.9783 400.932Z" fill="#FF9A5C"/>
<path d="M98.4084 398.364V397.693C98.4084 397.693 101.432 396.769 102.039 396.985C102.647 397.2 103.203 398.047 103.532 398.364C103.861 398.68 98.4084 398.364 98.4084 398.364Z" fill="#FF9A5C"/>
<path d="M171.422 490.429C178.618 490.429 184.453 484.594 184.453 477.398C184.453 470.201 178.618 464.366 171.422 464.366C164.225 464.366 158.39 470.201 158.39 477.398C158.39 484.594 164.225 490.429 171.422 490.429Z" fill="#0E1A34"/>
<path d="M171.421 483.217C168.208 483.217 165.602 480.611 165.602 477.397C165.602 474.184 168.208 471.578 171.421 471.578C174.635 471.578 177.241 474.184 177.241 477.397C177.241 480.598 174.635 483.217 171.421 483.217ZM171.421 472.286C168.6 472.286 166.31 474.576 166.31 477.397C166.31 480.219 168.6 482.509 171.421 482.509C174.243 482.509 176.533 480.219 176.533 477.397C176.533 474.576 174.243 472.286 171.421 472.286Z" fill="white"/>
<path d="M327.67 265.383C327.67 265.383 324.722 268.053 322.66 270.988C320.598 273.923 326.19 272.456 327.67 272.747C329.138 273.038 329.441 275.163 332.377 274.404C335.324 273.632 332.667 274.518 335.324 273.632C337.969 272.747 338.854 273.038 341.511 272.747C344.168 272.456 343.637 270.533 345.079 268.837C346.521 267.155 346.584 265.674 345.079 264.207C343.573 262.739 342.688 267.155 339.74 264.207C336.792 261.259 336.893 258.729 334.198 259.994C331.504 261.259 332.199 261.702 330.96 262.803C329.732 263.903 327.67 265.383 327.67 265.383Z" fill="#108F6E"/>
<path d="M423.507 293.242C423.507 293.242 414.916 293.837 407.654 286.474C407.654 286.474 402.846 290.396 400.101 295.507C400.101 295.507 405.402 301.693 411.386 304.54C411.386 304.54 408.679 327.351 410.109 335.258C410.109 335.258 419.635 337.029 425.518 337.421C431.401 337.813 438.676 335.954 438.676 335.954L437.006 307.779L438.676 309.74C438.676 309.74 444.762 304.148 444.863 301.099C444.863 301.099 436.184 292.951 432.426 291.673C428.656 290.396 427.163 293.533 423.507 293.242Z" fill="#1A6652"/>
<path d="M430.162 374.275L429.453 374.262C429.466 373.617 429.719 358.549 430.162 356.462C430.592 354.425 433.211 340.192 433.249 340.053L433.944 340.179C433.919 340.319 431.3 354.551 430.857 356.614C430.427 358.625 430.162 374.123 430.162 374.275Z" fill="white"/>
<path d="M303.063 485.912H295.105C295.105 485.912 276.241 467.289 273.888 444.769C271.534 422.25 289.513 429.562 297.47 449.336C305.428 469.111 306.314 485.912 306.314 485.912H303.063Z" fill="#1A6652"/>
<path d="M317.587 485.912H325.545C325.545 485.912 344.408 467.289 346.762 444.769C349.115 422.25 331.137 429.562 323.179 449.336C315.221 469.111 314.335 485.912 314.335 485.912H317.587Z" fill="#1A6652"/>
<path d="M362.26 249.645L363.032 248.064L364.031 249.506L365.6 250.278L364.17 251.277L363.399 252.846L362.399 251.416L360.83 250.645L362.26 249.645Z" fill="white"/>
<path d="M389.853 256.148L390.321 255.199L390.929 256.072L391.89 256.54L391.017 257.147L390.549 258.096L389.942 257.223L388.98 256.755L389.853 256.148Z" fill="white"/>
<path d="M394.307 243.269L394.775 242.32L395.382 243.193L396.344 243.661L395.471 244.268L395.003 245.23L394.395 244.344L393.434 243.876L394.307 243.269Z" fill="white"/>
<path d="M355.605 238.461L356.073 237.512L356.68 238.385L357.642 238.853L356.769 239.461L356.301 240.41L355.694 239.537L354.732 239.068L355.605 238.461Z" fill="white"/>
<path d="M361.387 273.759L361.855 272.797L362.462 273.67L363.411 274.138L362.538 274.758L362.07 275.707L361.463 274.834L360.501 274.366L361.387 273.759Z" fill="white"/>
<path d="M263.463 57.7723L263.172 57.5699C263.45 57.1777 263.615 56.9626 263.615 56.9626L263.893 57.1777C263.893 57.1777 263.741 57.3801 263.463 57.7723Z" fill="white"/>
<path d="M254.012 78.1286L253.67 78.0526C253.696 77.9514 253.721 77.8376 253.746 77.7364L254.088 77.8123C254.062 77.9135 254.037 78.0147 254.012 78.1286ZM254.442 76.3826L254.1 76.2941C254.227 75.8133 254.366 75.3326 254.518 74.8645L254.86 74.9657C254.708 75.4338 254.569 75.9019 254.442 76.3826ZM255.315 73.5614L254.973 73.4475C255.138 72.9794 255.302 72.5113 255.467 72.0432L255.796 72.1697C255.631 72.6251 255.467 73.0933 255.315 73.5614ZM256.34 70.7907L256.011 70.6515C256.201 70.1834 256.39 69.728 256.58 69.2725L256.909 69.4117C256.719 69.8671 256.53 70.3226 256.34 70.7907ZM257.516 68.0706L257.2 67.9188C257.415 67.4633 257.63 67.0079 257.845 66.5777L258.162 66.7295C257.947 67.1723 257.731 67.6151 257.516 68.0706ZM258.82 65.4138L258.503 65.2493C258.744 64.7939 258.971 64.3637 259.199 63.9336L259.515 64.1107C259.288 64.5282 259.06 64.971 258.82 65.4138ZM260.249 62.8202L259.946 62.6431C260.199 62.1877 260.452 61.7702 260.705 61.3653L261.008 61.5424C260.755 61.9473 260.502 62.3774 260.249 62.8202ZM261.78 60.2899L261.476 60.1002C261.767 59.6321 262.046 59.2145 262.286 58.8477L262.577 59.0501C262.337 59.417 262.071 59.8218 261.78 60.2899Z" fill="white"/>
<path d="M253.708 79.6215L253.354 79.5582C253.405 79.3179 253.443 79.0648 253.493 78.8245L253.847 78.9004C253.797 79.1408 253.746 79.3811 253.708 79.6215Z" fill="white"/>
<path d="M266.082 58.658L265.727 58.5948C265.816 58.114 265.867 57.861 265.867 57.861L266.208 57.9369C266.221 57.9369 266.17 58.1899 266.082 58.658Z" fill="white"/>
<path d="M264.222 76.4207C264.209 75.9273 264.197 75.4212 264.197 74.9278H264.551C264.551 75.4212 264.563 75.9146 264.576 76.408L264.222 76.4207ZM264.563 73.4476H264.209C264.222 72.9542 264.234 72.4481 264.247 71.9673L264.601 71.98C264.589 72.4607 264.576 72.9542 264.563 73.4476ZM264.665 70.4871L264.31 70.4618C264.336 69.9557 264.374 69.4623 264.399 68.9816L264.753 69.0069C264.728 69.5003 264.69 69.9937 264.665 70.4871ZM264.88 67.5393L264.525 67.514C264.576 67.0079 264.614 66.5145 264.665 66.0338L265.019 66.0717C264.968 66.5398 264.918 67.0333 264.88 67.5393ZM265.183 64.5915L264.829 64.5536C264.892 64.0348 264.956 63.5414 265.019 63.0733L265.373 63.1239C265.31 63.592 265.247 64.0728 265.183 64.5915ZM265.588 61.6564L265.234 61.6058C265.31 61.0617 265.398 60.5683 265.462 60.1382L265.816 60.2014C265.74 60.6316 265.664 61.125 265.588 61.6564Z" fill="white"/>
<path d="M264.424 79.6089C264.399 79.3559 264.386 79.1155 264.361 78.8625L264.715 78.8372C264.728 79.0902 264.753 79.3306 264.778 79.5836L264.424 79.6089Z" fill="white"/>
<path d="M258.731 84.5936C258.718 84.3532 258.693 84.1002 258.693 83.8598L259.047 83.8471C259.06 84.0875 259.072 84.3279 259.085 84.5683L258.731 84.5936ZM258.642 82.4428C258.642 82.2531 258.642 82.0633 258.642 81.8735C258.642 81.5825 258.642 81.3042 258.655 81.0132L259.009 81.0259C259.009 81.3042 258.997 81.5952 258.997 81.8735C258.997 82.0633 258.997 82.2531 258.997 82.4428H258.642ZM259.06 79.6089L258.706 79.5962C258.731 79.1155 258.769 78.6474 258.807 78.1666L259.161 78.1919C259.123 78.66 259.085 79.1281 259.06 79.6089ZM259.3 76.775L258.946 76.737C258.997 76.2563 259.06 75.7881 259.136 75.32L259.49 75.3706C259.414 75.8387 259.351 76.3069 259.3 76.775ZM259.705 73.979L259.351 73.9157C259.439 73.435 259.528 72.9795 259.617 72.5114L259.971 72.5873C259.882 73.0428 259.794 73.5109 259.705 73.979ZM260.274 71.1956L259.933 71.1197C260.047 70.6516 260.161 70.1835 260.274 69.7281L260.616 69.8166C260.502 70.2721 260.388 70.7275 260.274 71.1956ZM260.983 68.4503L260.641 68.3491C260.78 67.881 260.907 67.4255 261.046 66.9827L261.388 67.0839C261.249 67.5267 261.122 67.9822 260.983 68.4503ZM261.831 65.7428L261.489 65.629C261.653 65.1609 261.805 64.7054 261.97 64.2879L262.299 64.4144C262.147 64.8319 261.982 65.2747 261.831 65.7428ZM262.805 63.0734L262.476 62.9469C262.666 62.4661 262.843 62.0233 263.02 61.6311L263.349 61.7703C263.172 62.1625 262.994 62.6053 262.805 63.0734ZM263.918 60.4672L263.602 60.3154C263.981 59.493 264.222 59.0376 264.234 59.0249L264.551 59.1894C264.525 59.202 264.285 59.6575 263.918 60.4672Z" fill="white"/>
<path d="M84.9218 382.018C84.7699 381.929 84.6055 381.841 84.4536 381.739C81.936 380.133 79.5954 378.324 76.8373 377.122C76.7234 377.071 76.6349 377.008 76.5337 376.945C75.6607 378.349 74.9395 379.69 74.4714 380.791C74.4714 380.791 78.4567 384.396 81.2275 385.94C81.2275 385.94 82.9228 384.523 84.3145 383.599C84.4789 383.068 84.6814 382.537 84.9218 382.018Z" fill="#19614F"/>
</svg>
