<svg id="Capa_1" enable-background="new 0 0 512 512" height="512" viewBox="0 0 512 512" width="512" xmlns="http://www.w3.org/2000/svg"><g><path d="m271.004 9.583-6.749 1.715-17.88 28.057v31.259l18.098 34.111h6.531c11.91-12.32 19.25-29.081 19.25-47.572 0-18.489-7.34-35.25-19.25-47.57z" fill="#8cc825"/><path d="m251.755 57.154c0-18.49 7.34-35.252 19.25-47.571-2.598-2.687-5.404-5.171-8.408-7.407-3.9-2.902-9.292-2.902-13.192 0-16.781 12.484-27.658 32.455-27.658 54.978s10.877 42.494 27.658 54.978c3.9 2.902 9.292 2.902 13.192 0 3.005-2.235 5.811-4.72 8.408-7.407-11.91-12.319-19.25-29.08-19.25-47.571z" fill="#82b922"/><path d="m226.08 169.849c-2.519-24.566-16.2-47.669-39.044-61.283-8.368-4.987-17.27-8.279-26.314-9.993h-11.871l-16.1 10.597 9.18 41.098 30.364 31.635 24.15 6.002 5.504.138c5.531-1.042 10.95-2.651 16.157-4.814 5.301-2.201 8.56-7.67 7.974-13.38z" fill="#8cc825"/><path d="m397.443 103.387c-5.207-2.163-10.625-3.772-16.157-4.814l-8.516.357-27.102 10.541-32.567 40.043v31.259l16.383 7.271h10.576c9.043-1.714 17.946-5.006 26.314-9.993 22.844-13.614 36.525-36.718 39.044-61.283.584-5.71-2.675-11.179-7.975-13.381z" fill="#8cc825"/><path d="m175.636 178.051c-22.844-13.614-36.525-36.718-39.044-61.283-.585-5.71 2.674-11.178 7.974-13.38 5.207-2.163 10.625-3.772 16.156-4.814-15.646-2.965-31.714-1.19-46.165 4.814-5.3 2.202-8.56 7.671-7.974 13.38 2.519 24.566 16.199 47.669 39.044 61.283 17.628 10.505 37.629 13.516 56.323 9.993-9.044-1.714-17.947-5.006-26.314-9.993z" fill="#82b922"/><path d="m323.902 183.23c-5.301-2.202-8.56-7.671-7.974-13.38 2.519-24.566 16.2-47.669 39.044-61.283 8.368-4.987 17.27-8.279 26.314-9.993-18.694-3.523-38.695-.513-56.323 9.993-22.844 13.614-36.525 36.718-39.044 61.283-.586 5.71 2.674 11.178 7.974 13.38 14.452 6.004 30.52 7.779 46.166 4.814-5.531-1.043-10.95-2.651-16.157-4.814z" fill="#82b922"/><path d="m370.132 129.193c-2.12-3.703-6.841-4.987-10.544-2.866l-95.861 54.887v-131.157c0-4.267-3.459-7.726-7.726-7.726s-7.726 3.459-7.726 7.726v131.156l-95.861-54.886c-3.703-2.12-8.424-.837-10.544 2.866s-.837 8.424 2.866 10.544l103.539 59.283v82.243c0 4.267 3.459 7.726 7.726 7.726s7.726-3.459 7.726-7.726v-82.243l103.539-59.283c3.703-2.12 4.986-6.841 2.866-10.544z" fill="#98d829"/><path d="m474.101 285.243c-.254-6.428-5.541-11.508-11.974-11.508h-28.306l-6.257 5.125h-139.416l-13.491-5.125h-149.17l-6.288 7.529v74.86l33.996 76.92 38.888 39.147 45.415 27.429 35.284 8.95 14.914 1.132c105.523-15.353 186.574-106.191 186.574-215.972v-.001c0-2.841-.057-5.671-.169-8.486z" fill="#60b9fe"/><path d="m121.087 315.235c0-14.239 1.526-28.12 4.399-41.5h-31.341l-5.853 5.125 76.062 201.057 6.031 14.644c26.289 11.222 55.225 17.439 85.615 17.439 10.766 0 21.346-.793 31.695-2.299-94.354-14.512-166.608-96.05-166.608-194.466z" fill="#1ca8ff"/><path d="m119.198 356.123 33.996 76.92 9.228 9.289c-4.356-17.765 4.391-31.881 23.164-70.342 24.008-49.188-25.179-33.377-39.819-64.399-5.626-11.923-15.924-17.536-26.569-21.992z" fill="#bced6b"/><path d="m161.347 434.488c-25.252-33.089-40.26-74.415-40.26-119.253 0-9.487.686-18.813 1.984-27.942-10.118-4.642-21.049-7.627-28.925-13.559h-44.276c-6.435 0-11.723 5.083-11.974 11.513-.11 2.814-.166 5.641-.166 8.481v.001c0 90.157 54.665 167.541 132.656 200.831 5.851-9.688 6.081-22.472-1.196-35.906-5.106-9.426-7.632-16.745-7.843-24.166z" fill="#a2e82d"/><path d="m325.472 273.735v5.125l61.402 17.942v27.557l-11.59 27.815v37.344l7.469 13.65 5.565 1.927c19.833-25.037 41.919-67.468 43.303-92.832.696-12.752.113-26.235 2.201-38.528z" fill="#bced6b"/><path d="m380.341 365.908c-2.635-25.033 17.567-34.256 14.054-61.924s-18.445-14.054-57.532-25.706c-4.209-1.255-7.995-2.78-11.391-4.542h-50.815c5.635 8.907 14.937 15.884 28.725 19.995 39.087 11.653 54.018-1.962 57.532 25.707 3.513 27.668-16.689 36.891-14.054 61.924s4.831 56.214 26.351 39.526c4.571-3.545 9.758-9.037 15.107-15.791-5.071-8.13-6.451-24.69-7.977-39.189z" fill="#a2e82d"/></g></svg>