<svg width="55" height="54" viewBox="0 0 55 54" fill="none" xmlns="http://www.w3.org/2000/svg">
<path d="M40.5096 40.4999C47.9672 33.0441 47.9672 20.9558 40.5096 13.5C33.052 6.04411 20.9608 6.04406 13.5032 13.4999C6.04563 20.9558 6.04558 33.0442 13.5032 40.5C20.9608 47.9559 33.052 47.9558 40.5096 40.4999Z" fill="#1A6652"/>
<path fill-rule="evenodd" clip-rule="evenodd" d="M29.4657 19.9202C30.1699 19.8995 30.8533 19.9202 31.5575 19.9202C31.6404 19.9202 31.7233 19.9202 31.8475 19.9202V16.3172C31.4747 16.2757 31.0812 16.2343 30.7084 16.2136C30.0042 16.1722 29.2793 16.1515 28.5751 16.1722C27.4774 16.1929 26.4624 16.4621 25.5511 17.104C24.5155 17.8494 23.9563 18.8848 23.7284 20.1273C23.6456 20.6449 23.6249 21.1626 23.6042 21.6803C23.5834 22.4879 23.6042 23.2954 23.6042 24.103V24.4137H20.1453V28.4515H23.5834V38.598H27.788V28.4722H31.2055C31.3712 27.1263 31.5576 25.801 31.7233 24.4137C31.454 24.4137 31.2055 24.4137 30.9569 24.4137C29.9835 24.4137 27.7466 24.4137 27.7466 24.4137C27.7466 24.4137 27.7466 22.4051 27.788 21.5561C27.8088 20.3136 28.513 19.9409 29.4657 19.9202Z" fill="white"/>
</svg>
