<svg width="47" height="47" viewBox="0 0 47 47" fill="none" xmlns="http://www.w3.org/2000/svg">
<path d="M42.4374 28.2751C44.8505 18.0103 38.4835 7.73332 28.2163 5.3208C17.949 2.90827 7.6696 9.27376 5.25651 19.5386C2.84342 29.8034 9.21045 40.0805 19.4777 42.493C29.7449 44.9055 40.0243 38.5399 42.4374 28.2751Z" fill="#1A6652"/>
<path d="M34.0329 19.0116C33.8879 17.6863 33.3909 16.506 32.3967 15.5534C31.3611 14.5595 30.0769 14.1246 28.6892 14.0418C26.3073 13.9176 20.6737 13.8348 18.6854 14.1454C16.4278 14.5181 14.9364 15.8434 14.315 18.0797C13.8387 19.7984 13.9215 27.7293 14.2115 29.4273C14.605 31.7466 15.9721 33.2375 18.2711 33.838C19.8659 34.2521 27.7157 34.19 29.4763 33.9208C31.796 33.5481 33.308 32.1814 33.9087 29.8829C34.3643 28.1021 34.1986 20.6061 34.0329 19.0116ZM32.1689 29.1167C31.8997 30.8768 30.719 31.9743 28.9585 32.1814C27.3222 32.3678 20.0316 32.4506 18.5196 32.0364C17.0698 31.6223 16.2413 30.6284 16.0134 29.1789C15.7856 27.7915 15.7235 20.8338 16.0134 18.9701C16.2827 17.21 17.4427 16.1332 19.2239 15.9262C21.0258 15.7191 27.4673 15.6984 29.1864 15.9676C30.9469 16.2368 32.0446 17.4171 32.231 19.1979C32.3967 20.8338 32.4382 27.3152 32.1689 29.1167ZM24.0912 18.8459C21.2329 18.8459 18.9131 21.1651 18.8924 24.0227C18.8924 26.8803 21.2122 29.1996 24.0704 29.2203C26.9287 29.2203 29.2485 26.901 29.2692 24.0434C29.2692 21.1858 26.9494 18.8459 24.0912 18.8459ZM24.0497 27.398C22.2063 27.3773 20.7151 25.8657 20.7358 24.0227C20.7565 22.1798 22.2685 20.6888 24.1119 20.7095C25.9553 20.7302 27.4465 22.2419 27.4258 24.0848C27.4051 25.9278 25.8931 27.398 24.0497 27.398ZM30.6776 18.6595C30.6776 19.3222 30.1391 19.8813 29.4557 19.8606C28.7929 19.8606 28.2336 19.3222 28.2543 18.6388C28.275 17.9555 28.7928 17.4171 29.4763 17.4378C30.139 17.4378 30.6983 17.9969 30.6776 18.6595Z" fill="white"/>
<path d="M34.0329 19.0116C33.8879 17.6863 33.3909 16.506 32.3967 15.5534C31.3611 14.5595 30.0769 14.1246 28.6892 14.0418C26.3073 13.9176 20.6737 13.8348 18.6854 14.1454C16.4278 14.5181 14.9364 15.8434 14.315 18.0797C13.8387 19.7984 13.9215 27.7293 14.2115 29.4273C14.605 31.7466 15.9721 33.2375 18.2711 33.838C19.8659 34.2521 27.7157 34.19 29.4763 33.9208C31.796 33.5481 33.308 32.1814 33.9087 29.8829C34.3643 28.1021 34.1986 20.6061 34.0329 19.0116ZM32.1689 29.1167C31.8997 30.8768 30.719 31.9743 28.9585 32.1814C27.3222 32.3678 20.0316 32.4506 18.5196 32.0364C17.0698 31.6223 16.2413 30.6284 16.0134 29.1789C15.7856 27.7915 15.7235 20.8338 16.0134 18.9701C16.2827 17.21 17.4427 16.1332 19.2239 15.9262C21.0258 15.7191 27.4673 15.6984 29.1864 15.9676C30.9469 16.2368 32.0446 17.4171 32.231 19.1979C32.3967 20.8338 32.4382 27.3152 32.1689 29.1167ZM24.0912 18.8459C21.2329 18.8459 18.9131 21.1651 18.8924 24.0227C18.8924 26.8803 21.2122 29.1996 24.0704 29.2203C26.9287 29.2203 29.2485 26.901 29.2692 24.0434C29.2692 21.1858 26.9494 18.8459 24.0912 18.8459ZM24.0497 27.398C22.2063 27.3773 20.7151 25.8657 20.7358 24.0227C20.7565 22.1798 22.2685 20.6888 24.1119 20.7095C25.9553 20.7302 27.4465 22.2419 27.4258 24.0848C27.4051 25.9278 25.8931 27.398 24.0497 27.398ZM30.6776 18.6595C30.6776 19.3222 30.1391 19.8813 29.4557 19.8606C28.7929 19.8606 28.2336 19.3222 28.2543 18.6388C28.275 17.9555 28.7928 17.4171 29.4763 17.4378C30.139 17.4378 30.6983 17.9969 30.6776 18.6595Z" fill="white"/>
</svg>
