<svg width="421" height="332" viewBox="0 0 421 332" fill="none" xmlns="http://www.w3.org/2000/svg">
<path d="M420 284.657C398.04 312.601 349.78 322.489 324.455 302.41C256.184 248.28 356.368 184.741 324.455 170.61C297.855 156.478 239.341 175.314 234.028 137.659C228.698 95.2999 212.741 38.8088 154.228 52.9404C116.984 62.3497 84.8049 73.2325 47.8444 67.0721C-20.6221 55.6389 3.87072 1.93511 5.90736 0H420V284.657Z" fill="#1A6652"/>
<path d="M0 30.6985C0 35.0969 0.567681 39.7258 2.0046 44.3016C7.45071 61.5581 23.2213 72.554 48.873 77.0233C81.1416 82.6277 110.235 74.6822 141.013 66.2579C145.768 64.9633 150.575 63.6508 155.471 62.3562C172.466 58.0819 186.977 59.9619 198.561 67.9251C216.478 80.2334 228.098 107.493 233.1 148.922C236.613 174.798 261.999 176.164 286.55 177.476C300.281 178.204 314.473 178.966 323.928 184.198C326.784 185.51 328.469 187.195 329.179 189.395C331.255 195.779 325.294 206.438 318.411 218.8C302.676 246.964 281.14 285.538 323.697 320.672C334.59 329.664 350.112 333.494 367.391 331.473C388.962 328.936 408.99 317.923 421 302.032L418.623 300.241C407.269 315.28 387.507 326.116 367.036 328.528C350.573 330.462 335.849 326.861 325.578 318.402C284.936 284.864 305.763 247.531 320.983 220.29C328.523 206.793 334.483 196.134 331.982 188.508C331.006 185.51 328.736 183.187 325.241 181.573C315.271 176.058 300.724 175.277 286.675 174.532C262.265 173.22 239.203 171.996 236.027 148.568C230.847 105.684 219.139 78.4953 200.229 65.4953C187.9 57.0178 172.59 54.996 154.708 59.5008C149.777 60.7954 144.969 62.1079 140.215 63.4203C109.756 71.7559 80.982 79.6127 49.3698 74.1324C25.9888 70.071 11.2293 60.4407 5.5348 45.4898C-1.27727 27.6481 7.43296 8.33425 8.42639 7.0573L6.27994 5C5.1446 6.11733 0 17.3438 0 30.6985Z" fill="#1A6652"/>
</svg>
