<svg width="48" height="48" viewBox="0 0 48 48" fill="none" xmlns="http://www.w3.org/2000/svg">
<path d="M42.1165 28.9775C44.8713 18.7992 38.8514 8.31524 28.6707 5.56109C18.4899 2.80693 8.00355 8.8255 5.24874 19.0039C2.49394 29.1822 8.51388 39.666 18.6946 42.4202C28.8754 45.1743 39.3617 39.1559 42.1165 28.9775Z" fill="#1A6652"/>
<path fill-rule="evenodd" clip-rule="evenodd" d="M20.1805 29.6554C17.84 29.5726 16.3903 27.8953 15.9967 26.5493C16.6388 26.6736 17.2809 26.6529 17.9229 26.4872C17.9437 26.4872 17.9643 26.4665 17.985 26.4665C16.7216 26.1766 15.7482 25.4933 15.0647 24.4165C14.609 23.6917 14.4019 22.9049 14.4019 22.0352C15.0232 22.3665 15.6861 22.5529 16.3903 22.5736C15.4375 21.8903 14.7954 20.9999 14.5469 19.861C14.2983 18.7221 14.464 17.6246 15.0232 16.6099C17.4465 19.4675 20.5327 21.0412 24.2816 21.2897C24.2609 21.1033 24.2194 20.9584 24.2194 20.7927C24.0951 19.7367 24.3023 18.7428 24.8822 17.8524C25.5864 16.7342 26.6219 16.0301 27.9268 15.823C29.4388 15.5745 30.7644 16.0094 31.8622 17.0655C31.945 17.1276 32.0071 17.169 32.1107 17.1276C33.0428 16.9205 33.9127 16.5892 34.7205 16.1336C34.7412 16.1129 34.7619 16.1129 34.7826 16.1129H34.8033C34.4512 17.1483 33.8091 17.9559 32.877 18.5564C33.747 18.4529 34.5755 18.2251 35.3833 17.8937L35.404 17.9145C35.2383 18.1423 35.0726 18.37 34.8862 18.5771C34.4098 19.1569 33.8712 19.6745 33.2498 20.1301C33.2084 20.1715 33.167 20.2129 33.167 20.2751C33.1878 20.9377 33.1671 21.6003 33.0842 22.2629C32.9185 23.6503 32.525 24.9963 31.9244 26.2595C31.303 27.564 30.5159 28.765 29.501 29.8004C27.7818 31.5605 25.7314 32.6994 23.3288 33.2378C22.5003 33.4241 21.6718 33.5069 20.8226 33.5276C18.2336 33.6105 15.831 32.9686 13.6355 31.6019C13.6148 31.5812 13.5734 31.5605 13.532 31.5398C15.1061 31.7054 16.5973 31.4984 18.0265 30.9186C18.8135 30.5873 19.5177 30.1731 20.1805 29.6554Z" fill="white"/>
</svg>
