<svg width="500" height="500" viewBox="0 0 500 500" fill="none" xmlns="http://www.w3.org/2000/svg">
<g clip-path="url(#clip0)">
<path d="M222.375 375.778C222.205 375.695 222.054 375.506 221.885 375.276C221.79 375.171 221.715 375.045 221.62 374.94C221.337 374.626 221.092 374.521 220.846 374.501C220.695 374.501 220.563 374.584 220.45 374.731C220.355 374.857 220.318 375.003 220.28 375.15C220.129 375.087 219.959 375.066 219.808 375.108C219.355 375.255 219.015 375.422 218.713 375.611C218.26 375.925 217.844 376.26 217.448 376.637C215.673 378.334 213.446 379.319 210.633 379.654C208.651 379.884 206.517 379.78 203.893 379.319C203.572 379.256 203.251 379.193 202.93 379.13L202.515 379.046C201.25 378.795 200.004 378.25 198.739 377.35C196.53 375.799 194.567 373.767 192.755 371.128C192.226 370.353 191.735 369.41 191.301 368.3C191.188 368.006 191.074 367.713 190.923 367.462C190.754 367.168 190.451 367.022 190.168 367.043C190.263 366.896 190.357 366.728 190.414 366.519L190.451 366.351L190.357 366.205C190.074 365.723 189.677 365.43 189.281 365.136C189.092 364.99 188.885 364.843 188.715 364.675L188.601 364.571L187.733 364.675C187.016 364.759 186.336 364.843 185.637 364.948C185.316 364.99 184.958 365.052 184.599 365.157C184.354 365.241 184.108 365.471 184.033 365.702L183.882 366.079C183.447 367.252 182.994 368.446 182.711 369.724C182.39 371.128 182.353 372.51 182.353 373.683C182.353 376.554 182.843 379.465 183.844 382.315C184.75 384.933 186.034 387.321 187.639 389.395C189.942 392.391 192.906 394.235 196.436 394.842C197.701 395.073 199.004 395.177 200.306 395.177C203.006 395.177 205.819 394.716 208.802 393.774C209.934 393.418 211.048 393.02 211.973 392.663C214.541 391.7 216.863 390.087 218.864 387.866C220.752 385.771 221.922 383.571 222.432 381.141C222.659 380.115 222.791 379.046 222.923 378.02L223.036 377.14C223.112 376.952 223.225 376.155 222.375 375.778ZM185.052 367.86L185.033 368.027C185.014 368.195 184.996 368.341 184.958 368.488C184.599 370.646 184.505 372.741 184.712 374.71C185.071 378.188 186.072 381.686 187.733 385.415C188.639 387.426 189.998 389.123 191.754 390.422C193.415 391.637 195.058 392.58 196.776 393.25C196.228 393.145 195.738 393.02 195.266 392.894C192.509 392.098 190.225 390.422 188.431 387.908C185.449 383.697 183.882 378.963 183.787 373.83C183.75 371.777 184.108 369.766 184.882 367.692L185.052 367.86ZM187.903 365.995C187.318 366.037 186.732 366.079 186.147 366.184C186.072 366.205 186.015 366.205 185.977 366.205C186.468 366.1 186.959 366.037 187.431 365.974C187.657 365.953 187.884 365.911 188.092 365.89L188.186 365.974C188.073 365.974 187.997 365.995 187.903 365.995ZM189.602 368.823C189.696 369.075 189.791 369.326 189.885 369.577C190.131 370.248 190.395 370.96 190.754 371.61C192.585 374.857 194.718 377.329 197.267 379.172C199.136 380.513 200.816 381.288 202.553 381.602L203.44 381.77C204.95 382.042 206.517 382.336 208.084 382.356C208.424 382.377 208.764 382.398 209.123 382.398C210.444 382.398 211.766 382.231 213.087 381.875C215.692 381.204 217.693 379.947 219.204 378.041C219.355 377.873 219.506 377.706 219.657 377.538C219.789 377.391 219.921 377.245 220.053 377.098C220.261 376.847 220.45 376.616 220.582 376.344C220.657 376.491 220.752 376.637 220.846 376.784C220.544 376.931 220.431 377.203 220.374 377.371C220.355 377.412 220.355 377.454 220.336 377.496C219.449 379.298 218.581 381.099 217.693 382.901C217.108 384.137 216.41 384.975 215.541 385.541C215.39 385.645 215.258 385.75 215.126 385.876L215.032 385.96C214.314 386.588 213.521 386.902 212.728 386.861C211.86 386.819 211.067 387.07 210.255 387.636C209.406 388.243 208.405 388.704 207.197 389.06C205.63 389.542 204.214 389.479 202.855 388.872C201.628 388.327 200.589 388.034 199.551 387.929C197.965 387.782 196.512 387.091 195.19 385.855C193.963 384.703 192.868 383.844 191.773 383.173C191.509 383.006 191.244 382.775 190.98 382.566C190.414 382.084 190.055 381.498 189.904 380.764C189.753 379.989 189.583 379.235 189.394 378.481C189.13 377.412 188.885 376.449 188.62 375.464C188.375 374.626 188.243 374.019 188.507 373.327C188.658 372.971 188.658 372.447 188.507 372.07C188.337 371.61 188.111 371.17 187.884 370.751L187.676 370.353C187.582 370.185 187.431 370.143 187.28 370.122L186.94 370.059L186.846 370.394C186.808 370.499 186.751 370.625 186.77 370.792C186.827 371.086 186.883 371.316 186.959 371.526C187.28 372.301 187.355 373.013 187.204 373.788C187.129 374.249 187.167 374.836 187.355 375.506C187.771 376.972 188.129 378.565 188.488 380.555C188.828 382.356 189.734 383.718 191.226 384.598C192.509 385.373 193.718 386.274 194.907 387.384C196.153 388.516 197.607 389.186 199.23 389.333C200.401 389.437 201.533 389.752 202.742 390.296C203.61 390.694 204.422 390.883 205.196 390.925C205.29 390.925 205.403 390.925 205.498 390.925C207.103 390.925 208.707 390.464 210.387 389.542C210.614 389.416 210.822 389.291 211.029 389.123C211.558 388.746 212.124 388.557 212.709 388.557C212.747 388.557 212.766 388.557 212.804 388.557C214.069 388.557 215.013 387.803 215.598 387.238L215.806 387.049C216.145 386.735 216.504 386.4 216.844 386.002C217.221 385.562 217.599 385.122 217.882 384.598C218.883 382.713 219.827 380.785 220.79 378.879L221.016 378.439C220.506 381.56 219.695 384.032 216.636 387.028C214.786 388.83 212.615 390.108 210.161 390.841C208.141 391.448 206.083 391.805 204.082 391.909C200.608 392.098 197.21 391.071 193.718 388.83C191.565 387.447 190.036 385.583 189.054 383.153C187.884 380.262 187.167 377.852 186.77 375.527C186.449 373.6 186.43 371.547 186.732 369.431L186.902 368.132L187.45 368.027C188.054 367.902 188.601 367.797 189.168 367.65C189.243 367.629 189.357 367.587 189.489 367.545C189.432 367.692 189.394 367.839 189.394 368.006C189.47 368.341 189.526 368.593 189.602 368.823Z" fill="#1A6652"/>
<path d="M238.364 407.621L238.666 408.438C239.025 409.402 239.384 410.386 239.818 411.329C240.838 413.55 242.461 415.372 244.745 416.902C247.162 418.515 249.767 419.478 252.467 419.73C253.449 419.814 254.619 419.918 255.79 419.96C258.905 420.086 261.736 419.793 264.36 419.08C265.644 418.724 266.871 418.284 268.042 417.719C271.327 416.168 273.8 413.613 275.405 410.093C276.518 407.642 277.236 404.981 277.557 402.216C277.897 399.179 277.764 396.225 277.141 393.439C276.877 392.307 276.537 390.967 275.933 389.689C275.386 388.536 274.687 387.489 274.008 386.462L273.781 386.127C273.649 385.918 273.366 385.75 273.101 385.75C272.724 385.729 272.365 385.771 272.044 385.813C271.346 385.897 270.666 386.002 269.949 386.106L269.08 386.232L269.005 386.358C268.872 386.567 268.721 386.756 268.552 386.944C268.25 387.321 267.91 387.719 267.74 388.264L267.683 388.432L267.759 388.578C267.853 388.767 267.985 388.914 268.117 389.018C267.834 389.081 267.57 389.312 267.475 389.626C267.381 389.919 267.324 390.233 267.287 390.548C267.098 391.763 266.852 392.789 266.494 393.69C265.304 396.728 263.851 399.22 262.02 401.315C260.981 402.51 259.886 403.368 258.716 403.955L258.319 404.144C258.017 404.29 257.715 404.437 257.432 404.583C254.997 405.736 252.939 406.406 250.975 406.699C248.162 407.118 245.803 406.741 243.707 405.568C243.254 405.317 242.763 405.086 242.272 404.919C241.951 404.793 241.574 404.73 241.102 404.709C240.951 404.709 240.8 404.772 240.649 404.877C240.592 404.751 240.517 404.625 240.384 404.521C240.252 404.416 240.12 404.374 239.969 404.416C239.724 404.5 239.516 404.667 239.308 405.044C239.233 405.17 239.176 405.296 239.12 405.442C239.006 405.694 238.893 405.945 238.742 406.05C238.006 406.637 238.27 407.37 238.364 407.621ZM273.403 388.201C274.593 390.003 275.386 391.867 275.801 393.878C276.82 398.885 276.33 403.913 274.328 408.773C273.139 411.685 271.27 413.927 268.759 415.435C268.325 415.687 267.872 415.938 267.362 416.189C268.872 415.079 270.27 413.738 271.629 412.104C273.064 410.386 274.007 408.396 274.461 406.176C275.291 402.111 275.48 398.445 275.084 394.968C274.857 392.999 274.328 390.987 273.517 388.997C273.46 388.851 273.403 388.725 273.347 388.557L273.29 388.411L273.403 388.201ZM269.835 387.426L269.911 387.3C270.137 387.279 270.345 387.238 270.572 387.217C271.044 387.154 271.534 387.091 272.025 387.049C271.969 387.07 271.912 387.07 271.855 387.091C271.27 387.154 270.666 387.259 270.1 387.363C270.024 387.384 269.93 387.405 269.835 387.426ZM269.042 389.772C269.024 389.605 268.948 389.458 268.854 389.332C269.005 389.353 269.118 389.353 269.193 389.353C269.76 389.333 270.326 389.291 270.93 389.249L271.497 389.207L271.95 390.401C272.686 392.391 273.12 394.381 273.233 396.35C273.366 398.718 273.177 401.253 272.667 404.374C272.233 406.993 271.157 409.192 269.363 411.12C266.456 414.241 263.379 416.126 259.962 416.86C257.979 417.3 255.922 417.488 253.826 417.425C251.278 417.362 248.899 416.692 246.709 415.435C243.084 413.34 241.763 411.162 240.592 408.271L240.894 408.627C242.235 410.24 243.575 411.832 244.953 413.403C245.331 413.843 245.803 414.178 246.275 414.492C246.709 414.786 247.124 415.016 247.521 415.247L247.766 415.372C248.465 415.77 249.541 416.231 250.768 415.896C250.806 415.896 250.824 415.875 250.862 415.875C251.429 415.728 252.014 415.749 252.618 415.98C252.844 416.064 253.09 416.147 253.335 416.21C255.167 416.671 256.828 416.671 258.376 416.252C258.47 416.231 258.565 416.189 258.659 416.168C259.414 415.938 260.151 415.519 260.906 414.911C261.944 414.073 263.001 413.466 264.096 413.047C265.644 412.46 266.909 411.434 267.872 410.009C268.797 408.627 269.76 407.412 270.855 406.322C272.101 405.065 272.705 403.494 272.629 401.672C272.554 399.64 272.554 397.984 272.648 396.455C272.686 395.743 272.61 395.177 272.422 394.758C272.12 394.046 272.044 393.313 272.176 392.496C272.214 392.265 272.214 392.035 272.214 391.742C272.195 391.574 272.12 391.448 272.063 391.365L271.893 391.05L271.591 391.197C271.459 391.281 271.308 391.344 271.27 391.532L271.157 391.972C271.025 392.433 270.911 392.915 270.836 393.418C270.779 393.816 270.893 394.318 271.119 394.633C271.534 395.219 271.534 395.848 271.478 396.728C271.421 397.754 271.383 398.76 271.364 399.87C271.346 400.645 271.346 401.441 271.364 402.237C271.364 402.97 271.157 403.641 270.704 404.269C270.496 404.542 270.307 404.835 270.081 405.065C269.156 406.008 268.287 407.118 267.343 408.585C266.324 410.135 265.059 411.203 263.549 411.769C262.567 412.125 261.604 412.691 260.547 413.55C259.358 414.492 257.998 414.932 256.375 414.89C255.129 414.849 254.053 414.66 253.109 414.304C252.203 413.969 251.372 413.927 250.541 414.199C249.805 414.451 248.955 414.367 248.125 413.948L248.011 413.885C247.86 413.801 247.691 413.717 247.521 413.675C246.558 413.361 245.708 412.733 244.878 411.685C243.632 410.156 242.404 408.648 241.158 407.139C241.14 407.118 241.121 407.076 241.083 407.035C240.989 406.888 240.819 406.637 240.479 406.574C240.535 406.406 240.573 406.239 240.63 406.071C240.819 406.301 241.045 406.469 241.31 406.657C241.461 406.762 241.63 406.867 241.781 406.972C241.97 407.097 242.159 407.202 242.329 407.349C244.217 408.794 246.426 409.465 249.106 409.444C250.447 409.423 251.768 409.234 253.052 408.899C253.392 408.815 253.713 408.71 254.053 408.585C255.582 408.145 257.036 407.454 258.433 406.783L259.244 406.385C260.868 405.61 262.34 404.416 263.87 402.635C265.946 400.184 267.494 397.209 268.57 393.564C268.778 392.852 268.891 392.098 268.986 391.365C269.024 391.092 269.061 390.82 269.099 390.548C269.099 390.338 269.099 390.066 269.042 389.772Z" fill="#1A6652"/>
<path d="M-0.734432 315.612L-0.432373 316.429C-0.0736777 317.393 0.285018 318.378 0.719228 319.32C1.73868 321.541 3.36225 323.364 5.64657 324.893C8.06304 326.506 10.6683 327.47 13.368 327.721C14.3496 327.805 15.5201 327.91 16.6906 327.951C19.8056 328.077 22.6374 327.784 25.2427 327.072C26.5264 326.715 27.7535 326.275 28.924 325.71C32.2089 324.16 34.682 321.604 36.2867 318.084C37.4005 315.633 38.1179 312.973 38.4389 310.207C38.7787 307.17 38.6465 304.216 38.0235 301.43C37.7592 300.299 37.4194 298.958 36.8153 297.68C36.2678 296.528 35.5693 295.48 34.8897 294.454L34.6631 294.119C34.531 293.909 34.2478 293.741 33.9835 293.741C33.6059 293.72 33.2472 293.762 32.9263 293.804C32.2278 293.888 31.5481 293.993 30.8307 294.098L29.9623 294.223L29.8868 294.349C29.7547 294.558 29.6036 294.747 29.4337 294.936C29.1317 295.313 28.7918 295.711 28.6219 296.255L28.5653 296.423L28.6408 296.57C28.7352 296.758 28.8674 296.905 28.9995 297.009C28.7163 297.072 28.452 297.303 28.3576 297.617C28.2632 297.91 28.2066 298.225 28.1689 298.539C27.9801 299.754 27.7346 300.78 27.3759 301.681C26.1866 304.719 24.7329 307.212 22.9017 309.307C21.8634 310.501 20.7684 311.36 19.5979 311.946L19.2015 312.135C18.8994 312.281 18.5974 312.428 18.3142 312.575C15.8788 313.727 13.821 314.397 11.8577 314.691C9.04473 315.11 6.6849 314.733 4.58936 313.559C4.13627 313.308 3.64543 313.078 3.15458 312.91C2.83364 312.784 2.45607 312.721 1.9841 312.7C1.83307 312.7 1.68204 312.763 1.53101 312.868C1.47438 312.742 1.39886 312.617 1.28559 312.512C1.15344 312.407 1.02129 312.365 0.870257 312.407C0.624834 312.491 0.417168 312.659 0.209503 313.036C0.133988 313.161 0.0773519 313.287 0.0207158 313.434C-0.0925564 313.685 -0.205829 313.936 -0.356858 314.041C-1.11201 314.628 -0.828826 315.382 -0.734432 315.612ZM34.2855 296.192C35.4749 297.994 36.2678 299.859 36.6831 301.87C37.7026 306.877 37.2117 311.904 35.2106 316.765C34.0212 319.677 32.1523 321.918 29.6414 323.426C29.2072 323.678 28.7541 323.929 28.2444 324.181C29.7547 323.07 31.1517 321.73 32.511 320.095C33.9457 318.378 34.8897 316.387 35.3428 314.167C36.1734 310.103 36.3622 306.437 35.9658 302.959C35.7392 300.99 35.2106 298.979 34.3988 296.989C34.3422 296.842 34.2855 296.716 34.2289 296.549L34.1723 296.402L34.2855 296.192ZM30.7364 295.417L30.8119 295.292C31.0384 295.271 31.2461 295.229 31.4726 295.208C31.9446 295.145 32.4354 295.082 32.9263 295.04C32.8696 295.061 32.813 295.061 32.7564 295.082C32.1711 295.145 31.567 295.25 31.0007 295.355C30.9063 295.375 30.8119 295.396 30.7364 295.417ZM29.9434 297.764C29.9246 297.596 29.8491 297.449 29.7547 297.324C29.9057 297.345 30.019 297.345 30.0945 297.345C30.6608 297.324 31.2272 297.282 31.8313 297.24L32.3977 297.198L32.8508 298.392C33.587 300.382 34.0212 302.372 34.1345 304.342C34.2667 306.709 34.0779 309.244 33.5682 312.365C33.1339 314.984 32.0579 317.184 30.2644 319.111C27.3571 322.232 24.2798 324.118 20.8628 324.851C18.8805 325.291 16.8228 325.479 14.7272 325.417C12.1786 325.354 9.79988 324.683 7.60995 323.426C3.98524 321.331 2.66373 319.153 1.49325 316.262L1.79531 316.618C3.1357 318.231 4.47609 319.823 5.85423 321.394C6.23181 321.834 6.70377 322.169 7.17574 322.484C7.60995 322.777 8.02528 323.007 8.42174 323.238L8.66716 323.364C9.36567 323.762 10.4418 324.222 11.6689 323.887C11.7066 323.887 11.7255 323.866 11.7633 323.866C12.3296 323.72 12.9149 323.741 13.519 323.971C13.7455 324.055 13.991 324.139 14.2364 324.202C16.0676 324.662 17.7289 324.662 19.277 324.243C19.3714 324.222 19.4658 324.181 19.5602 324.16C20.3153 323.929 21.0516 323.51 21.8067 322.903C22.8451 322.065 23.9023 321.457 24.9972 321.038C26.5453 320.452 27.8102 319.425 28.773 318.001C29.698 316.618 30.6608 315.403 31.7558 314.314C33.0018 313.057 33.6059 311.485 33.5304 309.663C33.4549 307.631 33.4549 305.976 33.5493 304.446C33.587 303.734 33.5115 303.169 33.3227 302.75C33.0207 302.037 32.9452 301.304 33.0773 300.487C33.1151 300.257 33.1151 300.026 33.1151 299.733C33.0962 299.565 33.0207 299.44 32.964 299.356L32.7941 299.042L32.4921 299.188C32.3599 299.272 32.2089 299.335 32.1711 299.523L32.0579 299.963C31.9257 300.424 31.8124 300.906 31.7369 301.409C31.6803 301.807 31.7936 302.31 32.0201 302.624C32.4354 303.21 32.4354 303.839 32.3788 304.719C32.3222 305.745 32.2844 306.751 32.2655 307.861C32.2466 308.636 32.2466 309.432 32.2655 310.228C32.2655 310.962 32.0579 311.632 31.6048 312.261C31.3971 312.533 31.2083 312.826 30.9818 313.057C30.0567 313.999 29.1883 315.11 28.2444 316.576C27.2249 318.126 25.96 319.195 24.4497 319.76C23.4681 320.116 22.5052 320.682 21.448 321.541C20.2587 322.484 18.8994 322.924 17.2758 322.882C16.0298 322.84 14.9538 322.651 14.0098 322.295C13.1037 321.96 12.273 321.918 11.4423 322.19C10.7061 322.442 9.85652 322.358 9.02585 321.939L8.91258 321.876C8.76155 321.792 8.59164 321.709 8.42174 321.667C7.45892 321.352 6.60938 320.724 5.77872 319.676C4.53272 318.147 3.30561 316.639 2.05961 315.131C2.04074 315.11 2.02186 315.068 1.9841 315.026C1.88971 314.879 1.7198 314.628 1.37998 314.565C1.43662 314.397 1.47438 314.23 1.53101 314.062C1.7198 314.293 1.94634 314.46 2.21064 314.649C2.36167 314.753 2.53158 314.858 2.68261 314.963C2.8714 315.089 3.06019 315.193 3.23009 315.34C5.11796 316.785 7.32677 317.456 10.0075 317.435C11.3479 317.414 12.6694 317.225 13.9532 316.89C14.293 316.806 14.6139 316.702 14.9538 316.576C16.4829 316.136 17.9366 315.445 19.3336 314.774L20.1454 314.376C21.769 313.601 23.2415 312.407 24.7518 310.626C26.8285 308.175 28.3765 305.201 29.4526 301.555C29.6603 300.843 29.7735 300.089 29.8679 299.356C29.9057 299.083 29.9434 298.811 29.9812 298.539C29.9812 298.329 29.9812 298.057 29.9434 297.764Z" fill="#1A6652"/>
<path d="M411.11 300.984C411.031 300.369 410.972 299.732 410.892 299.117C410.734 297.799 411.209 296.833 412.179 296.108C412.713 295.713 413.287 295.406 413.782 294.967C414.435 294.396 415.108 293.781 415.642 293.078C416.176 292.397 416.018 291.782 415.286 291.343C414.415 290.838 413.505 290.377 412.614 289.916C412.159 289.674 411.684 289.498 411.268 289.213C410.081 288.4 409.745 287.522 410.061 286.029C410.2 285.414 410.378 284.821 410.536 284.228C410.813 283.218 410.556 282.361 409.824 281.703C409.111 281.044 408.379 280.451 407.687 279.77C406.519 278.628 405.312 277.53 404.243 276.278C402.027 273.687 401.591 270.657 402.719 267.341C403.372 265.408 404.382 264.596 406.242 264.618C407.449 264.639 408.656 264.727 409.824 264.925C412.08 265.32 414.316 265.232 416.572 264.815C417.621 264.618 418.67 264.508 419.738 264.486C421.46 264.442 422.905 265.145 423.973 266.726C424.349 267.297 424.745 267.846 425.101 268.439C427.14 271.755 430.009 273.533 433.571 274.082C434.897 274.302 436.243 274.522 437.549 274.873C440.241 275.598 441.309 277.245 441.111 279.836C441.092 279.99 441.111 280.143 441.092 280.297C440.993 281.768 441.369 283.086 442.14 284.272C442.437 284.711 442.714 285.172 442.952 285.655C443.941 287.698 443.526 289.301 441.725 290.399C441.23 290.706 440.696 290.926 440.181 291.167C439.39 291.519 438.578 291.782 437.787 292.156C437.213 292.441 436.56 292.727 436.184 293.232C435.234 294.505 433.987 295.186 432.701 295.845C431.494 296.482 430.247 297.075 429.04 297.733C425.557 299.666 422.746 302.499 420.471 305.991C420.332 306.21 420.035 306.43 420.451 306.825C421.163 306.452 421.935 306.1 422.687 305.683C426.309 303.685 429.891 301.664 433.512 299.71C437.787 297.382 441.844 294.703 445.307 291.014C447.108 289.103 449.186 287.61 451.481 286.49C451.917 286.27 452.312 285.963 452.748 285.677C452.886 284.513 452.471 283.613 452.035 282.713C451.64 281.878 451.204 281.066 450.907 280.187C450.61 279.353 450.591 278.365 451.303 277.816C452.431 276.959 452.669 275.729 452.827 274.368C452.946 273.358 453.144 272.347 453.401 271.381C453.935 269.427 455.182 268.417 457.022 268.351C457.517 268.329 458.012 268.373 458.507 268.439C459.338 268.57 460.189 268.702 461.02 268.922C462.524 269.339 463.83 268.944 464.978 267.868C465.73 267.165 466.462 266.418 467.155 265.65C468.698 263.915 470.163 262.114 471.746 260.423C473.745 258.315 475.783 256.251 477.881 254.274C479.385 252.847 481.067 251.683 482.888 250.761C484.055 250.168 485.262 249.728 486.549 249.685C488.923 249.619 490.408 251.244 490.408 253.879C490.408 255.482 489.952 256.975 489.379 258.403C487.934 261.938 486.014 265.123 483.62 267.933C481.72 270.151 479.682 272.216 477.742 274.39C477.485 274.675 476.951 274.873 477.228 275.62C478.89 275.027 480.592 274.456 482.234 273.797C485.163 272.611 488.053 271.337 490.962 270.129C492.228 269.602 493.495 269.119 494.781 268.724C495.593 268.483 496.463 268.351 497.294 268.395C499.293 268.548 500.401 270.437 499.867 272.589C499.649 273.446 499.214 274.17 498.601 274.719C498.066 275.224 497.492 275.707 496.879 276.081C494.821 277.289 492.723 278.43 490.625 279.572C489.557 280.165 488.429 280.67 487.36 281.263C486.608 281.703 485.876 282.208 485.638 283.371C485.856 283.657 486.093 284.074 486.39 284.36C487.241 285.194 488.152 285.941 489.003 286.775C489.913 287.654 490.724 288.642 491.239 289.872C492.129 291.958 491.813 293.671 490.21 295.098C489.557 295.691 488.824 296.174 488.072 296.635C484.253 298.963 480.196 300.522 475.882 301.225C471.469 301.95 467.135 303.136 462.88 304.563C453.064 307.857 443.268 311.217 433.591 314.994C429.99 316.4 426.289 317.476 422.628 318.684C420.728 319.298 418.808 319.825 416.909 320.44C416.533 320.55 416.196 320.814 415.741 321.077C416.216 322.548 416.691 323.844 417.087 325.184C417.482 326.501 417.819 327.863 418.195 329.312C418.67 329.246 419.066 329.137 419.481 329.115C421.163 329.049 422.885 328.807 424.547 328.983C429.198 329.444 433.809 330.344 438.321 331.618C441.745 332.584 445.129 333.726 448.513 334.912C456.607 337.767 464.8 340.248 473.072 342.335C474.972 342.818 476.911 343.213 479.127 343.235C478.831 342.752 478.712 342.379 478.474 342.159C477.564 341.281 476.634 340.446 475.704 339.59C475.328 339.238 474.892 338.953 474.556 338.557C473.804 337.723 473.962 336.559 474.912 336.01C475.348 335.747 475.842 335.659 476.298 335.461C476.575 335.351 476.832 335.176 477.267 334.956C476.337 334.517 475.585 334.253 474.932 333.836C473.705 333.045 473.547 331.596 474.536 330.476C475.031 329.927 475.625 329.444 476.238 329.093C477.505 328.39 478.811 327.797 480.097 327.116C480.374 326.962 480.592 326.699 480.909 326.457C480.137 325.996 479.503 325.689 478.91 325.25C477.722 324.349 477.366 322.944 478.079 321.538C478.455 320.814 478.989 320.133 479.563 319.584C480.691 318.53 481.938 317.607 483.105 316.597C485.005 314.95 486.925 313.347 488.745 311.612C490.487 309.987 491.912 308.033 493.119 305.881C493.238 305.661 493.297 305.376 493.475 304.827C491.674 305.485 490.17 306.144 488.686 306.869C482.037 310.141 476.238 314.577 472.26 321.56C471.667 322.614 470.935 323.603 470.123 324.481C468.124 326.633 465.552 327.006 463.078 325.535C462.464 325.162 461.891 324.701 461.317 324.239C460.505 323.581 459.674 323.054 458.704 322.746C457.972 322.505 457.319 322.021 456.646 321.582C456.171 321.253 455.756 320.814 455.281 320.462C454.331 319.738 453.638 319.825 452.886 320.792C452.431 321.385 452.035 322.043 451.62 322.68C450.749 323.976 449.542 324.591 448.117 324.525C447.068 324.481 445.999 324.305 444.97 324.02C440.597 322.812 436.184 322.439 431.711 322.812C429.811 322.966 427.912 323.163 426.012 323.295C425.101 323.361 424.171 323.383 423.261 323.383C422.925 323.383 422.568 323.273 422.232 323.141C421.836 322.988 421.698 322.263 421.994 321.956C422.252 321.692 422.529 321.407 422.845 321.319C423.597 321.099 424.349 320.901 425.121 320.814C427.575 320.528 430.049 320.243 432.503 320.067C436.678 319.738 440.834 319.935 444.931 320.989C445.683 321.187 446.455 321.297 447.226 321.429C448.157 321.604 448.889 321.297 449.423 320.396C449.819 319.738 450.234 319.101 450.709 318.53C452.213 316.729 454.43 316.444 456.29 317.761C456.706 318.047 457.082 318.442 457.517 318.684C458.071 318.991 458.685 319.364 459.278 319.386C460.486 319.43 461.455 319.979 462.405 320.682C462.92 321.077 463.454 321.494 464.028 321.78C465.433 322.527 466.244 322.285 467.095 320.858C467.669 319.869 468.204 318.859 468.698 317.805C469.747 315.521 471.231 313.699 472.894 311.964C478.751 305.881 485.955 302.718 493.396 300.039C493.792 299.886 494.227 299.82 494.643 299.776C495.058 299.754 495.494 299.754 495.909 299.842C497.611 300.215 498.482 301.598 498.066 303.465C497.809 304.585 497.393 305.705 496.879 306.715C494.445 311.524 490.902 315.236 487.004 318.552C485.717 319.65 484.352 320.66 483.046 321.714C482.729 321.978 482.472 322.329 482.096 322.746C482.769 323.054 483.303 323.273 483.798 323.559C484.431 323.888 485.104 324.196 485.678 324.657C486.984 325.733 486.925 327.599 485.579 328.609C485.124 328.961 484.589 329.202 484.055 329.422C482.452 330.059 480.849 330.652 479.246 331.311C478.811 331.486 478.276 331.486 477.98 332.255C478.494 332.474 478.989 332.694 479.503 332.87C480.374 333.177 481.285 333.419 482.155 333.726C482.808 333.968 483.204 334.495 483.283 335.285C483.343 335.9 482.927 336.493 482.155 336.801C481.621 337.02 481.067 337.174 480.513 337.284C479.682 337.438 478.831 337.525 477.999 337.679C477.623 337.745 477.267 337.899 476.753 338.052C477.762 338.997 478.692 339.743 479.484 340.622C480.117 341.324 480.711 342.159 481.106 343.037C481.562 344.048 481.027 345.167 480.038 345.409C479.365 345.585 478.633 345.607 477.94 345.585C474.101 345.475 470.361 344.618 466.64 343.652C459.14 341.698 451.719 339.304 444.377 336.713C438.301 334.561 432.067 333.089 425.794 331.925C423.914 331.574 421.994 331.53 420.095 331.442C419.422 331.42 418.67 331.333 418.135 331.772C417.601 333.748 417.265 335.681 416.572 337.481C415.682 339.853 414.593 342.159 413.465 344.443C411.664 348.088 409.151 351.053 406.004 353.293C400.463 357.246 394.507 360.078 387.917 360.891C382.85 361.528 377.804 362.121 372.718 362.604C366.366 363.241 359.993 363.131 353.641 363.021C334.563 362.692 315.486 362.274 296.409 361.857C285.801 361.616 275.214 361.22 264.607 361.089C250.952 360.891 237.336 360.21 223.8 358.212C219.526 357.575 215.271 356.762 211.155 355.225C209.552 354.632 207.968 353.908 206.484 353.029C205.376 352.37 204.327 351.514 203.437 350.548C201.952 348.923 201.893 346.858 203.179 345.014C203.694 344.267 204.307 343.586 204.98 343.037C206.049 342.159 207.177 341.324 208.344 340.578C210.977 338.865 213.787 337.525 216.696 336.559C221.505 334.934 226.294 333.287 231.162 331.947C243.926 328.434 256.651 324.767 269.317 320.77C280.399 317.278 291.58 314.16 302.722 310.844C308.54 309.131 314.378 307.594 320.295 306.364C329.062 304.563 337.829 302.806 346.576 300.984C354.511 299.337 362.467 298.019 370.502 297.206C374.103 296.833 377.685 296.723 381.307 296.965C383.345 297.097 385.403 297.075 387.442 297.141C390.905 297.25 394.368 297.36 397.712 298.48C399.098 297.602 399.256 297.558 400.661 298.085C403.966 299.315 406.737 301.401 408.913 304.431C409.388 305.09 409.863 305.749 410.516 306.671C411.407 303.663 411.427 303.355 411.11 300.984ZM207.513 349.494C210.086 351.053 212.876 351.887 215.746 352.524C223.325 354.171 231.004 354.808 238.702 355.357C247.449 355.994 256.216 356.257 264.983 356.235C276.579 356.192 288.156 356.806 299.753 357.092C321.166 357.641 342.558 358.3 363.991 358.19C372.362 358.146 380.634 357.18 388.906 355.84C394.784 354.896 399.949 352.019 404.698 348.176C407.449 345.958 409.27 342.862 410.853 339.59C411.783 337.657 412.594 335.637 413.148 333.529C413.703 331.333 413.683 329.202 412.891 327.072C411.11 322.285 409.567 317.388 408.161 312.447C407.231 309.153 405.49 306.408 403.155 304.146C401.829 302.85 400.443 301.642 399.019 300.325C398.623 300.61 398.286 301.006 397.871 301.159C397.495 301.291 397.04 301.159 396.624 301.137C395.991 301.115 395.357 301.137 394.724 301.115C393.596 301.093 392.468 301.071 391.34 301.049C389.638 301.028 387.956 301.028 386.254 301.006C385.047 301.006 383.86 301.027 382.652 300.962C378.892 300.698 375.172 300.918 371.451 301.423C360.072 302.938 348.832 305.332 337.591 307.835C337.136 307.945 336.681 308.077 336.067 308.252C336.503 309.153 336.899 309.877 337.235 310.624C337.552 311.327 337.829 312.052 338.126 312.754C338.779 314.357 339.095 316.048 339.095 317.783C339.095 318.464 338.957 319.189 338.798 319.847C338.64 320.484 337.769 320.594 337.433 320.023C337.136 319.496 336.879 318.925 336.701 318.332C336.048 316.18 335.414 314.006 334.801 311.832C334.504 310.8 334.227 309.746 333.91 308.626C333.297 308.714 332.743 308.801 332.189 308.889C321.66 310.866 311.231 313.413 300.941 316.597C291.066 319.65 281.092 322.329 271.197 325.294C263.815 327.49 256.414 329.576 248.933 331.289C248.399 331.42 247.865 331.596 247.152 331.794C247.607 332.453 247.983 332.98 248.3 333.529C248.597 334.056 248.854 334.627 249.092 335.198C249.349 335.834 249.567 336.515 249.804 337.174C250.002 337.767 250.18 338.36 250.358 338.953C250.556 339.634 250.734 340.292 250.932 340.973C251.526 343.103 251.704 345.299 251.506 347.495C251.407 348.483 251.13 349.472 250.853 350.438C250.695 351.009 250.101 351.338 249.685 351.229C249.21 351.119 248.993 350.723 248.894 350.24C248.795 349.779 248.775 349.318 248.716 348.835C248.458 346.661 248.26 344.465 247.904 342.313C247.528 340.073 247.033 337.877 246.539 335.659C246.281 334.539 245.886 333.441 245.549 332.343C245.411 332.299 245.272 332.189 245.153 332.211C237.336 334.078 229.519 335.856 221.841 338.404C219.466 339.194 217.111 340.051 214.796 340.973C212.382 341.917 210.126 343.235 208.008 344.838C207.078 345.541 206.148 346.265 205.633 347.429C205.871 348.549 206.722 349.011 207.513 349.494ZM485.144 253.725C483.818 254.45 482.452 255.153 481.285 256.141C479.266 257.854 477.346 259.72 475.486 261.631C473.824 263.322 472.32 265.21 470.697 266.967C469.589 268.175 468.461 269.383 467.254 270.459C465.354 272.172 463.197 272.94 460.723 272.347C459.832 272.128 458.902 272.062 457.992 271.974C457.715 271.952 457.438 272.062 457.2 272.106C456.547 272.809 456.567 273.709 456.448 274.544C456.211 276.432 455.875 278.255 454.588 279.726C454.826 280.363 455.083 280.912 455.261 281.505C455.538 282.471 455.894 283.437 455.973 284.448C456.152 286.556 455.479 288.291 453.777 289.411C453.341 289.696 452.926 289.96 452.49 290.223C450.808 291.233 449.205 292.397 447.82 293.869C444.258 297.646 440.122 300.5 435.748 302.96C430.9 305.705 426.012 308.362 421.163 311.107C419.659 311.964 418.195 312.908 416.711 313.83C415.84 314.379 414.969 314.884 413.841 314.533C413.782 315.719 414.356 316.553 414.573 317.629C414.969 317.498 415.246 317.476 415.464 317.344C417.72 315.982 420.114 315.082 422.529 314.16C427.001 312.425 431.454 310.668 435.926 308.911C439.053 307.681 442.18 306.386 445.327 305.244C451.046 303.158 456.765 301.181 462.504 299.161C466.759 297.646 471.073 296.548 475.565 296.284C479.8 296.043 483.719 294.505 487.499 292.419C487.696 292.309 487.875 292.178 488.033 292.046C488.132 291.958 488.211 291.804 488.29 291.672C488.112 290.684 487.459 290.047 486.845 289.433C485.955 288.532 485.005 287.72 484.114 286.841C482.017 284.821 481.799 282.383 483.64 280.056C484.332 279.199 485.223 278.474 486.113 277.881C487.142 277.201 488.27 276.718 489.359 276.147C491.001 275.268 492.644 274.39 494.346 273.467C493.95 272.94 493.653 273.27 493.376 273.38C490.586 274.522 487.835 275.751 485.025 276.805C481.344 278.189 477.623 279.441 473.903 280.714C473.369 280.89 472.795 281.066 472.241 281.044C470.598 281.044 469.648 279.463 470.301 277.794C470.598 277.025 471.073 276.278 471.588 275.663C472.735 274.28 473.943 272.962 475.17 271.667C477.01 269.712 478.93 267.846 480.75 265.891C482.848 263.629 484.57 261.06 485.935 258.205C486.588 256.822 487.182 255.394 487.221 253.747C486.311 253.132 485.678 253.418 485.144 253.725ZM406.539 273.841C407.251 274.807 408.082 275.685 408.894 276.52C409.725 277.376 410.576 278.189 411.466 278.958C413.346 280.605 413.92 282.713 413.287 285.238C413.228 285.458 413.168 285.699 413.129 285.919C413.109 286.073 413.109 286.226 413.109 286.49C413.426 287.083 414.059 287.258 414.613 287.544C415.503 288.027 416.414 288.444 417.265 288.993C418.729 289.96 419.204 291.409 418.749 293.21C418.373 294.725 417.482 295.823 416.414 296.767C415.583 297.492 414.712 298.129 413.821 298.831C413.9 300.962 414.573 303.026 414.079 305.156C413.643 307.11 413.465 309.153 412.891 311.151C413.05 310.954 413.267 310.8 413.386 310.58C414.791 308.143 416.097 305.617 417.581 303.245C420.51 298.568 424.33 295.054 429.059 292.792C429.97 292.353 430.86 291.892 431.79 291.497C432.582 291.145 433.255 290.662 433.928 290.047C434.719 289.323 435.709 288.796 436.659 288.313C437.609 287.829 438.618 287.478 439.667 287.017C439.053 285.611 438.38 284.404 438.004 283.064C437.648 281.812 437.628 280.473 437.47 279.111C436.441 278.54 435.313 278.474 434.225 278.189C432.503 277.728 430.781 277.31 429.119 276.674C427.001 275.861 425.28 274.368 423.835 272.479C423.103 271.535 422.39 270.547 421.737 269.515C421.104 268.504 420.273 268.109 419.184 268.241C418.551 268.329 417.918 268.329 417.285 268.439C414.534 268.922 411.803 268.834 409.052 268.417C408.142 268.285 407.231 268.241 406.182 268.131C405.153 270.327 405.292 272.15 406.539 273.841Z" fill="#1A6652"/>
<path d="M306.501 354.764C307.293 354.83 308.005 354.918 308.698 354.962C310.677 355.05 312.656 355.203 314.635 355.203C316.04 355.203 317.465 355.072 318.85 354.896C324.807 354.105 330.764 353.117 336.74 352.48C351.088 350.943 365.455 349.735 379.822 348.747C383.622 348.484 387.422 348.11 391.221 347.649C393.042 347.429 394.843 346.99 396.604 346.397C399.236 345.519 401.453 343.828 403.056 341.303C403.966 339.875 404.678 338.338 404.639 336.515C404.639 336.12 404.579 335.725 404.5 335.351C404.342 334.693 403.55 334.495 403.154 335.022C402.877 335.373 402.66 335.791 402.501 336.208C401.255 339.656 398.9 341.786 395.812 342.928C394.269 343.499 392.666 343.85 391.083 344.179C383.998 345.717 376.834 346.595 369.67 347.386C358.786 348.593 347.902 349.911 336.978 350.745C331.338 351.185 325.697 351.294 320.057 350.658C316.357 350.24 312.715 350.658 309.094 351.382C308.54 351.492 307.986 351.646 307.451 351.843C307.056 351.997 306.66 352.195 306.323 352.458C305.928 352.788 305.532 353.249 305.749 353.842C305.848 354.215 306.244 354.479 306.501 354.764Z" fill="#1A6652"/>
<path d="M354.866 335.088C355.044 333.551 355.282 332.233 355.341 330.916C355.559 326.458 354.925 322.154 353.382 318.025C352.709 316.202 352.016 314.402 351.284 312.623C350.967 311.832 350.572 311.086 350.156 310.361C349.938 309.988 349.602 309.636 349.265 309.395C348.889 309.109 348.454 309.153 348.058 309.417C347.643 309.702 347.504 310.119 347.623 310.624C347.702 310.998 347.821 311.371 347.92 311.744C349.345 316.598 350.255 321.604 351.086 326.611C351.581 329.554 351.858 332.497 351.739 335.505C351.719 336.12 351.779 336.757 351.917 337.35C352.095 338.075 353.085 338.338 353.461 337.745C354.035 336.889 354.47 335.901 354.866 335.088Z" fill="#1A6652"/>
<path d="M313.071 342.774C313.11 341.368 313.229 339.963 313.15 338.579C312.952 334.561 312.081 330.696 310.696 326.984C309.825 324.678 308.855 322.417 307.866 320.155C307.569 319.452 307.134 318.815 306.679 318.222C306.402 317.849 305.927 317.761 305.511 318.003C305.095 318.222 304.858 318.617 304.957 319.144C305.095 319.825 305.234 320.506 305.432 321.187C307.411 328.214 309.053 335.329 309.786 342.664C309.825 343.125 309.924 343.586 310.063 344.025C310.241 344.574 310.577 344.992 311.131 344.992C311.646 345.014 312.081 344.75 312.358 344.245C312.457 344.047 312.576 343.85 312.655 343.63C312.754 343.345 312.833 343.037 312.912 342.73C312.992 342.752 313.031 342.774 313.071 342.774Z" fill="#1A6652"/>
<path d="M292.113 351.712C291.302 351.119 290.53 351.075 289.778 350.921C284.85 349.867 279.883 349.362 274.876 349.164C271.631 349.032 268.405 348.923 265.159 348.835C264.467 348.813 263.754 348.923 263.062 349.054C262.587 349.142 262.33 349.625 262.409 350.109C262.448 350.438 262.725 350.833 263.002 350.987C263.497 351.25 264.071 351.404 264.625 351.492C266.782 351.865 268.939 352.107 271.136 352.041C274.856 351.931 278.597 351.865 282.337 351.909C284.514 351.931 286.691 352.261 288.868 352.37C289.699 352.414 290.55 352.327 291.381 352.239C291.599 352.239 291.796 351.953 292.113 351.712Z" fill="#1A6652"/>
<path d="M383.404 306.145C382.573 305.793 381.801 306.342 381.881 307.089C381.94 307.792 382.138 308.472 382.316 309.131C382.969 311.525 383.681 313.918 384.295 316.334C384.968 318.991 385.463 321.67 385.383 324.437C385.383 324.591 385.383 324.745 385.403 324.898C385.463 325.338 385.68 325.667 386.056 325.711C386.373 325.755 386.769 325.711 387.026 325.513C387.283 325.316 387.501 324.92 387.6 324.569C387.758 323.976 387.897 323.339 387.917 322.724C387.956 318.223 387.501 313.787 385.759 309.636C385.344 308.648 384.77 307.748 384.196 306.847C383.959 306.518 383.563 306.298 383.404 306.145Z" fill="#1A6652"/>
<path d="M280.102 339.063C280.458 337.306 280.656 335.571 280.418 333.88C280.102 331.662 279.587 329.444 279.033 327.292C278.835 326.524 278.301 325.799 277.806 325.162C277.41 324.657 276.599 324.767 276.322 325.272C276.163 325.579 276.045 326.04 276.124 326.348C277.074 330.059 277.054 333.924 277.608 337.679C277.707 338.36 277.786 339.085 278.004 339.722C278.103 340.029 278.459 340.315 278.776 340.424C279.211 340.578 279.587 340.271 279.825 339.831C279.943 339.612 280.022 339.304 280.102 339.063Z" fill="#1A6652"/>
<path d="M378.675 315.807C379.15 315.916 379.724 315.631 379.882 315.104C380.021 314.599 380.199 313.984 380.08 313.523C379.427 310.865 378.655 308.252 377.092 306.056C376.835 305.683 376.498 305.375 376.182 305.09C375.786 304.717 375.311 304.563 374.796 304.826C374.44 305.024 374.321 305.661 374.519 306.32C374.658 306.759 374.816 307.198 374.994 307.637C375.449 308.691 375.924 309.745 376.379 310.822C376.894 312.095 377.666 313.237 377.705 314.731C377.725 315.28 378.141 315.675 378.675 315.807Z" fill="#1A6652"/>
<path d="M332.286 320.33C332.306 320.111 332.425 319.715 332.405 319.342C332.346 317.519 332.128 315.74 331.534 314.049C331.376 313.588 331 313.149 330.604 312.842C330.11 312.446 329.298 312.908 329.358 313.544C329.536 315.718 329.773 317.914 329.991 320.089C330.011 320.308 330.129 320.528 330.209 320.747C330.406 321.209 330.743 321.472 331.198 321.516C331.653 321.516 332.049 321.121 332.286 320.33Z" fill="#1A6652"/>
<path d="M301.771 331.289C301.672 331.75 301.474 332.277 301.494 332.782C301.612 335.351 301.771 337.921 301.969 340.49C302.008 341.017 302.206 341.544 302.404 342.027C302.562 342.401 303.334 342.423 303.512 342.049C303.73 341.566 303.987 341.039 303.967 340.534C303.908 337.723 303.611 334.934 302.918 332.189C302.78 331.684 302.542 331.179 301.771 331.289Z" fill="#1A6652"/>
<path d="M229.756 339.612C229.716 339.875 229.597 340.183 229.637 340.468C229.874 342.093 230.132 343.696 230.428 345.3C230.508 345.761 230.646 346.2 230.844 346.617C231.279 347.452 232.348 347.43 232.744 346.573C232.922 346.178 233.1 345.651 233.041 345.234C232.783 343.543 232.447 341.852 231.616 340.359C231.22 339.656 230.646 339.239 229.756 339.612Z" fill="#1A6652"/>
<path d="M269.336 334.67C269.316 335.066 269.237 335.439 269.277 335.79C269.474 337.789 269.692 339.809 269.949 341.807C270.009 342.269 270.365 342.664 270.84 342.664C271.295 342.664 271.631 342.356 271.77 341.851C271.849 341.566 271.948 341.236 271.948 340.951C271.928 339.15 271.711 337.372 271.058 335.725C270.761 334.956 270.286 334.407 269.336 334.67Z" fill="#1A6652"/>
<path d="M350.031 226.577C350.031 234.454 348.691 242.101 346.784 249.643C346.35 251.36 345.84 253.057 345.255 254.712C340.837 266.989 332.134 273.692 320.996 276.562C311.613 278.971 302.249 278.071 293.15 274.174C285.882 271.074 280.916 265.354 277.613 257.771C276.706 255.697 276.272 253.351 275.8 251.067C275.14 247.967 276.272 245.599 278.67 243.986C279.689 243.295 280.784 242.708 281.879 242.122C288.053 238.854 294.226 235.627 300.38 232.338C310.971 226.682 321.392 220.628 331.625 214.176C334.513 212.353 337.401 210.551 340.63 209.567C341.498 209.294 342.385 209.022 343.273 209.001C343.933 208.98 344.67 209.211 345.274 209.525C346.067 209.965 346.822 210.551 347.483 211.201C347.974 211.704 348.389 212.374 348.672 213.065C349.88 216.082 350.239 219.266 350.22 222.534C350.182 223.896 350.088 225.237 350.031 226.577ZM284.9 245.955C285.07 246.689 285.202 247.443 285.447 248.155C286.221 250.355 287.43 252.282 288.808 254.063C291.281 257.247 294.471 259.321 297.775 261.29C301.532 263.532 305.44 264.412 309.669 264.181C313.898 263.951 317.711 262.568 321.241 259.929C323.696 258.085 325.583 255.634 327.736 253.455C330.662 250.501 332.455 246.856 333.607 242.729C335.608 235.502 336.231 228.128 335.816 220.586C333.984 220.9 329.302 223.205 324.866 226.012C324.658 226.138 324.583 226.515 324.394 226.85C325.338 227.164 326.206 227.436 327.037 227.751C330.152 228.966 331.983 231.668 332.134 235.25C332.248 237.681 330.718 239.273 328.51 238.938C327.622 238.812 326.754 238.435 325.885 238.204C325.432 238.079 324.96 238.016 324.054 237.827C324.677 238.854 325.055 239.44 325.414 240.069C326.188 241.409 326.641 242.897 326.716 244.468C326.773 245.851 325.885 246.814 324.658 246.752C322.978 246.668 321.524 246.018 320.486 244.468C320.411 244.342 320.505 244.07 320.562 243.609C321.77 243.861 322.978 244.112 324.356 244.405C324.337 243.756 324.432 243.274 324.281 242.939C323.884 242.059 323.412 241.2 322.884 240.383C322.412 239.671 321.808 239.063 321.298 238.372C320.769 237.66 320.43 236.822 320.864 235.921C321.317 234.978 322.204 234.957 322.978 235.041C324.073 235.167 325.149 235.46 326.225 235.69C327.188 235.9 328.132 236.34 329.151 236.067C329.227 235.607 329.359 235.292 329.321 234.999C329.038 232.695 327.943 231.144 325.885 230.39C324.186 229.783 322.525 229.049 320.694 228.316C314.917 231.27 308.97 234.245 303.08 237.345C301.456 238.204 300.21 239.692 298.946 241.724C299.833 241.577 300.286 241.451 300.758 241.41C302.702 241.284 303.779 242.227 304.137 244.321C304.364 245.704 304.062 246.982 303.42 248.155C302.948 249.014 302.363 249.789 301.891 250.648C301.607 251.172 301.475 251.779 301.079 252.911C301.966 252.513 302.514 252.45 302.778 252.115C303.911 250.711 304.987 249.244 306.063 247.778C306.686 246.919 307.196 245.935 307.875 245.118C308.63 244.196 309.499 243.923 309.99 244.301C310.688 244.845 310.499 245.683 310.556 246.437C310.631 247.569 310.235 248.742 310.688 250.522C312.293 245.599 311.84 240.991 312.5 236.047C313.01 236.905 313.463 237.303 313.482 237.743C313.652 241.2 313.841 244.678 312.972 248.05C312.67 249.203 312.161 250.313 311.651 251.402C311.349 252.031 310.764 252.324 310.103 252.177C309.404 252.01 309.216 251.339 309.159 250.648C309.121 250.103 309.197 249.538 309.14 248.972C309.102 248.511 309.499 247.904 308.706 247.464C308.347 248.113 307.988 248.763 307.63 249.391C306.894 250.711 306.27 252.135 305.383 253.351C304.647 254.377 303.684 255.236 302.702 255.99C302.268 256.346 301.551 256.493 301.003 256.409C298.908 256.095 297.416 253.832 297.926 251.549C298.209 250.271 298.813 249.077 299.342 247.883C299.625 247.212 300.022 246.584 300.626 245.495C299.814 245.683 299.455 245.788 299.097 245.851C298.7 245.935 298.304 246.018 297.907 246.039C295.661 246.186 294.811 245.264 294.83 242.75C294.83 242.352 294.83 241.933 294.83 241.347C291.677 242.708 288.694 244.007 285.712 245.306C285.466 245.432 285.258 245.683 284.9 245.955ZM279.746 247.569C279.614 249.286 280.275 250.816 280.803 252.345C283.578 260.494 288.411 266.36 295.944 269.356C302.306 271.891 308.819 272.603 315.521 271.912C320.845 271.367 325.697 269.523 330.152 266.255C334.117 263.343 337.194 259.593 339.025 254.733C340.177 251.654 341.234 248.49 341.951 245.264C343.65 237.785 344.424 230.139 344.651 222.43C344.726 220.104 344.519 217.758 344.405 215.412C344.405 215.244 344.198 215.076 343.971 214.72C342.385 215.558 340.988 216.773 339.516 218.009C339.554 218.596 339.516 219.161 339.648 219.685C340.196 221.759 340.214 223.875 340.063 225.991C339.61 232.82 338.345 239.419 336.08 245.809C334.645 249.831 332.55 253.288 329.51 256.032C328.264 257.142 327.113 258.399 325.885 259.572C319.731 265.459 312.5 267.407 304.553 266.59C300.947 266.234 297.832 264.328 294.792 262.422C289.204 258.902 284.862 254.147 283.163 246.982C283.144 246.877 283.031 246.814 282.88 246.626C281.86 246.626 280.803 246.814 279.746 247.569Z" fill="#1A6652"/>
<path d="M319.165 249.517C319.184 250.334 318.334 251.193 317.579 251.151C316.295 251.088 315.087 249.915 314.88 248.512C314.747 247.59 315.314 246.71 316.125 246.605C317.56 246.417 319.146 247.925 319.165 249.517Z" fill="#1A6652"/>
<path d="M333.325 226.347C333.381 227.101 332.815 227.981 332.211 228.044C331.55 228.107 330.946 227.457 330.871 226.598C330.814 225.907 331.21 225.278 331.815 225.153C332.57 225.006 333.249 225.551 333.325 226.347Z" fill="#1A6652"/>
<path d="M25.8093 209.022C25.7904 205.754 26.168 202.57 27.3573 199.553C27.6405 198.862 28.0369 198.192 28.5467 197.689C29.2074 197.019 29.9626 196.453 30.7555 196.013C31.3596 195.678 32.0959 195.447 32.7566 195.489C33.6439 195.531 34.5312 195.804 35.3996 196.055C38.6279 197.04 41.5163 198.841 44.4048 200.664C54.637 207.116 65.0392 213.15 75.649 218.827C81.8035 222.116 87.9957 225.342 94.1501 228.61C95.2451 229.176 96.3401 229.762 97.3595 230.475C99.7382 232.109 100.871 234.455 100.229 237.555C99.7571 239.818 99.3229 242.185 98.4167 244.259C95.1129 251.864 90.1478 257.562 82.8795 260.662C73.78 264.559 64.4162 265.46 55.0335 263.051C43.9139 260.18 35.192 253.477 30.7744 241.201C30.1702 239.546 29.6794 237.849 29.2452 236.131C27.3196 228.589 25.9792 220.943 25.998 213.066C25.9225 211.683 25.8281 210.363 25.8093 209.022ZM90.2611 231.773C87.2783 230.475 84.2954 229.176 81.1427 227.814C81.1427 228.421 81.1427 228.82 81.1427 229.218C81.1805 231.731 80.3309 232.653 78.0655 232.507C77.669 232.486 77.2726 232.381 76.8761 232.318C76.5174 232.255 76.1587 232.15 75.3469 231.962C75.9322 233.051 76.3286 233.68 76.6307 234.35C77.1404 235.544 77.7634 236.738 78.0466 238.016C78.5374 240.3 77.0649 242.583 74.9694 242.876C74.4219 242.96 73.7045 242.814 73.2703 242.457C72.3075 241.682 71.3258 240.844 70.5895 239.818C69.7211 238.603 69.0792 237.199 68.343 235.858C67.9843 235.23 67.6256 234.581 67.2669 233.931C66.474 234.371 66.8704 234.958 66.8327 235.439C66.7949 235.984 66.8515 236.55 66.8138 237.115C66.776 237.807 66.5872 238.477 65.8698 238.645C65.2091 238.812 64.6239 238.498 64.3218 237.87C63.8121 236.801 63.3023 235.691 63.0003 234.518C62.1319 231.145 62.3207 227.667 62.4906 224.211C62.5094 223.771 62.9625 223.373 63.4723 222.514C64.133 227.458 63.661 232.067 65.2846 236.99C65.7188 235.209 65.3224 234.036 65.4168 232.905C65.4734 232.15 65.2846 231.312 65.9831 230.768C66.4551 230.391 67.3235 230.642 68.0975 231.585C68.7772 232.402 69.2869 233.386 69.9099 234.245C70.986 235.712 72.0621 237.178 73.1948 238.582C73.4591 238.917 73.9877 238.98 74.8939 239.378C74.4974 238.268 74.3653 237.639 74.0821 237.115C73.629 236.256 73.0437 235.481 72.5529 234.622C71.8921 233.449 71.5901 232.171 71.8355 230.789C72.1753 228.694 73.2514 227.751 75.2148 227.877C75.6868 227.898 76.1587 228.044 77.0272 228.191C75.7434 226.159 74.5163 224.672 72.8927 223.813C67.0026 220.712 61.0558 217.716 55.2789 214.784C53.4477 215.517 51.7863 216.25 50.0873 216.858C48.0295 217.591 46.9534 219.162 46.6513 221.466C46.6136 221.76 46.7457 222.095 46.8212 222.535C47.8596 222.807 48.8035 222.367 49.7474 222.158C50.8235 221.927 51.9185 221.634 52.9946 221.508C53.7875 221.424 54.6559 221.466 55.109 222.388C55.5432 223.31 55.2034 224.127 54.6748 224.839C54.1651 225.53 53.5609 226.138 53.089 226.85C52.5604 227.646 52.0884 228.505 51.6919 229.406C51.5409 229.741 51.6353 230.223 51.6164 230.873C52.9946 230.579 54.2028 230.328 55.4111 230.076C55.4488 230.537 55.5621 230.81 55.4866 230.935C54.4482 232.486 53.0135 233.135 51.3144 233.219C50.0873 233.282 49.2 232.318 49.2566 230.935C49.3321 229.343 49.7663 227.877 50.5592 226.536C50.9179 225.929 51.2955 225.321 51.9185 224.294C51.0312 224.483 50.5592 224.546 50.0873 224.672C49.2188 224.902 48.3504 225.279 47.4631 225.405C45.2543 225.74 43.7251 224.148 43.8384 221.718C44.0083 218.135 45.8396 215.433 48.9357 214.218C49.7852 213.883 50.6347 213.631 51.5787 213.317C51.4088 212.982 51.3144 212.605 51.1067 212.479C46.6513 209.672 41.9883 207.368 40.1571 207.053C39.7417 214.595 40.3647 221.969 42.3659 229.197C43.4986 233.324 45.2921 236.969 48.2371 239.923C50.3893 242.08 52.2772 244.552 54.7314 246.396C58.2429 249.036 62.0564 250.397 66.3041 250.649C70.5329 250.879 74.4408 249.999 78.1976 247.758C81.5014 245.788 84.673 243.735 87.165 240.53C88.562 238.749 89.7514 236.822 90.5254 234.622C90.7708 233.91 90.903 233.156 91.0729 232.423C90.752 232.129 90.5254 231.899 90.2611 231.773ZM93.1307 233.051C92.9797 233.24 92.8664 233.303 92.8475 233.407C91.1484 240.572 86.8063 245.327 81.2182 248.847C78.1599 250.774 75.0449 252.66 71.4579 253.016C63.51 253.833 56.2795 251.864 50.125 245.998C48.8979 244.825 47.7463 243.589 46.5003 242.457C43.442 239.713 41.3653 236.277 39.9305 232.234C37.6651 225.845 36.3813 219.225 35.9471 212.416C35.815 210.3 35.815 208.185 36.3625 206.111C36.4946 205.587 36.4568 205.021 36.4946 204.435C35.0409 203.199 33.6439 201.984 32.0392 201.146C31.8127 201.502 31.605 201.669 31.605 201.837C31.4918 204.183 31.2841 206.509 31.3596 208.855C31.5861 216.564 32.379 224.211 34.0593 231.69C34.7955 234.916 35.8338 238.079 36.9854 241.159C38.8167 246.019 41.8939 249.769 45.8584 252.681C50.3138 255.949 55.1656 257.792 60.4894 258.337C67.1914 259.028 73.7045 258.316 80.0666 255.781C87.5992 252.785 92.4322 246.92 95.2073 238.77C95.7359 237.241 96.3967 235.712 96.2645 233.994C95.2073 233.261 94.1501 233.093 93.1307 233.051Z" fill="#1A6652"/>
<path d="M56.845 235.984C56.8262 236.801 57.6757 237.66 58.4308 237.618C59.7146 237.555 60.9228 236.382 61.1305 234.978C61.2627 234.056 60.6963 233.177 59.8845 233.072C58.4497 232.862 56.8639 234.392 56.845 235.984Z" fill="#1A6652"/>
<path d="M42.6865 212.793C42.6299 213.547 43.1963 214.427 43.8004 214.49C44.4611 214.553 45.0652 213.903 45.1408 213.044C45.1974 212.353 44.8009 211.725 44.1968 211.599C43.4417 211.473 42.7432 212.018 42.6865 212.793Z" fill="#1A6652"/>
<path d="M136.345 112.255C142.531 111.656 148.718 112.355 154.881 113.429C159.043 114.128 163.205 114.777 167.367 115.576C172.383 116.549 177.242 118.197 181.899 120.468C193.485 126.11 204.755 132.501 215.351 140.189C229.883 150.699 241.918 164.154 251.884 179.856C256.518 187.12 259.78 195.133 261.535 203.846C262.66 209.362 263.087 214.979 262.907 220.621C262.862 222.193 262.547 223.766 262.345 225.364C262.165 226.837 261.962 228.31 261.782 229.782C260.792 238.495 258.993 246.907 255.011 254.621C254.494 255.644 253.976 256.643 253.459 257.666C248.802 267.052 242.458 274.741 234.472 280.757C227.363 286.124 219.737 290.143 211.459 292.764C205.227 294.737 198.996 294.762 192.675 293.638C186.488 292.54 180.639 290.268 175.038 287.098C164.847 281.331 156.029 273.593 148.223 264.381C140.462 255.22 133.713 245.185 128.044 234.276C123.365 225.239 118.888 216.102 115.221 206.517C111.554 196.956 109.327 186.97 108.517 176.636C108.135 171.668 107.932 166.675 107.797 161.683C107.662 157.239 107.572 152.746 107.775 148.302C107.955 144.283 108.45 140.264 108.99 136.27C109.507 132.376 110.452 128.581 111.959 124.987C114.951 117.897 119.9 113.154 126.357 110.209C128.561 109.21 130.856 109.335 133.15 109.634C134.41 109.784 134.793 110.209 136.345 112.255ZM179.65 268.525C179.672 268.276 179.695 268.026 179.65 268.475C179.627 268.026 179.627 268.251 179.65 268.5C180.302 269.898 180.932 271.296 181.629 272.669C181.697 272.819 182.057 272.819 182.349 272.919C181.562 270.397 181.179 269.649 180.167 268.6C180.054 268.475 179.807 268.575 179.65 268.525ZM255.123 245.21C253.729 245.684 253.166 247.057 252.491 248.255C251.997 249.129 251.974 249.578 252.042 251.351C252.784 249.878 253.369 248.704 253.954 247.531C254.359 246.732 254.786 245.934 255.168 245.16C255.101 245.11 254.989 245.085 254.944 245.01C254.921 244.96 254.989 244.86 255.011 244.785C255.056 244.935 255.079 245.06 255.123 245.21ZM164.352 261.111C164.375 260.911 164.375 260.737 164.397 260.537C164.375 260.737 164.352 260.911 164.352 261.111C165.252 263.108 165.657 265.38 166.849 267.302C167.074 267.102 167.187 267.052 167.187 266.978C167.299 264.481 166.152 262.659 164.622 261.036C164.577 261.011 164.442 261.111 164.352 261.111ZM131.958 114.702C131.373 114.902 130.811 114.977 130.316 115.276C127.211 117.173 124.287 119.37 121.655 122.066C120.08 123.664 118.843 125.561 117.943 127.683C115.019 134.623 113.534 141.912 113.646 149.576C113.714 153.645 114.321 157.614 115.019 161.583C116.301 169.047 118.595 176.111 122.037 182.702C124.489 187.395 127.301 191.813 130.338 196.082C135.985 203.995 141.609 211.934 147.255 219.822C148.56 221.644 149.887 223.467 151.26 225.239C159.201 235.574 168.199 244.561 178.525 251.925C186.196 257.417 194.654 260.687 203.473 262.884C208.737 264.207 213.933 263.558 219.04 261.76C225.654 259.439 231.638 255.669 237.532 251.675C245.563 246.258 251.232 238.544 255.528 229.433C256.968 226.387 257.801 223.142 257.935 219.672C258.205 211.809 257.081 204.22 254.314 196.956C252.019 190.965 248.937 185.448 245.405 180.28C235.44 165.752 223.449 153.67 209.412 144.134C201.156 138.542 192.54 133.649 183.811 129.006C177.58 125.686 171.079 123.139 164.307 121.542C157.379 119.919 150.45 118.396 143.476 116.949C139.944 116.2 136.39 115.301 132.858 116.225C132.633 115.9 132.475 115.75 132.386 115.576C132.228 115.351 132.138 115.076 131.958 114.702ZM148.695 255.27C148.403 254.221 148.245 253.522 148.02 252.873C145.771 246.657 144.083 240.242 142.419 233.826C141.609 230.756 140.439 227.86 138.999 225.089C138.819 224.74 138.459 224.49 138.054 224.066C137.875 226.038 138.639 227.436 139.134 228.909C140.619 233.377 142.239 237.796 143.611 242.314C144.398 244.91 145.343 247.506 145.231 250.327C145.208 250.726 145.321 251.201 145.523 251.5C146.378 252.773 147.188 254.096 148.695 255.27ZM219.85 276.364C219.287 278.81 219.22 280.333 219.557 282.43C221.47 281.781 223.269 280.882 224.979 279.609C223.989 279.259 223.022 279.11 222.257 278.61C221.38 278.036 220.66 277.138 219.85 276.364ZM161.923 243.986C162.755 247.032 163.835 249.753 165.702 252.499C165.702 250.602 165.702 249.154 165.702 247.581C164.487 246.408 163.205 245.185 161.923 243.986ZM153.059 260.861C154.544 262.384 155.916 263.857 157.334 265.255C157.626 265.53 157.918 266.179 158.481 265.654C157.244 263.483 156.051 261.336 154.814 259.189C154.724 259.014 154.612 258.815 154.454 258.69C154.342 258.59 154.162 258.59 153.937 258.515C153.689 259.214 153.442 259.863 153.059 260.861ZM172.878 266.378C172.226 261.985 171.304 259.688 169.751 258.215C169.324 261.635 171.169 263.957 172.878 266.378ZM143.544 221.869C144.713 227.885 145.568 230.257 147.503 232.878C147.188 231.829 146.985 231.13 146.783 230.431C146.378 228.909 145.748 227.411 145.658 225.863C145.546 224.191 144.893 223.092 143.544 221.869ZM173.666 278.261C173.778 277.512 173.958 277.113 173.846 276.913C173.261 275.715 172.608 274.566 171.933 273.418C171.843 273.243 171.551 273.218 171.236 273.069C171.191 274.392 171.124 275.54 171.079 276.763C171.911 277.237 172.653 277.662 173.666 278.261ZM231.795 275.091C232.155 274.916 232.515 274.816 232.785 274.616C233.46 274.117 234.112 273.543 234.9 272.894C234.45 272.37 234.157 272.045 233.842 271.696C231.728 273.718 231.728 273.718 231.795 275.091ZM113.669 182.876C114.141 181.379 114.141 181.379 112.971 177.484C113.106 179.407 113.219 181.004 113.669 182.876ZM211.324 283.104C210.784 284.027 210.087 284.626 210.537 285.675C211.121 285.45 211.684 285.251 212.449 284.951C211.976 284.202 211.661 283.653 211.324 283.104ZM193.732 265.779C194.362 267.327 194.362 267.327 195.397 268.176C195.442 267.527 195.464 266.903 195.509 266.304C194.947 265.879 194.452 265.305 193.732 265.779ZM212.426 268.925C212.719 270.123 213.191 271.022 214.203 271.87C214.383 270.597 214.428 269.674 213.956 268.725C213.416 268.775 212.966 268.85 212.426 268.925ZM161.9 269.224C162.418 270.298 163.272 270.847 164.577 271.521C164.172 270.522 163.97 269.823 163.632 269.224C163.16 268.35 162.575 268.525 161.9 269.224ZM191.977 284.801C190.988 284.951 190.358 285.026 189.638 285.126C191.122 286.149 191.122 286.149 191.977 284.801ZM128.021 200.076C127.999 200.251 127.909 200.501 127.976 200.625C128.179 201 128.471 201.324 128.719 201.674C128.809 201.524 129.034 201.299 128.989 201.224C128.786 200.825 128.539 200.426 128.291 200.051C128.269 200.026 128.111 200.076 128.021 200.076ZM198.479 284.302C198.681 283.928 198.884 283.728 198.884 283.503C198.906 283.054 198.434 282.629 198.209 282.854C198.051 283.029 197.939 283.353 197.961 283.603C197.984 283.828 198.231 284.002 198.479 284.302ZM256.271 239.393C256.203 239.443 256.091 239.493 256.046 239.568C255.933 239.917 255.843 240.292 255.753 240.641C255.753 240.666 255.956 240.791 255.956 240.791C256.158 240.492 256.361 240.217 256.496 239.868C256.541 239.768 256.338 239.543 256.271 239.393ZM206.892 273.443C206.735 273.243 206.645 273.093 206.532 272.969C206.375 273.168 206.127 273.343 206.127 273.568C206.105 273.743 206.375 273.942 206.51 274.117C206.645 273.867 206.78 273.643 206.892 273.443ZM243.763 264.057C243.853 264.032 244.011 264.057 244.033 264.007C244.168 263.682 244.28 263.333 244.415 262.983C244.325 262.958 244.19 262.859 244.168 262.884C243.966 263.183 243.786 263.483 243.628 263.807C243.606 263.882 243.718 263.982 243.763 264.057ZM181.517 260.312C181.607 260.462 181.674 260.687 181.809 260.712C181.944 260.762 182.102 260.612 182.259 260.537C182.147 260.412 182.079 260.212 181.944 260.163C181.809 260.138 181.652 260.262 181.517 260.312Z" fill="#1A6652"/>
<path d="M215.485 235.274C207.904 236.223 201.38 235.474 195.103 232.778C187.207 229.383 180.751 223.916 176.117 215.978C172.922 210.511 170.38 204.719 168.783 198.428C167.951 195.133 167.568 191.763 167.996 188.343C168.356 185.448 169.166 182.777 171.235 180.73C171.775 180.205 172.135 179.381 172.472 178.658C173.35 176.785 174.16 174.838 175.037 172.966C176.072 170.744 177.624 169.022 179.581 167.774C182.348 166.026 185.25 164.653 188.4 164.104C195.396 162.906 202.325 163.23 209.208 165.028C212.515 165.901 215.552 167.424 218.319 169.596C223.201 173.44 227.52 177.984 230.805 183.55C235.979 192.287 238.431 201.798 236.833 212.308C235.281 222.643 229.905 229.582 221.221 233.402C219.107 234.375 216.835 234.85 215.485 235.274ZM171.595 188.243C171.37 190.415 171.393 192.437 171.798 194.409C173.732 203.77 177.962 211.709 184.013 218.474C184.958 219.522 186.06 220.396 187.14 221.245C194.968 227.411 203.764 229.033 213.078 227.885C217.127 227.386 220.839 225.663 224.078 222.842C226.62 220.646 228.622 217.95 229.635 214.53C231.052 209.812 231.344 204.969 230.31 200.101C228.397 191.039 223.831 183.925 217.352 178.183C214.068 175.287 210.423 173.315 206.329 172.342C200.75 171.019 195.148 170.794 189.502 171.518C187.297 171.793 185.183 172.417 183.136 173.365C180.796 174.464 178.749 175.986 177.444 178.483C176.432 180.405 175.442 182.352 174.587 184.349C173.912 185.997 173.282 187.644 171.595 188.243Z" fill="#1A6652"/>
<path d="M246.193 195.408C246.418 195.508 246.778 195.533 246.868 195.707C247.678 197.38 248.555 199.052 249.185 200.825C250.85 205.593 252.065 210.511 252.717 215.578C253.37 220.571 252.02 224.79 248.803 228.309C248.263 228.908 247.701 229.483 247.093 230.007C243.899 232.653 241.402 235.998 239.265 239.668C237.622 242.463 235.62 244.885 233.078 246.657C231.863 247.506 230.581 248.305 229.231 248.754C225.947 249.853 222.573 250.726 219.266 251.75C216.679 252.549 214.114 253.372 211.572 254.321C207.883 255.694 204.328 255.519 200.617 254.071C197.377 252.823 193.98 252.124 190.628 251.201C189.144 250.776 187.636 250.427 186.174 249.977C183.07 249.029 180.415 247.206 178.143 244.66C174.229 240.292 170.247 235.998 166.333 231.629C162.936 227.86 159.719 223.941 157.042 219.522C155.062 216.252 152.655 213.356 150.001 210.735C149.348 210.111 148.741 209.437 148.043 208.863C143.612 205.069 139.855 200.575 136.278 195.832C134.501 193.461 132.836 190.989 131.554 188.243C128.269 181.279 125.008 174.314 121.836 167.299C120.891 165.227 120.171 163.006 119.451 160.834C118.034 156.54 117.764 152.122 118.686 147.653C119.316 144.558 119.946 141.437 120.621 138.342C120.778 137.643 121.026 136.919 121.408 136.32C121.611 135.971 122.128 135.871 122.713 135.571C122.78 136.245 122.893 136.645 122.87 137.019C122.398 142.086 121.881 147.154 121.408 152.222C121.048 156.141 121.791 159.885 123.208 163.38C124.963 167.724 126.965 171.967 128.922 176.236C130.362 179.356 131.891 182.427 133.354 185.522C134.748 188.443 136.391 191.189 138.37 193.66C138.438 193.735 138.505 193.81 138.55 193.91C142.06 199.003 146.086 203.496 150.473 207.665C153.757 210.785 156.502 214.455 158.797 218.549C161.226 222.892 164.308 226.687 167.547 230.331C171.372 234.65 175.196 238.969 178.908 243.412C181.54 246.582 184.644 248.629 188.424 249.528C191.596 250.277 194.768 251.101 197.917 251.949C199.019 252.249 200.144 252.599 201.179 253.123C204.621 254.845 208.085 254.645 211.527 253.297C214.676 252.049 217.893 251.001 221.088 249.927C225.385 248.48 229.546 246.582 233.101 243.362C234.518 242.064 235.845 240.716 236.858 239.018C239.332 234.9 242.302 231.355 246.013 228.584C246.418 228.284 246.756 227.935 247.138 227.585C250.693 224.49 252.042 220.396 251.502 215.478C250.782 208.888 249.298 202.547 246.576 196.606C246.396 196.232 246.328 195.807 246.216 195.408C246.238 195.358 246.193 195.408 246.193 195.408Z" fill="#1A6652"/>
<path d="M204.913 240.666C204.576 242.014 203.586 242.363 202.506 242.588C199.379 243.212 196.207 243.587 193.08 242.962C183.834 241.19 175.803 236.896 169.932 228.434C167.277 224.615 165.23 220.446 163.88 215.877C163.43 214.33 163.25 212.757 163.588 211.184C163.678 210.71 164.015 210.186 164.375 209.961C164.938 209.612 165.523 209.986 165.882 210.51C166.535 211.434 167.142 212.383 167.705 213.356C169.189 215.952 170.584 218.623 172.114 221.17C175.893 227.56 180.977 232.278 187.411 235.049C192.315 237.171 197.332 238.869 202.663 239.243C203.946 239.318 203.946 239.343 204.913 240.666Z" fill="#1A6652"/>
<path d="M231.907 173.216C231.57 173.166 231.12 173.241 230.917 173.041C229.86 171.968 228.87 170.819 227.858 169.671C225.091 166.551 222.144 163.73 218.927 161.208C216.587 159.361 214.45 157.239 212.291 155.117C210.423 153.295 208.669 151.348 206.869 149.426C204.484 146.905 201.762 144.957 198.771 143.46C194.069 141.088 189.39 138.617 184.688 136.295C183.046 135.471 181.314 134.822 179.559 134.273C173.193 132.276 166.759 130.703 160.235 129.555C158.93 129.331 157.625 128.856 156.366 128.407C153.441 127.383 150.584 126.185 147.637 125.262C145.253 124.513 142.801 123.814 140.348 123.539C138.594 123.339 136.659 123.589 134.972 124.188C131.238 125.561 127.773 127.583 124.579 130.229C124.084 129.78 124.601 129.405 124.849 129.056C125.074 128.731 125.366 128.382 125.681 128.207C129.37 126.01 132.722 123.065 136.974 122.091C138.391 121.767 139.786 121.492 141.226 121.792C144.33 122.441 147.412 123.065 150.517 123.764C154.723 124.687 158.953 125.636 163.159 126.634C170.291 128.332 177.264 130.504 183.811 134.173C186.713 135.796 189.682 137.269 192.629 138.792C195.239 140.14 197.848 141.438 200.458 142.761C203.382 144.209 205.924 146.256 208.196 148.727C210.648 151.398 213.123 154.094 215.62 156.715C216.79 157.963 218.005 159.211 219.332 160.21C224.123 163.855 228.15 168.348 231.817 173.291L231.907 173.216Z" fill="#1A6652"/>
<path d="M171.327 166.65C171.889 166.65 172.181 166.575 172.451 166.675C172.879 166.825 173.464 166.95 173.666 167.299C174.049 167.948 173.576 168.473 173.126 168.897C169.639 172.242 167.435 176.486 165.77 181.229C164.173 185.797 162.553 190.29 162.058 195.208C162.013 195.732 161.811 196.232 161.631 196.731C161.563 196.906 161.428 197.155 161.271 197.205C161.023 197.28 160.708 197.28 160.484 197.18C160.349 197.13 160.236 196.856 160.191 196.656C160.034 196.057 159.786 195.433 159.786 194.809C159.831 188.318 159.966 181.853 162.576 175.837C163.97 172.591 165.95 169.92 168.74 168.073C169.594 167.449 170.584 167.05 171.327 166.65Z" fill="#1A6652"/>
<path d="M228.153 231.23C228.67 231.879 228.692 232.653 228.333 233.302C226.128 237.146 223.226 239.867 218.929 240.267C218.839 240.267 218.727 240.292 218.637 240.242C218.232 239.992 217.692 239.817 217.512 239.443C217.265 238.919 217.647 238.444 218.142 238.22C218.839 237.895 219.559 237.596 220.256 237.271C222.754 236.073 225.003 234.525 226.758 232.179C227.05 231.804 227.478 231.53 227.838 231.23C227.928 231.18 228.04 231.23 228.153 231.23Z" fill="#1A6652"/>
<path d="M244.077 191.089C245.269 192.237 246.169 193.535 246.192 195.408C246.192 195.408 246.237 195.333 246.237 195.358C245.314 194.06 244.37 192.762 244.145 191.039L244.077 191.089Z" fill="#1A6652"/>
<path d="M238.836 183.9C239.263 183.825 239.691 183.601 240.051 184.125C240.501 184.749 240.996 185.348 241.49 185.947L241.535 185.897C241.041 186.247 240.726 186.022 240.366 185.573C239.916 184.974 239.353 184.449 238.836 183.9Z" fill="#1A6652"/>
<path d="M231.842 173.29C232.157 173.715 232.494 174.139 233.214 175.088C231.977 174.488 231.549 174.114 231.887 173.215C231.909 173.215 231.842 173.29 231.842 173.29Z" fill="#1A6652"/>
<path d="M236.835 180.904C237.69 180.48 238.05 181.678 238.77 181.678C238.77 181.703 238.792 181.653 238.792 181.653C237.915 182.053 237.51 181.129 236.857 180.829L236.835 180.904Z" fill="#1A6652"/>
<path d="M234.179 176.337C234.179 176.412 234.157 176.512 234.157 176.587C234.066 176.487 233.953 176.412 233.886 176.312C233.863 176.287 233.976 176.162 234.021 176.087C234.089 176.187 234.134 176.262 234.179 176.337Z" fill="#1A6652"/>
<path d="M235.553 178.309C235.486 178.334 235.395 178.384 235.373 178.384C235.327 178.334 235.282 178.234 235.26 178.159C235.35 178.134 235.44 178.084 235.531 178.059C235.531 178.134 235.531 178.234 235.553 178.309Z" fill="#1A6652"/>
<path d="M236.859 180.831C236.814 180.656 236.746 180.481 236.701 180.281C236.679 180.181 236.679 180.106 236.679 180.006C236.791 180.106 236.972 180.181 236.972 180.281C236.972 180.456 236.882 180.656 236.837 180.856C236.837 180.906 236.859 180.831 236.859 180.831Z" fill="#1A6652"/>
<path d="M238.859 183.9C238.836 183.151 238.814 182.427 238.791 181.678C238.791 181.678 238.769 181.703 238.769 181.678C238.791 182.402 238.814 183.151 238.859 183.9Z" fill="#1A6652"/>
<path d="M241.49 185.947C241.715 186.372 241.94 186.771 242.165 187.22C242.165 187.245 242.21 187.17 242.21 187.17C241.332 187.195 241.242 187.021 241.535 185.922C241.535 185.897 241.49 185.947 241.49 185.947Z" fill="#1A6652"/>
<path d="M242.864 188.419C242.054 188.419 241.964 188.219 242.211 187.17C242.211 187.17 242.166 187.245 242.166 187.22C242.391 187.645 242.594 188.069 242.796 188.494C242.796 188.494 242.864 188.419 242.864 188.419Z" fill="#1A6652"/>
<path d="M243.605 189.566C242.796 189.616 242.706 189.466 242.841 188.418L242.796 188.493C243.065 188.867 243.313 189.242 243.56 189.641L243.605 189.566Z" fill="#1A6652"/>
<path d="M244.146 191.04C243.336 190.865 243.336 190.291 243.606 189.592C243.606 189.592 243.561 189.666 243.561 189.641C243.741 190.116 243.921 190.615 244.078 191.089L244.146 191.04Z" fill="#1A6652"/>
<path d="M202.1 180.006C204.214 178.907 206.329 179.157 208.399 179.531C211.818 180.155 215.012 181.603 218.004 183.55C219.871 184.774 221.221 186.521 222.211 188.643C223.448 191.339 223.921 194.285 223.876 197.28C223.808 200.401 222.526 202.747 219.984 204.17C216.43 206.167 212.695 206.666 208.871 205.418C207.791 205.069 206.734 204.47 205.789 203.771C201.2 200.401 198.118 191.464 200.053 185.373C200.367 184.374 200.84 183.451 201.222 182.477C201.447 181.728 201.74 180.954 202.1 180.006ZM205.587 181.453C201.807 186.446 201.942 191.489 204.259 196.631C206.959 202.647 213.528 204.619 218.747 201.149C220.096 200.251 220.906 199.003 220.951 197.305C221.041 192.337 219.669 188.119 215.575 185.448C213.438 184.025 211.166 182.901 208.758 182.177C207.746 181.878 206.734 181.703 205.587 181.453Z" fill="#1A6652"/>
<path d="M437.725 195.489C441.048 204.016 438.518 218.701 428.286 226.138C422.358 230.454 416.203 231.124 409.803 227.856C404.026 224.923 399.137 220.775 396.06 214.407C395.625 213.506 395.172 212.563 394.946 211.578C393.228 204.141 393.19 196.725 395.758 189.498C397.872 183.527 401.648 179.463 407.443 178.018C407.953 177.892 408.501 177.641 408.992 177.704C412.371 178.164 415.845 177.578 419.186 178.583C421.735 179.358 424.246 180.301 426.775 181.202C428.833 181.935 430.645 183.15 432.024 185.015C434.402 188.199 436.517 191.572 437.725 195.489ZM417.562 181.202C416.921 182.396 416.468 183.339 415.259 182.962C414.617 182.752 413.976 182.585 413.334 182.459C407.179 181.391 402.78 183.988 400.081 190.21C397.627 195.887 397.381 201.816 398.514 207.849C399.08 210.908 400.251 213.715 402.252 215.978C405.348 219.476 408.916 222.2 413.126 223.834C419.129 226.138 424.434 224.462 428.927 219.916C435.762 213.003 436.97 201.669 432.118 192.934C431.495 191.802 430.91 190.629 430.136 189.645C429.097 188.346 428.021 186.942 426.719 186.041C423.925 184.135 420.961 182.501 417.562 181.202Z" fill="#1A6652"/>
<path d="M381.825 160.797C385.77 163.227 387.337 167.459 387.451 172.131C387.696 181.348 384.43 188.974 377.898 194.777C375.444 196.956 372.593 198.003 369.44 198.003C366.099 198.003 362.852 197.374 359.718 196.138C358.717 195.74 357.717 195.301 356.848 194.651C350.901 190.315 347.05 184.365 346.257 176.425C345.691 170.769 347.314 165.636 350.713 161.384C353.563 157.801 357.169 155.853 361.568 156.021C362.21 156.042 362.852 155.979 363.626 155.958C363.324 154.785 363.003 153.821 362.852 152.836C362.625 151.433 363.324 150.029 364.4 149.631C365.514 149.233 366.495 149.589 367.269 150.532C367.703 151.077 368.043 151.705 368.44 152.313C368.742 152.774 369.063 153.214 369.535 153.905C370.441 153.193 371.234 152.459 372.102 151.915C373.763 150.846 374.556 151.119 375.632 153.025C375.84 153.381 376.01 153.779 376.293 154.345C377.275 154.072 378.275 153.737 379.276 153.549C380.862 153.235 382.278 154.282 382.353 156.063C382.391 157.613 382.013 159.205 381.825 160.797ZM368.194 160.085C369.403 160.336 370.686 160.588 371.951 160.902C373.48 161.3 375.009 161.719 376.539 162.222C376.784 162.305 376.935 162.766 377.445 163.521C374.896 163.164 372.857 162.913 370.8 162.599C368.968 162.326 367.099 162.159 365.948 160.127C365.721 159.729 365.079 159.456 364.588 159.415C361.625 159.142 358.812 159.561 356.206 161.342C349.58 165.867 348.523 175.608 351.562 181.977C355.168 189.581 360.775 193.415 368.496 193.687C371.12 193.771 373.461 193.017 375.576 191.32C380.824 187.13 383.241 181.306 383.241 174.288C383.241 172.298 383.033 169.931 382.07 168.381C380.579 165.951 379.748 163.269 378.559 160.692C378.823 159.017 381.221 157.969 379.71 155.518C378.578 155.958 377.483 156.419 376.369 156.838C375.557 157.131 374.821 157.005 374.179 156.314C373.745 155.853 373.273 155.434 372.687 154.89C371.725 156.272 370.856 157.341 369.365 157.445C368.081 157.55 368.1 158.702 368.194 160.085Z" fill="#1A6652"/>
<path d="M409.312 188.283C409.349 188.178 409.5 187.78 409.67 187.403C411.105 184.135 413.54 183.444 416.051 185.601C417.203 186.586 417.694 187.885 417.335 189.477C417.09 190.608 416.75 191.698 416.391 193.017C417.845 193.625 419.223 194.065 420.488 194.777C421.998 195.594 422.98 196.935 422.961 198.946C422.923 200.894 422.168 202.424 420.62 203.22C419.714 203.681 418.581 203.764 417.562 203.722C416.523 203.681 415.504 203.22 414.465 203.031C413.559 202.864 412.898 203.387 412.653 204.33C412.389 205.315 412.332 206.341 412.106 207.347C411.181 211.285 408.217 213.422 404.592 212.814C401.685 212.333 399.4 209.567 399.967 206.257C400.608 202.466 400.759 198.778 400.514 194.945C400.363 192.766 401.534 190.964 403.478 190.21C405.309 189.435 407.216 188.932 409.312 188.283ZM407.197 191.362C406.197 191.76 405.064 192.159 403.988 192.661C403.044 193.101 402.572 194.044 402.628 195.133C402.685 196.286 402.874 197.459 403.1 198.59C403.44 200.35 403.516 202.067 402.855 203.764C402.647 204.309 402.44 204.854 402.345 205.419C401.949 207.64 402.836 209.504 404.497 209.986C406.725 210.636 408.707 209.672 409.349 207.493C409.632 206.53 409.67 205.482 409.878 204.477C410.52 201.418 412.351 199.994 415.07 200.475C416.108 200.664 417.127 201.041 418.166 201.23C419.223 201.418 420.11 200.748 420.261 199.742C420.412 198.737 419.978 198.003 419.185 197.626C418.09 197.124 416.92 196.809 415.844 196.286C414.352 195.552 413.616 194.149 413.899 192.389C414.107 191.111 414.541 189.875 414.862 188.639C414.522 188.262 414.296 187.843 413.975 187.654C412.672 186.9 411.822 187.424 411.879 188.869C411.898 189.163 411.973 189.456 411.973 189.749C411.992 191.006 412.672 192.577 411.407 193.395C409.84 194.442 409.217 192.347 408.122 191.76C407.99 191.719 407.858 191.677 407.197 191.362Z" fill="#1A6652"/>
<path d="M407.594 195.573C408.651 195.238 409.802 195.866 410.161 196.976C410.595 198.275 409.953 199.679 408.726 200.098C407.537 200.496 406.291 199.658 406.064 198.275C405.857 197.081 406.517 195.908 407.594 195.573Z" fill="#1A6652"/>
<path d="M74.4551 315.108C73.9643 312.552 74.4174 310.227 75.7578 308.09C76.7395 306.561 77.8911 305.22 79.3258 304.194C82.3464 302.015 85.5936 300.59 89.256 300.569C89.9168 300.569 90.5775 300.528 91.2383 300.486C95.0329 300.213 98.7331 299.48 102.263 297.93C104.604 296.903 106.964 295.982 109.456 295.458C114.723 294.389 119.972 294.787 125.163 296.065C130.544 297.385 135.49 299.899 140.229 302.958C146.496 307.022 152.349 311.756 157.861 317.015C159.598 318.649 161.335 320.283 163.072 321.896C165.356 324.033 167.98 325.436 170.888 326.19C171.586 326.379 172.303 326.526 172.983 326.777C173.38 326.903 173.776 327.112 174.097 327.385C174.644 327.845 174.474 328.935 173.833 329.186C173.436 329.333 173.021 329.396 172.606 329.417C171.057 329.458 169.528 329.5 167.98 329.71C166.149 329.961 164.28 330.066 162.487 330.611C161.41 330.925 160.353 330.925 159.315 330.443C157.616 329.689 156.03 329.982 154.482 330.967C151.82 332.643 149.139 334.277 146.496 335.974C143.23 338.09 140.021 340.289 136.755 342.405C134.584 343.809 132.413 345.233 130.072 346.281C123.861 349.109 117.461 349.884 110.872 348.229C107.398 347.349 104.151 345.841 100.98 344.06C95.335 340.897 90.2188 336.854 85.2726 332.538C81.9877 329.668 79.4769 326.023 77.2114 322.441C75.8899 320.01 74.946 317.664 74.4551 315.108ZM157.389 322.252C154.274 319.235 151.197 316.177 147.856 313.474C143.287 309.787 138.548 306.456 133.621 303.398C129.317 300.716 124.767 298.663 119.896 297.637C115.497 296.715 111.099 296.547 106.719 297.825C105.567 298.16 104.416 298.558 103.302 299.04C100.111 300.444 96.7886 301.324 93.4849 302.204C92.1067 302.581 90.6342 302.643 89.1994 302.685C85.4992 302.79 82.3653 304.403 79.4957 306.854C79.2126 307.085 78.9671 307.378 78.7028 307.671C76.5318 310.122 76.0598 312.846 77.3058 316.072C78.2309 318.439 79.5524 320.45 81.0249 322.399C83.2715 325.352 85.8579 327.908 88.7841 330.066C93.6737 333.669 98.6765 337.084 103.944 339.996C106.794 341.567 109.739 342.887 112.817 343.809C118.707 345.568 124.559 345.317 130.317 343.096C132.809 342.133 135.15 340.771 137.453 339.367C141.663 336.812 145.836 334.214 150.083 331.721C151.556 330.841 153.123 330.171 154.69 329.479C156.124 328.851 157.635 328.788 159.088 329.375C160.278 329.857 161.41 329.857 162.6 329.417C163.487 329.102 164.431 328.914 165.337 328.662C162.26 326.966 159.825 324.598 157.389 322.252Z" fill="#1A6652"/>
<path d="M118.535 305.262C118.384 306.058 118.781 306.645 119.102 307.273C119.895 308.761 120.688 310.248 121.462 311.735C121.632 312.07 121.764 312.427 121.858 312.678C121.575 313.202 121.254 313.055 120.99 312.992C117.554 312.175 114.08 312.175 110.625 312.678C106.34 313.285 102.035 313.453 97.7311 313.265C95.5223 313.16 93.2946 313.327 91.0858 313.39C90.5761 313.411 90.0097 313.39 89.6699 314.186C90.0664 314.291 90.4062 314.417 90.746 314.438C93.9743 314.647 97.2025 314.857 100.431 314.982C103.187 315.087 105.943 315.108 108.681 315.108C110.908 315.108 113.117 315.171 115.288 315.695C115.855 315.841 116.421 316.03 117.195 316.26C116.874 316.658 116.723 316.931 116.497 317.077C113.816 319.067 111.116 321.058 108.435 323.048C107.944 323.404 107.435 323.739 106.982 324.053C107.038 324.661 107.359 324.703 107.642 324.619C108.152 324.472 108.7 324.347 109.172 324.074C112.513 322.273 115.723 320.178 118.611 317.58C118.8 317.412 119.007 317.287 119.291 317.056C122.387 318.25 125.181 320.094 127.975 322.335C126.767 323.509 125.709 324.556 124.614 325.583C122.613 327.468 120.574 329.333 118.573 331.218C118.215 331.553 117.912 331.972 117.629 332.391C117.422 332.705 117.705 333.271 118.082 333.25C118.479 333.229 118.913 333.166 119.291 332.978C119.819 332.684 120.329 332.328 120.82 331.93C123.84 329.416 126.936 327.007 129.466 323.886C129.542 323.802 129.674 323.76 129.863 323.634C130.278 323.865 130.769 324.116 131.241 324.389C138.207 328.348 145.494 329.186 153.065 327.133C153.593 326.986 154.122 326.84 154.594 326.567C155.726 325.939 155.802 324.409 154.688 323.718C154.122 323.383 153.461 323.174 152.819 323.111C151.819 322.985 150.78 323.027 149.78 322.985C147.628 322.88 145.475 322.838 143.323 322.629C140.001 322.294 136.886 321.162 133.94 319.424C132.676 318.669 131.448 317.852 130.165 317.098C128.673 316.239 127.182 315.38 125.653 314.626C124.954 314.27 124.501 313.83 124.142 313.076C123.312 311.316 122.387 309.598 121.424 307.923C120.952 307.085 120.291 306.393 119.687 305.639C119.442 305.346 119.309 305.346 118.535 305.262Z" fill="#1A6652"/>
<path d="M94.0498 323.781C94.2386 323.907 94.4085 324.137 94.5973 324.137C94.9371 324.158 95.3147 324.116 95.6356 323.991C96.6362 323.572 97.6368 323.174 98.5807 322.629C99.0338 322.378 99.3736 321.875 99.7134 321.414C99.8078 321.288 99.7134 320.911 99.6001 320.702C99.5435 320.576 99.2981 320.513 99.1471 320.513C98.9772 320.492 98.7884 320.534 98.6373 320.639C97.1837 321.54 95.7489 322.461 94.3141 323.383C94.2197 323.425 94.182 323.572 94.0498 323.781Z" fill="#1A6652"/>
<path d="M110.135 334.382C110.796 333.816 111.4 333.376 111.928 332.852C112.174 332.601 112.306 332.203 112.419 331.847C112.514 331.575 112.117 331.176 111.872 331.239C111.702 331.281 111.513 331.323 111.381 331.428C110.305 332.35 109.229 333.292 108.153 334.235C108.115 334.277 108.058 334.34 108.058 334.403C108.039 334.654 107.964 334.968 108.058 335.115C108.171 335.262 108.492 335.324 108.681 335.283C109.021 335.178 109.323 334.947 109.644 334.759C109.833 334.633 110.022 334.466 110.135 334.382Z" fill="#1A6652"/>
<path d="M134.98 313.642C135.15 313.181 135.357 312.846 135.357 312.49C135.395 311.086 135.131 309.745 134.659 308.447C134.621 308.342 134.527 308.195 134.432 308.153C134.281 308.069 134.092 307.986 133.96 308.028C133.828 308.069 133.696 308.279 133.658 308.426C133.621 308.593 133.639 308.824 133.677 309.012C133.979 310.353 134.281 311.673 134.602 313.013C134.659 313.202 134.791 313.349 134.98 313.642Z" fill="#1A6652"/>
</g>
<defs>
<clipPath id="clip0">
<rect width="500" height="500" fill="white"/>
</clipPath>
</defs>
</svg>
