<svg width="500" height="500" viewBox="0 0 500 500" fill="none" xmlns="http://www.w3.org/2000/svg">
<path d="M231.207 382.122C231.061 382.05 230.932 381.889 230.786 381.691C230.705 381.602 230.641 381.494 230.56 381.404C230.317 381.135 230.107 381.046 229.897 381.028C229.768 381.028 229.654 381.099 229.557 381.225C229.476 381.333 229.444 381.458 229.412 381.584C229.282 381.53 229.137 381.512 229.008 381.548C228.619 381.674 228.328 381.817 228.07 381.979C227.682 382.248 227.326 382.535 226.986 382.858C225.466 384.311 223.558 385.154 221.149 385.442C219.451 385.639 217.624 385.549 215.376 385.154C215.102 385.101 214.827 385.047 214.552 384.993L214.196 384.921C213.113 384.706 212.045 384.239 210.962 383.468C209.07 382.14 207.389 380.4 205.836 378.139C205.384 377.475 204.963 376.667 204.591 375.716C204.494 375.465 204.397 375.214 204.268 374.999C204.122 374.747 203.864 374.622 203.621 374.64C203.702 374.514 203.783 374.371 203.831 374.191L203.864 374.048L203.783 373.922C203.54 373.509 203.201 373.258 202.861 373.007C202.699 372.881 202.521 372.756 202.376 372.612L202.279 372.522L201.535 372.612C200.921 372.684 200.339 372.756 199.74 372.845C199.465 372.881 199.158 372.935 198.851 373.025C198.641 373.097 198.431 373.294 198.366 373.491L198.237 373.814C197.865 374.819 197.477 375.842 197.234 376.937C196.959 378.139 196.927 379.323 196.927 380.328C196.927 382.786 197.347 385.28 198.204 387.72C198.98 389.963 200.08 392.009 201.454 393.785C203.427 396.351 205.966 397.93 208.989 398.45C210.073 398.648 211.188 398.737 212.304 398.737C214.616 398.737 217.026 398.343 219.581 397.535C220.551 397.23 221.505 396.889 222.297 396.584C224.496 395.759 226.485 394.377 228.199 392.475C229.816 390.681 230.819 388.797 231.255 386.716C231.449 385.836 231.562 384.921 231.676 384.042L231.773 383.288C231.837 383.127 231.934 382.445 231.207 382.122ZM199.239 375.34L199.223 375.483C199.207 375.627 199.191 375.752 199.158 375.878C198.851 377.726 198.77 379.52 198.948 381.207C199.255 384.186 200.112 387.182 201.535 390.376C202.311 392.098 203.476 393.552 204.979 394.664C206.402 395.705 207.809 396.512 209.28 397.087C208.812 396.997 208.391 396.889 207.987 396.782C205.626 396.1 203.67 394.664 202.133 392.511C199.579 388.905 198.236 384.849 198.156 380.453C198.123 378.695 198.431 376.972 199.094 375.196L199.239 375.34ZM201.681 373.743C201.179 373.779 200.678 373.814 200.177 373.904C200.112 373.922 200.064 373.922 200.031 373.922C200.452 373.832 200.872 373.779 201.276 373.725C201.47 373.707 201.664 373.671 201.842 373.653L201.923 373.725C201.826 373.725 201.762 373.743 201.681 373.743ZM203.136 376.165C203.217 376.38 203.298 376.596 203.378 376.811C203.589 377.385 203.815 377.995 204.122 378.551C205.691 381.333 207.518 383.45 209.701 385.029C211.302 386.177 212.741 386.841 214.228 387.11L214.988 387.254C216.282 387.487 217.624 387.738 218.966 387.756C219.257 387.774 219.548 387.792 219.855 387.792C220.987 387.792 222.119 387.649 223.251 387.344C225.483 386.769 227.197 385.693 228.49 384.06C228.619 383.916 228.749 383.773 228.878 383.629C228.991 383.504 229.105 383.378 229.218 383.252C229.396 383.037 229.557 382.84 229.671 382.607C229.735 382.732 229.816 382.858 229.897 382.983C229.638 383.109 229.541 383.342 229.493 383.486C229.476 383.522 229.476 383.558 229.46 383.593C228.7 385.137 227.957 386.68 227.197 388.223C226.695 389.281 226.097 389.999 225.353 390.484C225.224 390.573 225.111 390.663 224.997 390.771L224.917 390.842C224.302 391.381 223.623 391.65 222.944 391.614C222.2 391.578 221.521 391.793 220.826 392.278C220.098 392.798 219.241 393.193 218.206 393.498C216.864 393.911 215.651 393.857 214.487 393.337C213.436 392.87 212.547 392.619 211.657 392.529C210.299 392.404 209.054 391.811 207.922 390.753C206.871 389.766 205.933 389.03 204.995 388.456C204.769 388.312 204.543 388.115 204.316 387.936C203.831 387.523 203.524 387.021 203.395 386.393C203.265 385.729 203.12 385.083 202.958 384.437C202.732 383.522 202.521 382.696 202.295 381.853C202.085 381.135 201.972 380.615 202.198 380.023C202.327 379.718 202.327 379.269 202.198 378.946C202.053 378.551 201.859 378.175 201.664 377.816L201.487 377.475C201.406 377.331 201.276 377.295 201.147 377.277L200.856 377.224L200.775 377.511C200.743 377.6 200.694 377.708 200.71 377.852C200.759 378.103 200.807 378.3 200.872 378.48C201.147 379.144 201.212 379.754 201.082 380.417C201.018 380.812 201.05 381.315 201.212 381.889C201.567 383.145 201.875 384.509 202.182 386.213C202.473 387.756 203.249 388.923 204.527 389.676C205.626 390.34 206.661 391.112 207.68 392.063C208.747 393.032 209.992 393.606 211.383 393.731C212.385 393.821 213.355 394.09 214.39 394.557C215.134 394.898 215.829 395.059 216.492 395.095C216.573 395.095 216.67 395.095 216.751 395.095C218.125 395.095 219.5 394.7 220.939 393.911C221.133 393.803 221.311 393.695 221.489 393.552C221.941 393.229 222.426 393.067 222.928 393.067C222.96 393.067 222.976 393.067 223.009 393.067C224.092 393.067 224.9 392.421 225.402 391.937L225.58 391.775C225.871 391.506 226.178 391.219 226.469 390.878C226.792 390.502 227.116 390.125 227.358 389.676C228.215 388.061 229.024 386.411 229.848 384.778L230.042 384.401C229.606 387.074 228.911 389.192 226.291 391.758C224.706 393.301 222.847 394.395 220.745 395.023C219.015 395.544 217.252 395.849 215.538 395.938C212.563 396.1 209.652 395.221 206.661 393.301C204.818 392.116 203.508 390.52 202.667 388.438C201.664 385.962 201.05 383.898 200.71 381.907C200.436 380.256 200.419 378.498 200.678 376.685L200.824 375.573L201.293 375.483C201.81 375.375 202.279 375.286 202.764 375.16C202.829 375.142 202.926 375.106 203.039 375.07C202.99 375.196 202.958 375.322 202.958 375.465C203.023 375.752 203.071 375.968 203.136 376.165Z" fill="#1A6652"/>
<path d="M244.902 409.396L245.161 410.095C245.468 410.921 245.775 411.764 246.147 412.572C247.021 414.473 248.411 416.035 250.368 417.344C252.437 418.726 254.669 419.551 256.981 419.767C257.822 419.839 258.824 419.928 259.827 419.964C262.495 420.072 264.921 419.821 267.168 419.211C268.268 418.905 269.319 418.529 270.321 418.044C273.135 416.716 275.253 414.527 276.627 411.513C277.581 409.414 278.196 407.135 278.471 404.766C278.762 402.164 278.649 399.635 278.115 397.248C277.889 396.279 277.598 395.131 277.08 394.036C276.611 393.049 276.013 392.152 275.431 391.273L275.237 390.986C275.124 390.807 274.881 390.663 274.655 390.663C274.331 390.645 274.024 390.681 273.749 390.717C273.151 390.789 272.569 390.878 271.954 390.968L271.211 391.076L271.146 391.183C271.033 391.363 270.903 391.524 270.758 391.686C270.499 392.009 270.208 392.35 270.062 392.816L270.014 392.96L270.079 393.085C270.16 393.247 270.273 393.372 270.386 393.462C270.143 393.516 269.917 393.713 269.836 393.982C269.755 394.234 269.707 394.503 269.674 394.772C269.513 395.813 269.303 396.692 268.995 397.463C267.977 400.065 266.732 402.2 265.163 403.995C264.274 405.017 263.336 405.753 262.333 406.256L261.994 406.417C261.735 406.543 261.476 406.668 261.234 406.794C259.148 407.781 257.385 408.355 255.704 408.606C253.294 408.965 251.273 408.642 249.478 407.637C249.09 407.422 248.67 407.224 248.249 407.081C247.975 406.973 247.651 406.919 247.247 406.901C247.118 406.901 246.988 406.955 246.859 407.045C246.81 406.937 246.746 406.83 246.632 406.74C246.519 406.65 246.406 406.614 246.277 406.65C246.067 406.722 245.889 406.866 245.711 407.189C245.646 407.296 245.598 407.404 245.549 407.53C245.452 407.745 245.355 407.96 245.226 408.05C244.595 408.552 244.821 409.18 244.902 409.396ZM274.913 392.762C275.932 394.305 276.611 395.902 276.967 397.625C277.84 401.913 277.42 406.22 275.706 410.382C274.687 412.877 273.086 414.797 270.936 416.088C270.564 416.304 270.176 416.519 269.739 416.734C271.033 415.783 272.229 414.635 273.393 413.235C274.622 411.764 275.431 410.06 275.819 408.158C276.53 404.677 276.692 401.537 276.353 398.558C276.159 396.871 275.706 395.149 275.01 393.444C274.962 393.319 274.913 393.211 274.865 393.067L274.816 392.942L274.913 392.762ZM271.857 392.098L271.922 391.991C272.116 391.973 272.294 391.937 272.488 391.919C272.892 391.865 273.313 391.811 273.733 391.775C273.685 391.793 273.636 391.793 273.588 391.811C273.086 391.865 272.569 391.955 272.084 392.045C272.019 392.063 271.938 392.08 271.857 392.098ZM271.178 394.108C271.162 393.965 271.097 393.839 271.017 393.731C271.146 393.749 271.243 393.749 271.308 393.749C271.793 393.731 272.278 393.695 272.795 393.66L273.28 393.624L273.668 394.646C274.299 396.351 274.671 398.056 274.768 399.742C274.881 401.77 274.719 403.941 274.283 406.614C273.911 408.857 272.989 410.741 271.453 412.392C268.963 415.066 266.327 416.681 263.401 417.309C261.703 417.685 259.94 417.847 258.145 417.793C255.962 417.739 253.925 417.165 252.049 416.088C248.945 414.294 247.813 412.428 246.81 409.952L247.069 410.257C248.217 411.639 249.365 413.002 250.546 414.348C250.869 414.725 251.273 415.012 251.677 415.281C252.049 415.532 252.405 415.73 252.745 415.927L252.955 416.035C253.553 416.375 254.475 416.77 255.526 416.483C255.558 416.483 255.574 416.465 255.607 416.465C256.092 416.34 256.593 416.358 257.11 416.555C257.305 416.627 257.515 416.698 257.725 416.752C259.293 417.147 260.716 417.147 262.042 416.788C262.123 416.77 262.204 416.734 262.285 416.716C262.932 416.519 263.562 416.16 264.209 415.64C265.098 414.922 266.004 414.402 266.942 414.043C268.268 413.54 269.351 412.661 270.176 411.441C270.968 410.257 271.793 409.216 272.731 408.283C273.798 407.207 274.315 405.861 274.25 404.3C274.186 402.559 274.186 401.142 274.267 399.832C274.299 399.222 274.234 398.737 274.073 398.379C273.814 397.768 273.749 397.14 273.862 396.441C273.895 396.243 273.895 396.046 273.895 395.795C273.879 395.651 273.814 395.543 273.765 395.472L273.62 395.203L273.361 395.328C273.248 395.4 273.119 395.454 273.086 395.615L272.989 395.992C272.876 396.387 272.779 396.8 272.714 397.23C272.666 397.571 272.763 398.002 272.957 398.271C273.313 398.773 273.313 399.312 273.264 400.065C273.216 400.944 273.183 401.806 273.167 402.757C273.151 403.421 273.151 404.102 273.167 404.784C273.167 405.412 272.989 405.986 272.601 406.525C272.423 406.758 272.262 407.009 272.068 407.207C271.275 408.014 270.531 408.965 269.723 410.221C268.85 411.549 267.766 412.464 266.473 412.948C265.632 413.253 264.807 413.738 263.902 414.473C262.883 415.281 261.719 415.658 260.328 415.622C259.261 415.586 258.339 415.425 257.531 415.119C256.755 414.832 256.043 414.796 255.332 415.03C254.701 415.245 253.974 415.173 253.262 414.814L253.165 414.761C253.036 414.689 252.89 414.617 252.745 414.581C251.92 414.312 251.192 413.774 250.481 412.877C249.414 411.567 248.363 410.275 247.295 408.983C247.279 408.965 247.263 408.929 247.231 408.893C247.15 408.768 247.004 408.552 246.713 408.498C246.762 408.355 246.794 408.211 246.843 408.068C247.004 408.265 247.198 408.409 247.425 408.57C247.554 408.66 247.7 408.75 247.829 408.839C247.991 408.947 248.152 409.037 248.298 409.162C249.915 410.4 251.807 410.975 254.103 410.957C255.251 410.939 256.383 410.777 257.482 410.49C257.773 410.418 258.048 410.329 258.339 410.221C259.649 409.844 260.894 409.252 262.091 408.678L262.786 408.337C264.177 407.673 265.438 406.65 266.748 405.125C268.526 403.026 269.852 400.478 270.774 397.356C270.952 396.746 271.049 396.1 271.13 395.472C271.162 395.238 271.194 395.005 271.227 394.772C271.227 394.593 271.227 394.359 271.178 394.108Z" fill="#1A6652"/>
<path d="M40.112 330.589L40.3707 331.289C40.678 332.114 40.9852 332.958 41.3571 333.765C42.2303 335.667 43.6209 337.228 45.5774 338.538C47.6471 339.92 49.8786 340.745 52.1908 340.96C53.0317 341.032 54.0342 341.122 55.0367 341.158C57.7047 341.265 60.1302 341.014 62.3616 340.404C63.4612 340.099 64.5122 339.722 65.5147 339.238C68.3283 337.91 70.4465 335.721 71.8209 332.707C72.775 330.607 73.3894 328.328 73.6643 325.96C73.9553 323.358 73.8422 320.828 73.3086 318.442C73.0822 317.473 72.7911 316.324 72.2737 315.23C71.8048 314.243 71.2065 313.346 70.6244 312.467L70.4303 312.18C70.3172 312 70.0746 311.857 69.8482 311.857C69.5248 311.839 69.2176 311.875 68.9427 311.91C68.3444 311.982 67.7623 312.072 67.1479 312.162L66.4041 312.269L66.3394 312.377C66.2262 312.556 66.0968 312.718 65.9513 312.879C65.6926 313.202 65.4015 313.543 65.256 314.01L65.2075 314.153L65.2722 314.279C65.353 314.44 65.4662 314.566 65.5794 314.656C65.3369 314.71 65.1105 314.907 65.0296 315.176C64.9488 315.427 64.9003 315.696 64.8679 315.966C64.7062 317.006 64.496 317.885 64.1888 318.657C63.1701 321.259 61.925 323.394 60.3566 325.188C59.4672 326.211 58.5294 326.947 57.5269 327.449L57.1873 327.611C56.9286 327.736 56.6699 327.862 56.4273 327.987C54.3414 328.974 52.5789 329.549 50.8973 329.8C48.488 330.159 46.4668 329.836 44.6719 328.831C44.2838 328.616 43.8634 328.418 43.443 328.275C43.1681 328.167 42.8447 328.113 42.4405 328.095C42.3111 328.095 42.1818 328.149 42.0524 328.239C42.0039 328.131 41.9392 328.023 41.8422 327.934C41.729 327.844 41.6158 327.808 41.4865 327.844C41.2763 327.916 41.0984 328.059 40.9205 328.382C40.8558 328.49 40.8073 328.598 40.7588 328.723C40.6618 328.938 40.5648 329.154 40.4354 329.243C39.7886 329.746 40.0312 330.392 40.112 330.589ZM70.1069 313.956C71.1256 315.499 71.8048 317.096 72.1605 318.819C73.0337 323.107 72.6133 327.413 70.8993 331.576C69.8806 334.07 68.2798 335.99 66.1292 337.282C65.7573 337.497 65.3692 337.713 64.9326 337.928C66.2262 336.977 67.4228 335.829 68.587 334.429C69.8159 332.958 70.6244 331.253 71.0125 329.351C71.7239 325.87 71.8856 322.73 71.5461 319.752C71.352 318.065 70.8993 316.342 70.204 314.638C70.1555 314.512 70.1069 314.405 70.0584 314.261L70.0099 314.135L70.1069 313.956ZM67.067 313.292L67.1317 313.184C67.3257 313.166 67.5036 313.131 67.6976 313.113C68.1019 313.059 68.5223 313.005 68.9427 312.969C68.8942 312.987 68.8457 312.987 68.7972 313.005C68.2959 313.059 67.7785 313.149 67.2934 313.238C67.2126 313.256 67.1317 313.274 67.067 313.292ZM66.3879 315.302C66.3717 315.158 66.307 315.033 66.2262 314.925C66.3556 314.943 66.4526 314.943 66.5173 314.943C67.0024 314.925 67.4874 314.889 68.0049 314.853L68.49 314.817L68.878 315.84C69.5087 317.545 69.8806 319.249 69.9776 320.936C70.0908 322.963 69.9291 325.135 69.4925 327.808C69.1206 330.051 68.1989 331.935 66.6628 333.586C64.1726 336.259 61.537 337.874 58.6102 338.502C56.9124 338.879 55.1499 339.04 53.3551 338.987C51.1722 338.933 49.1348 338.359 47.2591 337.282C44.1545 335.488 43.0226 333.622 42.0201 331.145L42.2788 331.451C43.4268 332.832 44.5749 334.196 45.7553 335.542C46.0787 335.918 46.4829 336.205 46.8872 336.475C47.2591 336.726 47.6148 336.923 47.9544 337.121L48.1646 337.228C48.7629 337.569 49.6845 337.964 50.7356 337.677C50.7679 337.677 50.7841 337.659 50.8164 337.659C51.3015 337.533 51.8028 337.551 52.3202 337.749C52.5142 337.82 52.7245 337.892 52.9347 337.946C54.5031 338.341 55.9261 338.341 57.252 337.982C57.3328 337.964 57.4137 337.928 57.4945 337.91C58.1413 337.713 58.7719 337.354 59.4187 336.833C60.3081 336.116 61.2136 335.595 62.1514 335.236C63.4773 334.734 64.5607 333.855 65.3854 332.635C66.1777 331.451 67.0024 330.41 67.9402 329.477C69.0074 328.4 69.5248 327.054 69.4602 325.493C69.3955 323.753 69.3955 322.335 69.4763 321.026C69.5087 320.415 69.444 319.931 69.2823 319.572C69.0236 318.962 68.9589 318.334 69.0721 317.634C69.1044 317.437 69.1044 317.24 69.1044 316.988C69.0883 316.845 69.0236 316.737 68.9751 316.665L68.8295 316.396L68.5708 316.522C68.4576 316.594 68.3283 316.647 68.2959 316.809L68.1989 317.186C68.0857 317.58 67.9887 317.993 67.924 318.424C67.8755 318.765 67.9725 319.195 68.1666 319.465C68.5223 319.967 68.5223 320.505 68.4738 321.259C68.4253 322.138 68.3929 322.999 68.3768 323.95C68.3606 324.614 68.3606 325.296 68.3768 325.978C68.3768 326.606 68.1989 327.18 67.8108 327.718C67.633 327.952 67.4713 328.203 67.2772 328.4C66.4849 329.208 65.7411 330.159 64.9326 331.415C64.0595 332.742 62.9761 333.658 61.6825 334.142C60.8417 334.447 60.017 334.931 59.1115 335.667C58.0928 336.475 56.9286 336.851 55.538 336.815C54.4708 336.78 53.5491 336.618 52.7406 336.313C51.9645 336.026 51.253 335.99 50.5415 336.223C49.9109 336.439 49.1833 336.367 48.4718 336.008L48.3748 335.954C48.2454 335.882 48.0999 335.811 47.9544 335.775C47.1297 335.506 46.4021 334.967 45.6906 334.07C44.6234 332.76 43.5724 331.468 42.5052 330.177C42.489 330.159 42.4728 330.123 42.4405 330.087C42.3596 329.961 42.2141 329.746 41.923 329.692C41.9716 329.549 42.0039 329.405 42.0524 329.261C42.2141 329.459 42.4081 329.602 42.6345 329.764C42.7639 329.854 42.9094 329.943 43.0388 330.033C43.2005 330.141 43.3622 330.23 43.5077 330.356C45.1247 331.594 47.0165 332.168 49.3126 332.15C50.4607 332.132 51.5926 331.971 52.6921 331.684C52.9832 331.612 53.2581 331.522 53.5491 331.415C54.8589 331.038 56.1039 330.446 57.3005 329.872L57.9958 329.531C59.3864 328.867 60.6476 327.844 61.9412 326.319C63.7199 324.219 65.0458 321.671 65.9675 318.549C66.1454 317.939 66.2424 317.293 66.3232 316.665C66.3556 316.432 66.3879 316.199 66.4202 315.966C66.4202 315.786 66.4202 315.553 66.3879 315.302Z" fill="#1A6652"/>
<path d="M392.86 318.06C392.792 317.533 392.741 316.988 392.673 316.461C392.537 315.333 392.944 314.505 393.775 313.884C394.232 313.546 394.724 313.282 395.148 312.906C395.707 312.417 396.283 311.89 396.741 311.289C397.199 310.705 397.063 310.179 396.436 309.803C395.69 309.37 394.91 308.975 394.148 308.58C393.758 308.373 393.351 308.223 392.995 307.978C391.978 307.282 391.69 306.53 391.961 305.251C392.08 304.724 392.232 304.216 392.368 303.708C392.605 302.843 392.385 302.11 391.758 301.545C391.148 300.981 390.52 300.473 389.927 299.89C388.927 298.912 387.893 297.972 386.978 296.9C385.079 294.68 384.707 292.084 385.673 289.244C386.232 287.589 387.096 286.893 388.69 286.912C389.724 286.931 390.758 287.006 391.758 287.175C393.69 287.514 395.605 287.439 397.538 287.081C398.436 286.912 399.334 286.818 400.25 286.799C401.724 286.762 402.962 287.363 403.877 288.718C404.199 289.207 404.538 289.677 404.843 290.185C406.589 293.025 409.047 294.548 412.098 295.019C413.234 295.207 414.386 295.395 415.505 295.696C417.81 296.317 418.725 297.727 418.556 299.947C418.539 300.078 418.556 300.21 418.539 300.342C418.454 301.602 418.776 302.73 419.437 303.746C419.691 304.122 419.929 304.517 420.132 304.931C420.98 306.68 420.624 308.053 419.081 308.994C418.658 309.257 418.2 309.445 417.759 309.652C417.081 309.953 416.386 310.179 415.708 310.499C415.217 310.743 414.657 310.988 414.335 311.42C413.522 312.511 412.454 313.094 411.352 313.659C410.318 314.204 409.25 314.712 408.216 315.276C405.233 316.931 402.826 319.358 400.877 322.348C400.758 322.536 400.504 322.725 400.86 323.063C401.47 322.743 402.131 322.442 402.775 322.085C405.877 320.373 408.945 318.643 412.047 316.969C415.708 314.975 419.183 312.68 422.149 309.521C423.692 307.884 425.471 306.605 427.438 305.646C427.811 305.458 428.15 305.194 428.522 304.95C428.641 303.953 428.285 303.182 427.912 302.411C427.573 301.696 427.2 301 426.946 300.248C426.692 299.533 426.675 298.686 427.285 298.216C428.251 297.483 428.455 296.429 428.59 295.263C428.692 294.398 428.861 293.533 429.082 292.705C429.539 291.031 430.607 290.166 432.184 290.11C432.607 290.091 433.031 290.128 433.455 290.185C434.167 290.298 434.896 290.41 435.608 290.599C436.896 290.956 438.015 290.617 438.998 289.696C439.642 289.094 440.269 288.454 440.862 287.796C442.184 286.31 443.439 284.768 444.795 283.319C446.507 281.514 448.252 279.746 450.049 278.053C451.337 276.83 452.778 275.833 454.337 275.043C455.338 274.536 456.371 274.159 457.473 274.122C459.507 274.065 460.778 275.457 460.778 277.714C460.778 279.087 460.389 280.366 459.897 281.589C458.66 284.617 457.016 287.345 454.965 289.752C453.337 291.652 451.592 293.42 449.93 295.282C449.71 295.527 449.252 295.696 449.49 296.335C450.914 295.827 452.371 295.338 453.778 294.774C456.287 293.758 458.761 292.668 461.253 291.633C462.338 291.182 463.423 290.768 464.524 290.429C465.219 290.222 465.965 290.11 466.677 290.147C468.389 290.279 469.338 291.896 468.881 293.74C468.694 294.473 468.321 295.094 467.796 295.564C467.338 295.997 466.847 296.411 466.321 296.73C464.558 297.765 462.762 298.743 460.965 299.721C460.05 300.229 459.083 300.661 458.168 301.169C457.524 301.545 456.897 301.978 456.693 302.975C456.88 303.219 457.083 303.577 457.338 303.821C458.066 304.536 458.846 305.176 459.575 305.89C460.355 306.643 461.05 307.489 461.49 308.542C462.253 310.329 461.982 311.796 460.609 313.019C460.05 313.527 459.422 313.941 458.778 314.336C455.507 316.329 452.032 317.665 448.337 318.267C444.557 318.887 440.845 319.903 437.201 321.126C428.794 323.947 420.403 326.825 412.115 330.06C409.03 331.264 405.86 332.185 402.724 333.22C401.097 333.747 399.453 334.198 397.826 334.725C397.504 334.819 397.216 335.044 396.826 335.27C397.233 336.53 397.639 337.64 397.978 338.787C398.317 339.916 398.606 341.082 398.928 342.324C399.334 342.267 399.673 342.173 400.029 342.154C401.47 342.098 402.945 341.891 404.369 342.041C408.352 342.436 412.301 343.208 416.166 344.298C419.098 345.126 421.997 346.104 424.895 347.12C431.828 349.565 438.845 351.69 445.93 353.477C447.557 353.891 449.219 354.23 451.117 354.249C450.863 353.835 450.761 353.515 450.558 353.327C449.778 352.575 448.981 351.86 448.185 351.126C447.863 350.825 447.49 350.581 447.201 350.242C446.557 349.527 446.693 348.531 447.507 348.06C447.879 347.835 448.303 347.759 448.693 347.59C448.93 347.496 449.151 347.346 449.524 347.158C448.727 346.781 448.083 346.556 447.524 346.198C446.473 345.521 446.337 344.28 447.185 343.32C447.608 342.85 448.117 342.436 448.642 342.135C449.727 341.534 450.846 341.026 451.947 340.443C452.185 340.311 452.371 340.085 452.642 339.878C451.981 339.483 451.439 339.22 450.93 338.844C449.913 338.073 449.608 336.869 450.219 335.665C450.541 335.044 450.998 334.461 451.49 333.991C452.456 333.088 453.524 332.298 454.524 331.433C456.151 330.022 457.795 328.649 459.355 327.163C460.846 325.772 462.067 324.098 463.101 322.254C463.202 322.066 463.253 321.822 463.406 321.351C461.863 321.916 460.575 322.48 459.304 323.101C453.609 325.903 448.642 329.703 445.235 335.684C444.727 336.587 444.1 337.433 443.405 338.186C441.693 340.029 439.489 340.349 437.37 339.088C436.845 338.769 436.353 338.374 435.862 337.979C435.167 337.414 434.455 336.963 433.624 336.7C432.997 336.493 432.438 336.079 431.862 335.703C431.455 335.421 431.099 335.044 430.692 334.744C429.878 334.123 429.285 334.198 428.641 335.026C428.251 335.533 427.912 336.098 427.556 336.643C426.811 337.753 425.777 338.28 424.556 338.223C423.658 338.186 422.742 338.035 421.861 337.791C418.115 336.756 414.335 336.436 410.505 336.756C408.877 336.888 407.25 337.057 405.623 337.17C404.843 337.226 404.047 337.245 403.267 337.245C402.979 337.245 402.674 337.151 402.385 337.038C402.046 336.907 401.928 336.286 402.182 336.023C402.402 335.797 402.64 335.552 402.911 335.477C403.555 335.289 404.199 335.12 404.86 335.044C406.962 334.8 409.081 334.555 411.183 334.405C414.759 334.123 418.319 334.292 421.827 335.195C422.471 335.364 423.132 335.458 423.793 335.571C424.59 335.722 425.217 335.458 425.675 334.687C426.014 334.123 426.37 333.577 426.777 333.088C428.065 331.546 429.963 331.301 431.557 332.43C431.912 332.674 432.235 333.013 432.607 333.22C433.082 333.483 433.607 333.803 434.116 333.822C435.15 333.859 435.981 334.33 436.794 334.932C437.235 335.27 437.692 335.628 438.184 335.872C439.387 336.512 440.082 336.305 440.811 335.082C441.303 334.236 441.761 333.37 442.184 332.468C443.083 330.511 444.354 328.95 445.778 327.464C450.795 322.254 456.965 319.546 463.338 317.251C463.677 317.119 464.05 317.063 464.406 317.025C464.762 317.007 465.135 317.007 465.491 317.082C466.948 317.401 467.694 318.587 467.338 320.185C467.118 321.145 466.762 322.104 466.321 322.969C464.236 327.088 461.202 330.267 457.863 333.107C456.761 334.048 455.592 334.913 454.473 335.816C454.202 336.041 453.982 336.342 453.659 336.7C454.236 336.963 454.693 337.151 455.117 337.396C455.66 337.678 456.236 337.941 456.727 338.336C457.846 339.258 457.795 340.856 456.643 341.722C456.253 342.023 455.795 342.229 455.338 342.418C453.965 342.963 452.592 343.471 451.219 344.035C450.846 344.186 450.388 344.186 450.134 344.844C450.575 345.032 450.998 345.22 451.439 345.371C452.185 345.634 452.965 345.841 453.71 346.104C454.27 346.311 454.609 346.763 454.676 347.44C454.727 347.966 454.371 348.474 453.71 348.737C453.253 348.926 452.778 349.057 452.303 349.151C451.592 349.283 450.863 349.358 450.151 349.49C449.829 349.546 449.524 349.678 449.083 349.81C449.947 350.618 450.744 351.258 451.422 352.01C451.964 352.612 452.473 353.327 452.812 354.079C453.202 354.944 452.744 355.904 451.897 356.111C451.32 356.261 450.693 356.28 450.1 356.261C446.812 356.167 443.608 355.434 440.421 354.606C433.997 352.932 427.641 350.882 421.353 348.662C416.149 346.819 410.81 345.559 405.436 344.562C403.826 344.261 402.182 344.223 400.555 344.148C399.979 344.129 399.334 344.054 398.877 344.43C398.419 346.123 398.131 347.778 397.538 349.321C396.775 351.352 395.843 353.327 394.877 355.283C393.334 358.405 391.181 360.945 388.486 362.863C383.74 366.249 378.638 368.675 372.994 369.371C368.655 369.917 364.333 370.424 359.976 370.838C354.535 371.384 349.077 371.29 343.636 371.196C327.297 370.913 310.957 370.556 294.617 370.199C285.532 369.992 276.463 369.653 267.378 369.54C255.683 369.371 244.021 368.788 232.427 367.076C228.766 366.531 225.122 365.835 221.596 364.518C220.223 364.01 218.867 363.39 217.596 362.637C216.646 362.073 215.748 361.34 214.985 360.512C213.714 359.12 213.663 357.352 214.765 355.772C215.206 355.133 215.731 354.549 216.307 354.079C217.223 353.327 218.189 352.612 219.189 351.973C221.443 350.506 223.85 349.358 226.342 348.531C230.461 347.139 234.563 345.728 238.732 344.581C249.665 341.571 260.564 338.43 271.412 335.007C280.904 332.016 290.481 329.345 300.024 326.505C305.007 325.038 310.008 323.721 315.076 322.668C322.584 321.126 330.093 319.621 337.585 318.06C344.382 316.649 351.196 315.521 358.078 314.825C361.163 314.505 364.231 314.411 367.333 314.618C369.079 314.731 370.841 314.712 372.587 314.768C375.553 314.862 378.52 314.956 381.384 315.916C382.571 315.163 382.706 315.126 383.91 315.577C386.741 316.63 389.114 318.417 390.978 321.013C391.385 321.577 391.792 322.141 392.351 322.931C393.114 320.355 393.131 320.091 392.86 318.06ZM218.477 359.609C220.681 360.945 223.071 361.659 225.528 362.205C232.02 363.615 238.597 364.161 245.19 364.631C252.682 365.177 260.191 365.402 267.7 365.384C277.633 365.346 287.549 365.873 297.481 366.117C315.821 366.587 334.144 367.152 352.501 367.058C359.671 367.02 366.756 366.192 373.842 365.045C378.876 364.236 383.3 361.772 387.368 358.481C389.724 356.581 391.283 353.929 392.639 351.126C393.436 349.471 394.131 347.741 394.605 345.935C395.08 344.054 395.063 342.23 394.385 340.405C392.859 336.305 391.537 332.11 390.334 327.878C389.537 325.057 388.046 322.706 386.046 320.768C384.91 319.659 383.723 318.624 382.503 317.496C382.164 317.74 381.876 318.079 381.52 318.21C381.198 318.323 380.808 318.21 380.452 318.192C379.91 318.173 379.367 318.192 378.825 318.173C377.859 318.154 376.893 318.135 375.926 318.116C374.469 318.097 373.028 318.097 371.57 318.079C370.536 318.079 369.519 318.097 368.485 318.041C365.265 317.815 362.078 318.003 358.892 318.436C349.145 319.734 339.518 321.784 329.89 323.928C329.5 324.022 329.11 324.135 328.585 324.286C328.958 325.057 329.297 325.678 329.585 326.317C329.856 326.919 330.093 327.54 330.348 328.141C330.907 329.515 331.178 330.963 331.178 332.449C331.178 333.032 331.06 333.653 330.924 334.217C330.788 334.762 330.043 334.856 329.754 334.367C329.5 333.916 329.28 333.427 329.127 332.919C328.568 331.076 328.025 329.214 327.5 327.352C327.246 326.468 327.008 325.565 326.737 324.605C326.212 324.681 325.737 324.756 325.263 324.831C316.245 326.524 307.312 328.706 298.498 331.433C290.04 334.048 281.497 336.342 273.022 338.882C266.7 340.762 260.361 342.549 253.954 344.016C253.496 344.129 253.038 344.28 252.428 344.449C252.818 345.013 253.14 345.465 253.411 345.935C253.665 346.386 253.886 346.875 254.089 347.364C254.31 347.91 254.496 348.493 254.699 349.057C254.869 349.565 255.021 350.073 255.174 350.581C255.344 351.164 255.496 351.728 255.666 352.311C256.174 354.136 256.327 356.017 256.157 357.897C256.072 358.744 255.835 359.59 255.598 360.418C255.462 360.907 254.954 361.189 254.598 361.095C254.191 361.001 254.004 360.662 253.92 360.249C253.835 359.854 253.818 359.459 253.767 359.045C253.547 357.183 253.377 355.302 253.072 353.459C252.75 351.54 252.326 349.659 251.903 347.759C251.682 346.8 251.343 345.86 251.055 344.919C250.936 344.882 250.818 344.788 250.716 344.806C244.021 346.405 237.326 347.929 230.749 350.111C228.715 350.788 226.698 351.521 224.715 352.311C222.647 353.12 220.715 354.249 218.901 355.622C218.104 356.224 217.308 356.844 216.867 357.841C217.07 358.8 217.799 359.195 218.477 359.609ZM456.27 277.583C455.134 278.203 453.965 278.805 452.965 279.652C451.236 281.119 449.591 282.718 447.998 284.354C446.574 285.802 445.286 287.42 443.896 288.925C442.947 289.959 441.981 290.994 440.947 291.915C439.32 293.382 437.472 294.041 435.353 293.533C434.591 293.345 433.794 293.288 433.014 293.213C432.777 293.194 432.54 293.288 432.336 293.326C431.777 293.928 431.794 294.699 431.692 295.414C431.489 297.031 431.201 298.592 430.099 299.853C430.302 300.398 430.523 300.868 430.675 301.376C430.912 302.204 431.218 303.031 431.285 303.897C431.438 305.702 430.862 307.188 429.404 308.147C429.031 308.392 428.675 308.618 428.302 308.843C426.861 309.709 425.488 310.706 424.302 311.966C421.251 315.201 417.708 317.646 413.962 319.753C409.81 322.104 405.623 324.38 401.47 326.731C400.182 327.464 398.928 328.273 397.656 329.063C396.911 329.533 396.165 329.966 395.199 329.665C395.148 330.681 395.639 331.395 395.826 332.317C396.165 332.204 396.402 332.185 396.589 332.073C398.521 330.906 400.572 330.135 402.64 329.345C406.47 327.859 410.284 326.355 414.115 324.85C416.793 323.797 419.471 322.687 422.166 321.709C427.065 319.922 431.963 318.229 436.879 316.499C440.523 315.201 444.218 314.26 448.066 314.035C451.693 313.828 455.049 312.511 458.287 310.724C458.456 310.63 458.609 310.517 458.744 310.405C458.829 310.329 458.897 310.198 458.965 310.085C458.812 309.238 458.253 308.693 457.727 308.166C456.965 307.395 456.151 306.699 455.388 305.947C453.592 304.216 453.405 302.129 454.982 300.135C455.575 299.401 456.338 298.78 457.1 298.273C457.982 297.69 458.948 297.276 459.88 296.787C461.287 296.034 462.694 295.282 464.152 294.492C463.813 294.041 463.558 294.323 463.321 294.417C460.931 295.395 458.575 296.448 456.168 297.351C453.015 298.536 449.829 299.608 446.642 300.699C446.184 300.85 445.693 301 445.218 300.981C443.811 300.981 442.998 299.627 443.557 298.197C443.811 297.539 444.218 296.9 444.659 296.373C445.642 295.188 446.676 294.059 447.727 292.95C449.303 291.276 450.947 289.677 452.507 288.003C454.304 286.066 455.778 283.865 456.948 281.42C457.507 280.235 458.016 279.012 458.05 277.601C457.27 277.075 456.727 277.319 456.27 277.583ZM388.944 294.812C389.554 295.639 390.266 296.392 390.961 297.106C391.673 297.84 392.402 298.536 393.165 299.194C394.775 300.605 395.266 302.411 394.724 304.574C394.673 304.762 394.622 304.969 394.588 305.157C394.571 305.288 394.571 305.42 394.571 305.646C394.843 306.154 395.385 306.304 395.86 306.549C396.622 306.962 397.402 307.32 398.131 307.79C399.385 308.618 399.792 309.859 399.402 311.401C399.08 312.699 398.317 313.64 397.402 314.448C396.69 315.069 395.944 315.615 395.182 316.217C395.249 318.041 395.826 319.809 395.402 321.634C395.029 323.308 394.877 325.057 394.385 326.768C394.521 326.599 394.707 326.468 394.809 326.279C396.012 324.192 397.131 322.029 398.402 319.997C400.911 315.991 404.182 312.981 408.233 311.044C409.013 310.668 409.776 310.273 410.572 309.934C411.25 309.633 411.827 309.22 412.403 308.693C413.081 308.072 413.928 307.621 414.742 307.207C415.556 306.793 416.42 306.492 417.318 306.097C416.793 304.893 416.217 303.859 415.895 302.712C415.59 301.64 415.573 300.492 415.437 299.326C414.556 298.837 413.589 298.781 412.657 298.536C411.183 298.141 409.708 297.784 408.284 297.238C406.47 296.542 404.996 295.263 403.758 293.646C403.131 292.837 402.521 291.99 401.962 291.106C401.419 290.241 400.707 289.903 399.775 290.015C399.233 290.091 398.69 290.091 398.148 290.185C395.792 290.599 393.453 290.523 391.097 290.166C390.317 290.053 389.537 290.016 388.639 289.921C387.758 291.802 387.876 293.363 388.944 294.812Z" fill="#1A6652"/>
<path d="M303.262 364.123C303.94 364.18 304.55 364.255 305.143 364.292C306.838 364.368 308.533 364.499 310.228 364.499C311.432 364.499 312.652 364.386 313.838 364.236C318.94 363.559 324.042 362.712 329.161 362.167C341.45 360.85 353.756 359.816 366.062 358.969C369.316 358.744 372.57 358.424 375.825 358.029C377.384 357.841 378.927 357.465 380.435 356.957C382.69 356.205 384.588 354.756 385.961 352.593C386.741 351.371 387.351 350.054 387.317 348.493C387.317 348.154 387.266 347.816 387.198 347.496C387.063 346.932 386.385 346.762 386.046 347.214C385.808 347.515 385.622 347.872 385.486 348.23C384.419 351.183 382.401 353.007 379.757 353.985C378.435 354.474 377.062 354.775 375.706 355.057C369.638 356.374 363.502 357.126 357.366 357.803C348.044 358.838 338.721 359.966 329.365 360.681C324.534 361.057 319.703 361.151 314.872 360.606C311.703 360.248 308.584 360.606 305.482 361.227C305.007 361.321 304.533 361.452 304.075 361.622C303.736 361.753 303.397 361.922 303.109 362.148C302.77 362.43 302.431 362.825 302.617 363.333C302.702 363.653 303.041 363.879 303.262 364.123Z" fill="#1A6652"/>
<path d="M344.687 347.27C344.84 345.954 345.043 344.825 345.094 343.697C345.28 339.878 344.738 336.192 343.416 332.656C342.839 331.095 342.246 329.552 341.619 328.029C341.348 327.352 341.009 326.712 340.653 326.091C340.466 325.772 340.178 325.471 339.89 325.264C339.568 325.019 339.195 325.057 338.856 325.283C338.5 325.527 338.382 325.884 338.483 326.317C338.551 326.637 338.653 326.957 338.738 327.276C339.958 331.433 340.738 335.722 341.45 340.01C341.873 342.53 342.111 345.051 342.009 347.628C341.992 348.154 342.043 348.7 342.161 349.208C342.314 349.828 343.161 350.054 343.484 349.546C343.975 348.813 344.348 347.966 344.687 347.27Z" fill="#1A6652"/>
<path d="M308.889 353.853C308.922 352.649 309.024 351.446 308.956 350.261C308.787 346.819 308.041 343.508 306.855 340.329C306.109 338.354 305.278 336.417 304.431 334.48C304.176 333.878 303.804 333.332 303.414 332.825C303.176 332.505 302.77 332.43 302.414 332.636C302.058 332.825 301.854 333.163 301.939 333.615C302.058 334.198 302.176 334.781 302.346 335.364C304.041 341.383 305.448 347.477 306.075 353.759C306.109 354.154 306.194 354.549 306.312 354.925C306.465 355.396 306.753 355.753 307.227 355.753C307.668 355.772 308.041 355.546 308.278 355.113C308.363 354.944 308.465 354.775 308.533 354.587C308.617 354.342 308.685 354.079 308.753 353.816C308.821 353.834 308.855 353.853 308.889 353.853Z" fill="#1A6652"/>
<path d="M290.939 361.509C290.244 361.001 289.583 360.963 288.938 360.832C284.718 359.929 280.463 359.496 276.175 359.327C273.395 359.214 270.632 359.12 267.853 359.045C267.259 359.026 266.649 359.12 266.056 359.233C265.649 359.308 265.429 359.722 265.497 360.136C265.53 360.418 265.768 360.756 266.005 360.888C266.429 361.114 266.92 361.246 267.395 361.321C269.242 361.641 271.09 361.847 272.972 361.791C276.158 361.697 279.362 361.641 282.565 361.678C284.43 361.697 286.294 361.979 288.159 362.073C288.871 362.111 289.6 362.036 290.311 361.96C290.498 361.96 290.667 361.716 290.939 361.509Z" fill="#1A6652"/>
<path d="M369.13 322.48C368.418 322.179 367.757 322.649 367.825 323.289C367.876 323.891 368.045 324.474 368.198 325.038C368.757 327.088 369.368 329.138 369.893 331.207C370.469 333.483 370.893 335.778 370.825 338.148C370.825 338.28 370.825 338.411 370.842 338.543C370.893 338.919 371.08 339.201 371.402 339.239C371.673 339.277 372.012 339.239 372.232 339.07C372.453 338.9 372.639 338.562 372.724 338.261C372.859 337.753 372.978 337.208 372.995 336.681C373.029 332.825 372.639 329.026 371.147 325.471C370.791 324.624 370.3 323.853 369.808 323.082C369.605 322.8 369.266 322.612 369.13 322.48Z" fill="#1A6652"/>
<path d="M280.65 350.675C280.955 349.17 281.125 347.684 280.921 346.236C280.65 344.336 280.21 342.437 279.735 340.593C279.565 339.935 279.108 339.314 278.684 338.769C278.345 338.336 277.65 338.43 277.413 338.863C277.277 339.126 277.175 339.521 277.243 339.784C278.057 342.963 278.04 346.274 278.515 349.49C278.599 350.073 278.667 350.694 278.854 351.239C278.938 351.502 279.243 351.747 279.515 351.841C279.887 351.973 280.21 351.709 280.413 351.333C280.515 351.145 280.582 350.882 280.65 350.675Z" fill="#1A6652"/>
<path d="M365.079 330.756C365.485 330.85 365.977 330.605 366.113 330.154C366.231 329.721 366.384 329.195 366.282 328.8C365.723 326.524 365.062 324.285 363.723 322.405C363.502 322.085 363.214 321.821 362.943 321.577C362.604 321.257 362.197 321.126 361.756 321.351C361.451 321.521 361.35 322.066 361.519 322.63C361.638 323.006 361.773 323.383 361.926 323.759C362.316 324.662 362.723 325.564 363.112 326.486C363.553 327.577 364.214 328.555 364.248 329.834C364.265 330.304 364.621 330.643 365.079 330.756Z" fill="#1A6652"/>
<path d="M325.347 334.63C325.364 334.442 325.466 334.104 325.449 333.784C325.398 332.223 325.212 330.699 324.703 329.251C324.567 328.856 324.245 328.48 323.906 328.216C323.483 327.878 322.788 328.273 322.839 328.818C322.991 330.68 323.195 332.561 323.381 334.423C323.398 334.611 323.5 334.8 323.567 334.988C323.737 335.383 324.025 335.608 324.415 335.646C324.805 335.646 325.144 335.307 325.347 334.63Z" fill="#1A6652"/>
<path d="M299.21 344.016C299.125 344.411 298.956 344.863 298.973 345.295C299.075 347.496 299.21 349.697 299.38 351.897C299.414 352.349 299.583 352.8 299.753 353.214C299.888 353.534 300.549 353.553 300.702 353.233C300.888 352.819 301.109 352.368 301.092 351.935C301.041 349.528 300.787 347.139 300.193 344.788C300.075 344.355 299.871 343.922 299.21 344.016Z" fill="#1A6652"/>
<path d="M237.528 351.145C237.495 351.371 237.393 351.634 237.427 351.879C237.63 353.27 237.85 354.644 238.105 356.017C238.173 356.412 238.291 356.788 238.461 357.145C238.834 357.86 239.749 357.841 240.088 357.108C240.24 356.769 240.393 356.318 240.342 355.96C240.122 354.512 239.834 353.064 239.122 351.785C238.783 351.183 238.291 350.825 237.528 351.145Z" fill="#1A6652"/>
<path d="M271.429 346.913C271.412 347.251 271.345 347.571 271.379 347.872C271.548 349.584 271.734 351.314 271.955 353.026C272.006 353.421 272.311 353.759 272.718 353.759C273.107 353.759 273.396 353.496 273.514 353.063C273.582 352.819 273.667 352.537 273.667 352.292C273.65 350.75 273.463 349.226 272.904 347.816C272.65 347.157 272.243 346.687 271.429 346.913Z" fill="#1A6652"/>
<path d="M340.546 254.33C340.546 261.077 339.398 267.626 337.765 274.086C337.393 275.557 336.957 277.011 336.456 278.428C332.672 288.943 325.218 294.685 315.677 297.143C307.641 299.206 299.621 298.435 291.827 295.097C285.602 292.442 281.349 287.543 278.519 281.048C277.743 279.271 277.371 277.262 276.967 275.306C276.401 272.65 277.371 270.623 279.425 269.241C280.298 268.649 281.236 268.147 282.174 267.644C287.461 264.845 292.749 262.082 298.02 259.265C307.091 254.42 316.017 249.235 324.781 243.708C327.255 242.147 329.729 240.604 332.494 239.76C333.238 239.527 333.998 239.294 334.758 239.276C335.324 239.258 335.954 239.455 336.472 239.725C337.151 240.101 337.798 240.604 338.364 241.16C338.784 241.591 339.14 242.165 339.382 242.757C340.417 245.341 340.724 248.068 340.708 250.867C340.676 252.034 340.595 253.182 340.546 254.33ZM284.761 270.928C284.906 271.556 285.019 272.202 285.23 272.812C285.893 274.696 286.928 276.347 288.108 277.872C290.226 280.599 292.959 282.376 295.789 284.062C299.006 285.982 302.353 286.736 305.976 286.538C309.598 286.341 312.864 285.157 315.888 282.896C317.99 281.317 319.607 279.218 321.45 277.351C323.956 274.821 325.492 271.699 326.479 268.165C328.193 261.974 328.726 255.658 328.371 249.199C326.802 249.468 322.792 251.442 318.992 253.846C318.814 253.954 318.75 254.277 318.588 254.564C319.396 254.833 320.14 255.066 320.852 255.335C323.52 256.376 325.088 258.691 325.218 261.759C325.315 263.84 324.005 265.204 322.113 264.917C321.353 264.809 320.609 264.486 319.865 264.289C319.477 264.181 319.073 264.127 318.297 263.966C318.83 264.845 319.154 265.347 319.461 265.886C320.124 267.034 320.512 268.308 320.577 269.654C320.625 270.838 319.865 271.663 318.814 271.61C317.375 271.538 316.13 270.982 315.241 269.654C315.176 269.546 315.257 269.313 315.305 268.918C316.34 269.133 317.375 269.349 318.556 269.6C318.539 269.044 318.62 268.631 318.491 268.344C318.151 267.59 317.747 266.855 317.294 266.155C316.89 265.545 316.373 265.024 315.936 264.432C315.483 263.822 315.192 263.105 315.564 262.333C315.952 261.526 316.712 261.508 317.375 261.579C318.313 261.687 319.235 261.938 320.156 262.136C320.981 262.315 321.79 262.692 322.663 262.459C322.727 262.064 322.841 261.795 322.808 261.544C322.566 259.57 321.628 258.242 319.865 257.596C318.41 257.076 316.987 256.448 315.419 255.82C310.471 258.35 305.377 260.898 300.332 263.553C298.942 264.289 297.874 265.563 296.791 267.303C297.551 267.178 297.939 267.07 298.343 267.034C300.009 266.926 300.931 267.734 301.238 269.528C301.432 270.712 301.173 271.807 300.623 272.812C300.219 273.548 299.718 274.211 299.314 274.947C299.071 275.396 298.958 275.916 298.618 276.885C299.378 276.544 299.847 276.49 300.074 276.203C301.044 275.001 301.965 273.745 302.887 272.489C303.421 271.753 303.857 270.91 304.439 270.21C305.086 269.421 305.83 269.187 306.25 269.51C306.849 269.977 306.687 270.695 306.735 271.34C306.8 272.309 306.461 273.314 306.849 274.839C308.223 270.623 307.835 266.675 308.401 262.441C308.838 263.176 309.226 263.517 309.242 263.894C309.387 266.855 309.549 269.833 308.805 272.722C308.547 273.709 308.11 274.66 307.673 275.593C307.415 276.131 306.913 276.383 306.347 276.257C305.749 276.113 305.587 275.539 305.539 274.947C305.507 274.481 305.571 273.996 305.523 273.512C305.49 273.117 305.83 272.597 305.151 272.22C304.844 272.776 304.536 273.332 304.229 273.87C303.599 275.001 303.065 276.221 302.305 277.262C301.674 278.141 300.85 278.877 300.009 279.523C299.637 279.828 299.022 279.953 298.554 279.881C296.759 279.612 295.481 277.674 295.918 275.719C296.16 274.624 296.678 273.601 297.131 272.579C297.373 272.004 297.713 271.466 298.23 270.533C297.535 270.695 297.228 270.784 296.92 270.838C296.581 270.91 296.241 270.982 295.902 271C293.978 271.125 293.25 270.336 293.266 268.182C293.266 267.842 293.266 267.483 293.266 266.98C290.566 268.147 288.011 269.259 285.456 270.372C285.246 270.479 285.068 270.695 284.761 270.928ZM280.346 272.309C280.233 273.781 280.799 275.091 281.252 276.4C283.629 283.38 287.768 288.404 294.22 290.97C299.669 293.141 305.248 293.752 310.988 293.159C315.548 292.693 319.704 291.114 323.52 288.315C326.915 285.821 329.551 282.609 331.119 278.446C332.106 275.808 333.011 273.099 333.626 270.336C335.081 263.93 335.744 257.381 335.938 250.778C336.003 248.786 335.825 246.776 335.728 244.767C335.728 244.623 335.55 244.48 335.356 244.174C333.998 244.892 332.801 245.933 331.54 246.992C331.572 247.494 331.54 247.978 331.653 248.427C332.122 250.203 332.138 252.016 332.009 253.828C331.621 259.677 330.537 265.33 328.597 270.802C327.368 274.247 325.573 277.208 322.97 279.558C321.903 280.509 320.916 281.586 319.865 282.591C314.594 287.633 308.401 289.302 301.593 288.602C298.505 288.297 295.837 286.664 293.234 285.031C288.447 282.017 284.728 277.944 283.273 271.807C283.257 271.717 283.16 271.663 283.031 271.502C282.157 271.502 281.252 271.663 280.346 272.309Z" fill="#1A6652"/>
<path d="M314.109 273.978C314.125 274.678 313.397 275.414 312.75 275.378C311.651 275.324 310.616 274.319 310.438 273.117C310.325 272.327 310.81 271.574 311.505 271.484C312.734 271.322 314.093 272.614 314.109 273.978Z" fill="#1A6652"/>
<path d="M326.237 254.133C326.285 254.779 325.8 255.533 325.283 255.587C324.717 255.64 324.199 255.084 324.134 254.348C324.086 253.756 324.426 253.218 324.943 253.11C325.59 252.985 326.172 253.451 326.237 254.133Z" fill="#1A6652"/>
<path d="M62.8463 239.294C62.8301 236.495 63.1535 233.768 64.1722 231.184C64.4147 230.592 64.7543 230.018 65.1909 229.587C65.7568 229.013 66.4036 228.528 67.0828 228.152C67.6002 227.864 68.2308 227.667 68.7967 227.703C69.5567 227.739 70.3167 227.972 71.0605 228.187C73.8255 229.031 76.2995 230.574 78.7735 232.135C87.5375 237.661 96.447 242.829 105.534 247.692C110.806 250.509 116.109 253.272 121.381 256.071C122.319 256.556 123.257 257.058 124.13 257.668C126.167 259.068 127.137 261.077 126.587 263.733C126.183 265.671 125.811 267.698 125.035 269.475C122.205 275.988 117.953 280.869 111.727 283.524C103.934 286.862 95.9134 287.633 87.8771 285.57C78.3531 283.111 70.8826 277.37 67.0989 266.855C66.5815 265.437 66.1611 263.984 65.7892 262.513C64.1399 256.053 62.9918 249.504 63.008 242.757C62.9433 241.573 62.8624 240.443 62.8463 239.294ZM118.05 258.781C115.495 257.668 112.94 256.556 110.24 255.389C110.24 255.91 110.24 256.251 110.24 256.591C110.272 258.745 109.545 259.534 107.604 259.409C107.265 259.391 106.925 259.301 106.585 259.247C106.278 259.193 105.971 259.104 105.276 258.942C105.777 259.875 106.117 260.413 106.375 260.988C106.812 262.01 107.345 263.033 107.588 264.128C108.008 266.083 106.747 268.039 104.952 268.29C104.483 268.362 103.869 268.237 103.497 267.932C102.672 267.268 101.832 266.55 101.201 265.671C100.457 264.63 99.9074 263.428 99.2767 262.279C98.9695 261.741 98.6623 261.185 98.3551 260.629C97.6759 261.006 98.0155 261.508 97.9832 261.921C97.9508 262.387 97.9993 262.872 97.967 263.356C97.9347 263.948 97.773 264.522 97.1585 264.666C96.5926 264.809 96.0913 264.54 95.8326 264.002C95.396 263.087 94.9594 262.136 94.7007 261.131C93.9569 258.242 94.1186 255.264 94.2641 252.303C94.2803 251.926 94.6684 251.585 95.105 250.85C95.6709 255.084 95.2666 259.032 96.6572 263.248C97.0292 261.723 96.6896 260.718 96.7704 259.749C96.8189 259.104 96.6572 258.386 97.2555 257.919C97.6598 257.596 98.4036 257.812 99.0665 258.619C99.6487 259.319 100.085 260.162 100.619 260.898C101.541 262.154 102.462 263.41 103.432 264.612C103.659 264.899 104.112 264.953 104.888 265.294C104.548 264.343 104.435 263.805 104.192 263.356C103.804 262.62 103.303 261.956 102.883 261.221C102.317 260.216 102.058 259.121 102.268 257.937C102.559 256.143 103.481 255.335 105.163 255.443C105.567 255.461 105.971 255.587 106.715 255.712C105.615 253.972 104.564 252.698 103.174 251.962C98.1287 249.307 93.0352 246.741 88.0873 244.229C86.5188 244.857 85.0959 245.485 83.6406 246.005C81.8781 246.633 80.9564 247.979 80.6977 249.952C80.6654 250.204 80.7785 250.491 80.8432 250.868C81.7326 251.101 82.541 250.724 83.3495 250.545C84.2712 250.347 85.2091 250.096 86.1307 249.988C86.8099 249.917 87.5537 249.952 87.9417 250.742C88.3136 251.531 88.0226 252.231 87.5698 252.841C87.1333 253.433 86.6158 253.954 86.2116 254.564C85.7588 255.246 85.3546 255.981 85.015 256.753C84.8857 257.04 84.9665 257.453 84.9503 258.009C86.1307 257.758 87.1656 257.542 88.2005 257.327C88.2328 257.722 88.3298 257.955 88.2651 258.063C87.3758 259.391 86.1469 259.947 84.6916 260.019C83.6406 260.072 82.8806 259.247 82.9291 258.063C82.9938 256.699 83.3657 255.443 84.0448 254.295C84.3521 253.774 84.6755 253.254 85.2091 252.375C84.4491 252.536 84.0448 252.59 83.6406 252.698C82.8968 252.895 82.153 253.218 81.393 253.326C79.5011 253.613 78.1914 252.249 78.2884 250.168C78.4339 247.1 80.0024 244.785 82.6542 243.744C83.3819 243.457 84.1095 243.242 84.918 242.973C84.7725 242.686 84.6916 242.363 84.5138 242.255C80.6977 239.851 76.7038 237.877 75.1353 237.608C74.7796 244.067 75.3132 250.383 77.0272 256.574C77.9973 260.108 79.5335 263.23 82.056 265.76C83.8993 267.609 85.5163 269.726 87.6184 271.305C90.6259 273.566 93.8922 274.732 97.5304 274.947C101.152 275.145 104.5 274.391 107.717 272.471C110.547 270.785 113.264 269.026 115.398 266.281C116.595 264.756 117.613 263.105 118.276 261.221C118.486 260.611 118.6 259.965 118.745 259.337C118.47 259.086 118.276 258.888 118.05 258.781ZM120.508 259.875C120.378 260.037 120.281 260.09 120.265 260.18C118.81 266.317 115.091 270.39 110.305 273.404C107.685 275.055 105.017 276.67 101.945 276.975C95.1373 277.675 88.9443 275.988 83.6729 270.964C82.6219 269.959 81.6355 268.901 80.5683 267.932C77.9488 265.581 76.1702 262.638 74.9413 259.175C73.0009 253.703 71.9013 248.033 71.5294 242.201C71.4162 240.389 71.4162 238.577 71.8852 236.8C71.9984 236.352 71.966 235.867 71.9984 235.365C70.7533 234.306 69.5567 233.265 68.1823 232.548C67.9883 232.853 67.8104 232.996 67.8104 233.14C67.7134 235.149 67.5355 237.141 67.6002 239.151C67.7942 245.754 68.4734 252.303 69.9125 258.709C70.5431 261.472 71.4324 264.181 72.4188 266.819C73.9872 270.982 76.6229 274.194 80.0186 276.688C83.8346 279.487 87.9903 281.066 92.5501 281.532C98.2904 282.125 103.869 281.515 109.318 279.343C115.77 276.778 119.909 271.753 122.286 264.774C122.739 263.464 123.305 262.154 123.192 260.683C122.286 260.055 121.381 259.911 120.508 259.875Z" fill="#1A6652"/>
<path d="M89.429 262.387C89.4128 263.087 90.1404 263.823 90.7872 263.787C91.8868 263.733 92.9216 262.728 93.0995 261.526C93.2127 260.736 92.7276 259.983 92.0323 259.893C90.8034 259.714 89.4451 261.023 89.429 262.387Z" fill="#1A6652"/>
<path d="M77.3022 242.524C77.2537 243.17 77.7388 243.924 78.2562 243.977C78.8221 244.031 79.3396 243.475 79.4043 242.739C79.4528 242.147 79.1132 241.609 78.5958 241.501C77.949 241.394 77.3507 241.86 77.3022 242.524Z" fill="#1A6652"/>
<path d="M157.521 156.413C162.82 155.899 168.119 156.498 173.398 157.417C176.963 158.016 180.527 158.572 184.092 159.256C188.389 160.09 192.55 161.501 196.539 163.447C206.462 168.279 216.115 173.753 225.19 180.338C237.638 189.34 247.946 200.864 256.482 214.313C260.451 220.535 263.245 227.398 264.748 234.86C265.711 239.585 266.077 244.396 265.923 249.228C265.884 250.575 265.615 251.922 265.441 253.291C265.287 254.552 265.114 255.814 264.96 257.075C264.112 264.537 262.57 271.743 259.16 278.35C258.717 279.226 258.274 280.081 257.83 280.958C253.842 288.997 248.408 295.583 241.568 300.736C235.479 305.333 228.948 308.775 221.857 311.02C216.52 312.709 211.183 312.731 205.768 311.768C200.47 310.828 195.46 308.882 190.662 306.166C181.934 301.227 174.381 294.599 167.695 286.71C161.047 278.863 155.267 270.267 150.411 260.924C146.404 253.184 142.569 245.358 139.429 237.148C136.288 228.959 134.38 220.406 133.687 211.555C133.359 207.3 133.186 203.024 133.07 198.747C132.955 194.941 132.877 191.093 133.051 187.287C133.205 183.845 133.629 180.402 134.091 176.981C134.535 173.646 135.344 170.396 136.635 167.317C139.197 161.245 143.436 157.182 148.966 154.659C150.854 153.804 152.82 153.911 154.785 154.168C155.864 154.296 156.192 154.659 157.521 156.413ZM194.612 290.259C194.631 290.045 194.651 289.831 194.612 290.216C194.593 289.831 194.593 290.024 194.612 290.237C195.171 291.435 195.71 292.632 196.308 293.808C196.365 293.936 196.674 293.936 196.924 294.022C196.25 291.862 195.922 291.221 195.055 290.323C194.959 290.216 194.747 290.302 194.612 290.259ZM259.256 270.289C258.062 270.695 257.58 271.871 257.002 272.897C256.578 273.646 256.559 274.031 256.616 275.549C257.252 274.287 257.753 273.282 258.254 272.277C258.601 271.593 258.967 270.909 259.295 270.246C259.237 270.203 259.141 270.182 259.102 270.118C259.083 270.075 259.141 269.989 259.16 269.925C259.198 270.054 259.218 270.161 259.256 270.289ZM181.51 283.909C181.529 283.738 181.529 283.588 181.548 283.417C181.529 283.588 181.51 283.738 181.51 283.909C182.281 285.619 182.627 287.565 183.649 289.211C183.841 289.04 183.938 288.997 183.938 288.933C184.034 286.795 183.051 285.234 181.741 283.845C181.703 283.823 181.587 283.909 181.51 283.909ZM153.764 158.508C153.263 158.679 152.781 158.743 152.357 159C149.698 160.625 147.194 162.506 144.939 164.815C143.59 166.184 142.531 167.809 141.76 169.626C139.255 175.57 137.983 181.813 138.08 188.377C138.138 191.863 138.658 195.262 139.255 198.662C140.353 205.055 142.319 211.106 145.267 216.75C147.367 220.77 149.775 224.554 152.377 228.211C157.213 234.988 162.03 241.788 166.866 248.544C167.984 250.105 169.121 251.666 170.296 253.184C177.097 262.036 184.805 269.733 193.649 276.04C200.219 280.744 207.464 283.545 215.017 285.427C219.526 286.56 223.977 286.004 228.35 284.465C234.015 282.476 239.14 279.248 244.189 275.827C251.067 271.187 255.923 264.58 259.603 256.776C260.836 254.167 261.549 251.388 261.665 248.416C261.896 241.681 260.932 235.181 258.563 228.959C256.597 223.827 253.957 219.102 250.932 214.676C242.397 202.232 232.127 191.884 220.104 183.716C213.032 178.927 205.653 174.736 198.177 170.759C192.839 167.916 187.271 165.735 181.471 164.366C175.537 162.977 169.602 161.672 163.629 160.432C160.604 159.791 157.56 159.021 154.535 159.812C154.342 159.534 154.207 159.406 154.13 159.256C153.995 159.064 153.918 158.829 153.764 158.508ZM168.099 278.905C167.849 278.007 167.714 277.409 167.521 276.853C165.594 271.529 164.149 266.034 162.724 260.539C162.03 257.909 161.028 255.429 159.795 253.056C159.641 252.756 159.332 252.542 158.986 252.179C158.831 253.868 159.487 255.065 159.91 256.327C161.182 260.154 162.569 263.939 163.745 267.809C164.419 270.032 165.228 272.256 165.132 274.672C165.113 275.014 165.209 275.42 165.383 275.677C166.115 276.767 166.808 277.901 168.099 278.905ZM229.044 296.973C228.562 299.068 228.504 300.372 228.793 302.168C230.431 301.612 231.973 300.843 233.437 299.752C232.589 299.453 231.761 299.325 231.106 298.897C230.354 298.405 229.738 297.635 229.044 296.973ZM179.429 269.241C180.142 271.85 181.067 274.18 182.666 276.532C182.666 274.907 182.666 273.667 182.666 272.32C181.625 271.315 180.527 270.267 179.429 269.241ZM171.837 283.695C173.109 284.999 174.284 286.261 175.498 287.458C175.749 287.693 175.999 288.249 176.481 287.8C175.421 285.94 174.4 284.101 173.34 282.262C173.263 282.113 173.167 281.942 173.032 281.835C172.936 281.749 172.781 281.749 172.589 281.685C172.377 282.284 172.165 282.84 171.837 283.695ZM188.812 288.42C188.254 284.657 187.464 282.69 186.134 281.428C185.768 284.358 187.348 286.346 188.812 288.42ZM163.687 250.297C164.689 255.45 165.421 257.481 167.078 259.727C166.808 258.828 166.635 258.23 166.462 257.631C166.115 256.327 165.575 255.044 165.498 253.718C165.402 252.286 164.843 251.345 163.687 250.297ZM189.487 298.598C189.583 297.956 189.737 297.614 189.641 297.443C189.14 296.417 188.581 295.433 188.003 294.45C187.926 294.3 187.676 294.279 187.406 294.15C187.367 295.283 187.31 296.267 187.271 297.315C187.984 297.721 188.62 298.084 189.487 298.598ZM239.275 295.882C239.584 295.732 239.892 295.647 240.123 295.476C240.701 295.048 241.26 294.556 241.934 294.001C241.549 293.552 241.298 293.274 241.029 292.974C239.217 294.706 239.217 294.706 239.275 295.882ZM138.099 216.9C138.504 215.617 138.504 215.617 137.502 212.282C137.617 213.928 137.714 215.296 138.099 216.9ZM221.741 302.745C221.279 303.537 220.682 304.05 221.067 304.948C221.568 304.755 222.05 304.584 222.705 304.328C222.3 303.686 222.03 303.216 221.741 302.745ZM206.674 287.907C207.213 289.233 207.213 289.233 208.1 289.96C208.138 289.404 208.157 288.869 208.196 288.356C207.714 287.992 207.29 287.501 206.674 287.907ZM222.686 290.601C222.936 291.627 223.341 292.397 224.208 293.124C224.362 292.034 224.4 291.242 223.996 290.43C223.533 290.473 223.148 290.537 222.686 290.601ZM179.41 290.858C179.853 291.777 180.585 292.247 181.703 292.825C181.356 291.969 181.182 291.371 180.893 290.858C180.489 290.109 179.988 290.259 179.41 290.858ZM205.171 304.199C204.323 304.328 203.784 304.392 203.167 304.477C204.439 305.354 204.439 305.354 205.171 304.199ZM150.392 231.632C150.373 231.781 150.296 231.995 150.354 232.102C150.527 232.423 150.777 232.701 150.989 233C151.066 232.872 151.259 232.679 151.221 232.615C151.047 232.273 150.835 231.931 150.623 231.61C150.604 231.589 150.469 231.632 150.392 231.632ZM210.739 303.772C210.913 303.451 211.086 303.28 211.086 303.088C211.105 302.703 210.701 302.339 210.508 302.532C210.373 302.681 210.277 302.959 210.296 303.173C210.315 303.366 210.527 303.515 210.739 303.772ZM260.239 265.307C260.181 265.35 260.085 265.393 260.046 265.457C259.95 265.756 259.873 266.077 259.796 266.376C259.796 266.397 259.969 266.504 259.969 266.504C260.143 266.248 260.316 266.013 260.432 265.713C260.47 265.628 260.297 265.435 260.239 265.307ZM217.946 294.471C217.811 294.3 217.734 294.172 217.637 294.065C217.502 294.236 217.29 294.385 217.29 294.578C217.271 294.728 217.502 294.899 217.618 295.048C217.734 294.834 217.849 294.642 217.946 294.471ZM249.526 286.432C249.603 286.41 249.738 286.432 249.757 286.389C249.873 286.111 249.969 285.812 250.085 285.512C250.008 285.491 249.892 285.405 249.873 285.427C249.699 285.683 249.545 285.94 249.41 286.218C249.391 286.282 249.487 286.367 249.526 286.432ZM196.211 283.224C196.288 283.353 196.346 283.545 196.462 283.567C196.577 283.609 196.712 283.481 196.847 283.417C196.751 283.31 196.693 283.139 196.577 283.096C196.462 283.075 196.327 283.182 196.211 283.224Z" fill="#1A6652"/>
<path d="M225.305 261.779C218.812 262.591 213.224 261.95 207.849 259.641C201.086 256.733 195.556 252.051 191.586 245.251C188.85 240.569 186.673 235.608 185.305 230.22C184.592 227.398 184.265 224.512 184.631 221.582C184.939 219.102 185.633 216.814 187.405 215.061C187.868 214.612 188.176 213.906 188.465 213.286C189.216 211.683 189.91 210.015 190.662 208.412C191.548 206.509 192.877 205.033 194.554 203.964C196.924 202.468 199.409 201.292 202.107 200.821C208.099 199.795 214.034 200.073 219.93 201.612C222.762 202.361 225.363 203.665 227.733 205.525C231.914 208.818 235.614 212.709 238.427 217.477C242.859 224.961 244.959 233.107 243.591 242.108C242.261 250.96 237.656 256.904 230.219 260.175C228.408 261.009 226.461 261.415 225.305 261.779ZM187.714 221.497C187.521 223.357 187.54 225.089 187.887 226.778C189.544 234.796 193.166 241.595 198.349 247.389C199.159 248.287 200.103 249.036 201.028 249.763C207.733 255.044 215.267 256.434 223.244 255.45C226.712 255.022 229.891 253.547 232.666 251.131C234.843 249.25 236.558 246.94 237.425 244.011C238.639 239.97 238.889 235.822 238.003 231.653C236.365 223.891 232.454 217.798 226.905 212.88C224.091 210.4 220.97 208.711 217.463 207.877C212.685 206.744 207.887 206.551 203.051 207.171C201.163 207.407 199.351 207.941 197.598 208.754C195.594 209.694 193.841 210.999 192.723 213.137C191.856 214.783 191.008 216.451 190.276 218.161C189.698 219.572 189.159 220.984 187.714 221.497Z" fill="#1A6652"/>
<path d="M251.607 227.633C251.8 227.719 252.108 227.74 252.185 227.89C252.879 229.322 253.63 230.755 254.17 232.273C255.596 236.357 256.636 240.569 257.195 244.909C257.754 249.186 256.598 252.799 253.842 255.814C253.38 256.327 252.898 256.819 252.378 257.268C249.642 259.534 247.503 262.399 245.673 265.542C244.266 267.937 242.551 270.011 240.374 271.529C239.333 272.256 238.235 272.94 237.079 273.325C234.266 274.266 231.376 275.014 228.543 275.891C226.327 276.575 224.131 277.28 221.954 278.093C218.794 279.269 215.749 279.119 212.57 277.879C209.796 276.81 206.886 276.211 204.015 275.42C202.743 275.057 201.453 274.757 200.2 274.373C197.541 273.56 195.268 271.999 193.321 269.818C189.969 266.077 186.558 262.399 183.206 258.657C180.296 255.429 177.541 252.072 175.248 248.287C173.552 245.487 171.491 243.006 169.217 240.761C168.658 240.227 168.138 239.65 167.541 239.158C163.745 235.908 160.527 232.059 157.464 227.997C155.942 225.966 154.516 223.849 153.417 221.497C150.604 215.532 147.81 209.566 145.094 203.558C144.284 201.783 143.668 199.881 143.051 198.02C141.837 194.343 141.606 190.558 142.396 186.731C142.936 184.08 143.475 181.407 144.053 178.756C144.188 178.157 144.4 177.537 144.728 177.024C144.901 176.725 145.344 176.639 145.845 176.383C145.903 176.96 145.999 177.302 145.98 177.623C145.575 181.963 145.132 186.303 144.728 190.644C144.419 194.001 145.055 197.208 146.269 200.201C147.772 203.922 149.487 207.556 151.163 211.213C152.396 213.885 153.706 216.515 154.959 219.166C156.153 221.668 157.56 224.02 159.256 226.137C159.313 226.201 159.371 226.265 159.41 226.35C162.416 230.712 165.865 234.561 169.622 238.131C172.435 240.804 174.786 243.947 176.751 247.454C178.832 251.174 181.472 254.424 184.246 257.546C187.522 261.245 190.797 264.943 193.977 268.749C196.231 271.465 198.89 273.218 202.127 273.988C204.844 274.629 207.56 275.335 210.258 276.062C211.202 276.318 212.166 276.618 213.052 277.067C216 278.542 218.967 278.371 221.915 277.216C224.613 276.147 227.368 275.249 230.104 274.33C233.784 273.09 237.349 271.465 240.393 268.707C241.607 267.595 242.744 266.44 243.611 264.986C245.73 261.458 248.274 258.422 251.453 256.049C251.8 255.792 252.089 255.493 252.416 255.194C255.461 252.542 256.617 249.036 256.154 244.824C255.538 239.179 254.266 233.748 251.935 228.66C251.781 228.339 251.723 227.975 251.626 227.633C251.646 227.59 251.607 227.633 251.607 227.633Z" fill="#1A6652"/>
<path d="M216.25 266.397C215.961 267.552 215.113 267.851 214.188 268.044C211.51 268.578 208.793 268.899 206.115 268.364C198.196 266.846 191.317 263.169 186.288 255.92C184.015 252.649 182.261 249.079 181.105 245.166C180.72 243.84 180.566 242.493 180.855 241.146C180.932 240.74 181.221 240.291 181.529 240.098C182.011 239.799 182.512 240.12 182.82 240.569C183.379 241.36 183.899 242.172 184.381 243.006C185.653 245.23 186.847 247.518 188.157 249.699C191.394 255.172 195.749 259.213 201.26 261.586C205.46 263.404 209.757 264.858 214.323 265.179C215.422 265.243 215.422 265.264 216.25 266.397Z" fill="#1A6652"/>
<path d="M239.371 208.625C239.082 208.583 238.697 208.647 238.523 208.476C237.618 207.556 236.77 206.573 235.903 205.589C233.533 202.917 231.009 200.501 228.254 198.341C226.25 196.759 224.419 194.942 222.57 193.124C220.97 191.563 219.467 189.896 217.926 188.249C215.884 186.09 213.552 184.422 210.99 183.139C206.962 181.108 202.955 178.991 198.928 177.003C197.521 176.297 196.038 175.741 194.535 175.271C189.082 173.56 183.571 172.213 177.983 171.23C176.866 171.037 175.748 170.631 174.669 170.246C172.165 169.37 169.717 168.343 167.193 167.552C165.151 166.911 163.051 166.312 160.951 166.077C159.448 165.906 157.791 166.12 156.345 166.633C153.147 167.809 150.18 169.541 147.444 171.807C147.02 171.422 147.463 171.102 147.675 170.802C147.868 170.524 148.118 170.225 148.388 170.075C151.548 168.194 154.419 165.671 158.06 164.837C159.274 164.559 160.469 164.324 161.702 164.58C164.361 165.136 167.001 165.671 169.66 166.269C173.263 167.06 176.885 167.873 180.488 168.728C186.596 170.182 192.569 172.042 198.176 175.185C200.662 176.575 203.205 177.837 205.729 179.141C207.964 180.295 210.2 181.407 212.435 182.54C214.939 183.781 217.117 185.534 219.063 187.651C221.163 189.938 223.282 192.247 225.421 194.492C226.423 195.562 227.464 196.631 228.6 197.486C232.705 200.608 236.153 204.456 239.294 208.69L239.371 208.625Z" fill="#1A6652"/>
<path d="M187.483 203.002C187.965 203.002 188.215 202.938 188.447 203.023C188.813 203.152 189.314 203.259 189.487 203.558C189.815 204.114 189.41 204.563 189.025 204.926C186.038 207.791 184.15 211.426 182.724 215.489C181.356 219.401 179.969 223.25 179.545 227.462C179.506 227.911 179.333 228.339 179.179 228.766C179.121 228.916 179.005 229.13 178.87 229.173C178.658 229.237 178.389 229.237 178.196 229.151C178.08 229.109 177.984 228.873 177.945 228.702C177.811 228.189 177.599 227.655 177.599 227.12C177.637 221.561 177.753 216.023 179.988 210.87C181.182 208.091 182.878 205.803 185.267 204.221C185.999 203.686 186.847 203.344 187.483 203.002Z" fill="#1A6652"/>
<path d="M236.155 258.315C236.598 258.871 236.617 259.534 236.309 260.09C234.421 263.382 231.935 265.713 228.255 266.055C228.178 266.055 228.081 266.077 228.004 266.034C227.657 265.82 227.195 265.67 227.041 265.35C226.829 264.901 227.157 264.494 227.58 264.302C228.178 264.024 228.794 263.767 229.392 263.489C231.53 262.463 233.457 261.137 234.96 259.128C235.211 258.807 235.577 258.572 235.885 258.315C235.962 258.272 236.058 258.315 236.155 258.315Z" fill="#1A6652"/>
<path d="M249.795 223.934C250.816 224.918 251.587 226.029 251.606 227.633C251.606 227.633 251.645 227.569 251.645 227.59C250.855 226.479 250.045 225.367 249.853 223.891L249.795 223.934Z" fill="#1A6652"/>
<path d="M245.307 217.777C245.673 217.712 246.039 217.52 246.347 217.969C246.732 218.504 247.156 219.017 247.58 219.53L247.619 219.487C247.195 219.786 246.925 219.594 246.617 219.209C246.231 218.696 245.75 218.247 245.307 217.777Z" fill="#1A6652"/>
<path d="M239.315 208.689C239.584 209.053 239.873 209.416 240.49 210.229C239.43 209.716 239.064 209.395 239.353 208.625C239.372 208.625 239.315 208.689 239.315 208.689Z" fill="#1A6652"/>
<path d="M243.591 215.211C244.323 214.847 244.631 215.874 245.248 215.874C245.248 215.895 245.267 215.852 245.267 215.852C244.516 216.194 244.169 215.403 243.61 215.147L243.591 215.211Z" fill="#1A6652"/>
<path d="M241.319 211.299C241.319 211.363 241.299 211.449 241.299 211.514C241.222 211.428 241.125 211.363 241.067 211.278C241.048 211.256 241.144 211.149 241.183 211.084C241.241 211.17 241.28 211.235 241.319 211.299Z" fill="#1A6652"/>
<path d="M242.495 212.988C242.436 213.01 242.359 213.053 242.339 213.053C242.3 213.01 242.262 212.924 242.242 212.859C242.32 212.838 242.398 212.795 242.475 212.773C242.475 212.838 242.475 212.924 242.495 212.988Z" fill="#1A6652"/>
<path d="M243.612 215.148C243.573 214.998 243.515 214.848 243.476 214.677C243.457 214.591 243.457 214.527 243.457 214.441C243.554 214.527 243.708 214.591 243.708 214.677C243.708 214.827 243.631 214.998 243.592 215.169C243.592 215.212 243.612 215.148 243.612 215.148Z" fill="#1A6652"/>
<path d="M245.325 217.777C245.306 217.135 245.287 216.515 245.267 215.874C245.267 215.874 245.248 215.895 245.248 215.874C245.267 216.494 245.287 217.135 245.325 217.777Z" fill="#1A6652"/>
<path d="M247.579 219.53C247.772 219.894 247.965 220.236 248.157 220.62C248.157 220.642 248.196 220.578 248.196 220.578C247.444 220.599 247.367 220.449 247.618 219.509C247.618 219.487 247.579 219.53 247.579 219.53Z" fill="#1A6652"/>
<path d="M248.756 221.647C248.062 221.647 247.985 221.476 248.197 220.578C248.197 220.578 248.158 220.642 248.158 220.62C248.351 220.984 248.524 221.347 248.698 221.711C248.698 221.711 248.756 221.647 248.756 221.647Z" fill="#1A6652"/>
<path d="M249.391 222.63C248.697 222.673 248.62 222.545 248.735 221.646L248.697 221.711C248.928 222.031 249.14 222.352 249.352 222.694L249.391 222.63Z" fill="#1A6652"/>
<path d="M249.854 223.892C249.16 223.742 249.16 223.25 249.391 222.652C249.391 222.652 249.353 222.716 249.353 222.694C249.507 223.101 249.661 223.528 249.796 223.935L249.854 223.892Z" fill="#1A6652"/>
<path d="M213.841 214.441C215.652 213.5 217.463 213.714 219.236 214.035C222.165 214.569 224.901 215.81 227.463 217.477C229.062 218.525 230.219 220.022 231.066 221.839C232.126 224.148 232.531 226.671 232.492 229.237C232.434 231.91 231.336 233.919 229.159 235.138C226.114 236.849 222.916 237.276 219.64 236.207C218.716 235.908 217.81 235.395 217.001 234.796C213.07 231.91 210.43 224.255 212.087 219.038C212.357 218.183 212.762 217.392 213.089 216.558C213.282 215.916 213.532 215.254 213.841 214.441ZM216.827 215.681C213.59 219.958 213.706 224.277 215.69 228.681C218.003 233.834 223.629 235.523 228.099 232.551C229.255 231.781 229.949 230.712 229.987 229.258C230.064 225.003 228.889 221.39 225.382 219.102C223.552 217.884 221.606 216.921 219.544 216.301C218.677 216.045 217.81 215.895 216.827 215.681Z" fill="#1A6652"/>
<path d="M415.655 227.703C418.501 235.006 416.335 247.584 407.571 253.954C402.493 257.65 397.222 258.224 391.74 255.425C386.792 252.913 382.604 249.36 379.969 243.906C379.597 243.134 379.209 242.327 379.015 241.483C377.543 235.113 377.511 228.762 379.71 222.571C381.521 217.457 384.755 213.976 389.719 212.738C390.156 212.631 390.625 212.415 391.045 212.469C393.939 212.864 396.915 212.362 399.777 213.223C401.96 213.887 404.11 214.694 406.277 215.466C408.039 216.094 409.592 217.134 410.772 218.731C412.81 221.459 414.621 224.348 415.655 227.703ZM398.386 215.466C397.836 216.488 397.448 217.296 396.413 216.973C395.864 216.794 395.314 216.65 394.764 216.542C389.493 215.627 385.725 217.852 383.413 223.181C381.311 228.044 381.101 233.122 382.071 238.289C382.556 240.909 383.558 243.313 385.272 245.251C387.924 248.248 390.98 250.58 394.586 251.98C399.728 253.954 404.272 252.518 408.12 248.625C413.974 242.703 415.009 232.996 410.853 225.514C410.319 224.545 409.818 223.54 409.155 222.697C408.266 221.584 407.344 220.382 406.228 219.611C403.835 217.978 401.297 216.578 398.386 215.466Z" fill="#1A6652"/>
<path d="M367.776 197.989C371.156 200.07 372.498 203.695 372.595 207.696C372.805 215.591 370.008 222.123 364.413 227.093C362.311 228.959 359.869 229.856 357.169 229.856C354.307 229.856 351.526 229.318 348.842 228.259C347.985 227.918 347.128 227.541 346.384 226.985C341.29 223.271 337.992 218.175 337.313 211.375C336.828 206.53 338.218 202.134 341.129 198.491C343.57 195.423 346.659 193.754 350.426 193.898C350.976 193.916 351.526 193.862 352.189 193.844C351.93 192.839 351.655 192.014 351.526 191.171C351.332 189.968 351.93 188.766 352.852 188.425C353.806 188.084 354.647 188.389 355.31 189.197C355.681 189.663 355.973 190.202 356.312 190.722C356.571 191.117 356.846 191.494 357.25 192.086C358.026 191.476 358.705 190.848 359.449 190.381C360.872 189.466 361.551 189.699 362.473 191.332C362.651 191.637 362.796 191.978 363.039 192.463C363.88 192.229 364.737 191.942 365.594 191.781C366.952 191.512 368.165 192.409 368.229 193.934C368.262 195.262 367.938 196.625 367.776 197.989ZM356.102 197.379C357.137 197.594 358.236 197.81 359.32 198.079C360.629 198.42 361.939 198.779 363.249 199.209C363.459 199.281 363.588 199.676 364.025 200.322C361.842 200.017 360.096 199.801 358.333 199.532C356.765 199.299 355.164 199.155 354.178 197.415C353.984 197.074 353.434 196.841 353.013 196.805C350.475 196.572 348.066 196.93 345.834 198.456C340.159 202.331 339.253 210.675 341.856 216.13C344.945 222.643 349.747 225.927 356.361 226.16C358.608 226.232 360.613 225.586 362.424 224.132C366.919 220.544 368.989 215.555 368.989 209.544C368.989 207.84 368.811 205.812 367.987 204.484C366.709 202.403 365.998 200.106 364.979 197.899C365.205 196.464 367.259 195.567 365.965 193.467C364.995 193.844 364.057 194.239 363.103 194.598C362.408 194.849 361.777 194.741 361.228 194.149C360.856 193.754 360.452 193.396 359.95 192.929C359.126 194.113 358.382 195.028 357.104 195.118C356.005 195.208 356.021 196.195 356.102 197.379Z" fill="#1A6652"/>
<path d="M391.32 221.531C391.352 221.441 391.481 221.1 391.627 220.777C392.856 217.978 394.942 217.386 397.092 219.234C398.078 220.077 398.499 221.19 398.192 222.553C397.981 223.522 397.69 224.455 397.383 225.586C398.628 226.106 399.809 226.483 400.892 227.093C402.186 227.793 403.026 228.941 403.01 230.664C402.978 232.332 402.331 233.642 401.005 234.324C400.229 234.719 399.259 234.791 398.386 234.755C397.496 234.719 396.623 234.324 395.734 234.163C394.958 234.019 394.392 234.468 394.182 235.275C393.955 236.118 393.907 236.998 393.713 237.859C392.92 241.232 390.382 243.062 387.277 242.542C384.787 242.129 382.83 239.761 383.315 236.926C383.865 233.678 383.995 230.52 383.784 227.237C383.655 225.371 384.658 223.827 386.323 223.181C387.892 222.518 389.525 222.087 391.32 221.531ZM389.508 224.168C388.651 224.509 387.681 224.85 386.76 225.281C385.951 225.658 385.547 226.465 385.595 227.398C385.644 228.385 385.806 229.39 386 230.359C386.291 231.866 386.355 233.337 385.789 234.791C385.612 235.257 385.434 235.724 385.353 236.208C385.013 238.11 385.773 239.707 387.196 240.12C389.104 240.676 390.802 239.851 391.352 237.985C391.594 237.159 391.627 236.262 391.805 235.401C392.354 232.781 393.923 231.561 396.251 231.974C397.141 232.135 398.014 232.458 398.903 232.62C399.809 232.781 400.569 232.207 400.698 231.346C400.827 230.484 400.455 229.856 399.776 229.533C398.838 229.103 397.836 228.834 396.914 228.385C395.637 227.757 395.006 226.555 395.249 225.048C395.427 223.953 395.799 222.894 396.073 221.836C395.782 221.513 395.588 221.154 395.313 220.992C394.198 220.346 393.47 220.795 393.519 222.033C393.535 222.284 393.599 222.535 393.599 222.787C393.616 223.863 394.198 225.209 393.114 225.909C391.772 226.806 391.239 225.012 390.301 224.509C390.188 224.473 390.074 224.437 389.508 224.168Z" fill="#1A6652"/>
<path d="M389.848 227.775C390.754 227.488 391.74 228.026 392.047 228.977C392.419 230.089 391.869 231.292 390.818 231.651C389.8 231.991 388.732 231.274 388.538 230.089C388.361 229.067 388.927 228.062 389.848 227.775Z" fill="#1A6652"/>
<path d="M104.513 330.158C104.093 327.968 104.481 325.977 105.629 324.147C106.47 322.837 107.456 321.688 108.685 320.809C111.272 318.943 114.054 317.723 117.191 317.705C117.756 317.705 118.322 317.669 118.888 317.633C122.139 317.4 125.308 316.772 128.332 315.444C130.337 314.565 132.358 313.775 134.492 313.327C139.004 312.412 143.499 312.753 147.945 313.847C152.554 314.978 156.79 317.131 160.849 319.75C166.217 323.231 171.23 327.287 175.952 331.79C177.439 333.19 178.927 334.589 180.414 335.971C182.371 337.801 184.618 339.004 187.109 339.649C187.707 339.811 188.321 339.937 188.903 340.152C189.243 340.26 189.583 340.439 189.858 340.672C190.326 341.067 190.181 342 189.631 342.215C189.292 342.341 188.936 342.395 188.58 342.413C187.254 342.449 185.944 342.485 184.619 342.664C183.05 342.879 181.449 342.969 179.913 343.435C178.991 343.705 178.086 343.705 177.197 343.292C175.741 342.646 174.383 342.897 173.057 343.741C170.777 345.176 168.481 346.576 166.217 348.029C163.42 349.841 160.671 351.725 157.874 353.538C156.014 354.74 154.155 355.96 152.15 356.857C146.83 359.279 141.348 359.943 135.705 358.526C132.73 357.772 129.949 356.48 127.232 354.955C122.397 352.246 118.015 348.783 113.779 345.086C110.965 342.628 108.815 339.506 106.874 336.438C105.742 334.356 104.934 332.347 104.513 330.158ZM175.547 336.276C172.879 333.692 170.244 331.073 167.382 328.758C163.468 325.6 159.41 322.747 155.19 320.127C151.503 317.831 147.606 316.072 143.434 315.193C139.667 314.403 135.899 314.26 132.148 315.354C131.161 315.641 130.175 315.982 129.221 316.395C126.488 317.597 123.642 318.351 120.813 319.104C119.632 319.427 118.371 319.481 117.142 319.517C113.973 319.607 111.289 320.989 108.831 323.088C108.588 323.285 108.378 323.536 108.152 323.788C106.292 325.887 105.888 328.22 106.955 330.983C107.747 333.01 108.879 334.733 110.141 336.402C112.065 338.932 114.28 341.121 116.786 342.969C120.974 346.055 125.259 348.98 129.771 351.474C132.212 352.82 134.735 353.95 137.37 354.74C142.415 356.247 147.428 356.032 152.36 354.13C154.494 353.304 156.499 352.138 158.472 350.936C162.078 348.747 165.651 346.522 169.29 344.386C170.551 343.633 171.893 343.059 173.235 342.467C174.464 341.928 175.757 341.874 177.003 342.377C178.021 342.79 178.991 342.79 180.01 342.413C180.77 342.144 181.579 341.982 182.355 341.767C179.719 340.313 177.633 338.286 175.547 336.276Z" fill="#1A6652"/>
<path d="M142.269 321.724C142.14 322.406 142.48 322.908 142.755 323.447C143.434 324.721 144.113 325.995 144.776 327.269C144.921 327.556 145.035 327.861 145.115 328.076C144.873 328.525 144.598 328.399 144.372 328.345C141.429 327.645 138.453 327.645 135.494 328.076C131.824 328.596 128.137 328.74 124.45 328.578C122.559 328.489 120.65 328.632 118.759 328.686C118.322 328.704 117.837 328.686 117.546 329.368C117.885 329.458 118.177 329.565 118.468 329.583C121.233 329.763 123.998 329.942 126.763 330.05C129.123 330.139 131.484 330.157 133.829 330.157C135.737 330.157 137.629 330.211 139.488 330.66C139.973 330.785 140.458 330.947 141.121 331.144C140.847 331.485 140.717 331.718 140.523 331.844C138.227 333.549 135.915 335.253 133.619 336.958C133.198 337.263 132.762 337.55 132.374 337.819C132.422 338.339 132.697 338.375 132.94 338.304C133.376 338.178 133.845 338.07 134.249 337.837C137.111 336.294 139.86 334.5 142.334 332.275C142.496 332.131 142.674 332.023 142.916 331.826C145.568 332.849 147.961 334.428 150.354 336.348C149.319 337.353 148.414 338.25 147.476 339.129C145.762 340.744 144.016 342.341 142.302 343.956C141.995 344.243 141.736 344.602 141.493 344.96C141.315 345.23 141.558 345.714 141.881 345.696C142.221 345.678 142.593 345.624 142.916 345.463C143.369 345.212 143.806 344.907 144.226 344.566C146.813 342.413 149.465 340.349 151.632 337.676C151.696 337.604 151.81 337.568 151.971 337.46C152.327 337.658 152.747 337.873 153.152 338.106C159.118 341.497 165.36 342.215 171.844 340.457C172.297 340.331 172.749 340.206 173.154 339.972C174.124 339.434 174.189 338.124 173.235 337.532C172.749 337.245 172.184 337.066 171.634 337.012C170.777 336.904 169.887 336.94 169.03 336.904C167.187 336.814 165.344 336.778 163.5 336.599C160.654 336.312 157.986 335.343 155.464 333.854C154.381 333.208 153.33 332.508 152.23 331.862C150.953 331.126 149.675 330.391 148.365 329.745C147.767 329.44 147.379 329.063 147.072 328.417C146.36 326.91 145.568 325.438 144.743 324.003C144.339 323.285 143.773 322.693 143.256 322.047C143.046 321.796 142.932 321.796 142.269 321.724Z" fill="#1A6652"/>
<path d="M121.298 337.586C121.46 337.694 121.605 337.891 121.767 337.891C122.058 337.909 122.381 337.873 122.656 337.765C123.513 337.406 124.37 337.066 125.179 336.599C125.567 336.384 125.858 335.953 126.149 335.558C126.23 335.451 126.149 335.128 126.052 334.948C126.003 334.841 125.793 334.787 125.664 334.787C125.518 334.769 125.356 334.805 125.227 334.894C123.982 335.666 122.753 336.455 121.524 337.245C121.443 337.281 121.411 337.406 121.298 337.586Z" fill="#1A6652"/>
<path d="M135.074 346.665C135.64 346.181 136.158 345.804 136.61 345.355C136.821 345.14 136.934 344.799 137.031 344.494C137.112 344.261 136.772 343.92 136.562 343.974C136.416 344.01 136.255 344.046 136.142 344.135C135.22 344.925 134.298 345.732 133.377 346.54C133.344 346.576 133.296 346.629 133.296 346.683C133.279 346.898 133.215 347.168 133.296 347.293C133.393 347.419 133.668 347.473 133.829 347.437C134.12 347.347 134.379 347.15 134.654 346.988C134.816 346.881 134.977 346.737 135.074 346.665Z" fill="#1A6652"/>
<path d="M156.354 328.902C156.499 328.507 156.677 328.22 156.677 327.915C156.709 326.713 156.483 325.564 156.079 324.452C156.046 324.362 155.966 324.236 155.885 324.2C155.755 324.129 155.594 324.057 155.48 324.093C155.367 324.129 155.254 324.308 155.222 324.434C155.189 324.577 155.206 324.775 155.238 324.936C155.497 326.084 155.755 327.215 156.03 328.363C156.079 328.525 156.192 328.65 156.354 328.902Z" fill="#1A6652"/>
</svg>
