<svg width="39" height="40" viewBox="0 0 39 40" fill="none" xmlns="http://www.w3.org/2000/svg">
<path d="M38.5778 20.002C38.5778 30.542 30.0238 39.094 19.4814 39.094C8.93891 39.094 0.384766 30.542 0.384766 20.002C0.384766 9.46201 8.93891 0.909912 19.4814 0.909912C30.0238 0.909912 38.5778 9.46201 38.5778 20.002Z" fill="#1A6652"/>
<path fill-rule="evenodd" clip-rule="evenodd" d="M9.39478 30.1277C9.51905 29.6721 9.62255 29.2787 9.72611 28.8853C10.0782 27.6221 10.4303 26.359 10.7617 25.0751C10.8031 24.8888 10.7825 24.6403 10.6996 24.4539C7.46856 18.3039 10.8032 10.87 17.5761 9.27551C23.7276 7.826 29.2577 11.9882 30.2519 17.5377C31.3082 23.3151 27.5178 28.8232 21.7806 29.8171C19.5022 30.2105 17.3068 29.8792 15.2356 28.8646C15.0492 28.7818 14.7799 28.7404 14.5935 28.8025C11.8181 29.5065 9.954 30.0242 9.39478 30.1277ZM11.8388 27.7257C12.8744 27.4565 13.8478 27.208 14.8006 26.9388C15.0699 26.8559 15.2769 26.8974 15.5255 27.0423C17.3274 28.0777 19.2745 28.4711 21.325 28.1398C26.0888 27.3737 29.3405 22.9216 28.6155 18.1797C27.8699 13.272 23.2511 9.97959 18.3838 10.87C12.5015 11.9468 9.37399 18.5109 12.2944 23.7084C12.6258 24.2883 12.7087 24.7646 12.4809 25.3651C12.2323 26.1312 12.0666 26.8974 11.8388 27.7257Z" fill="white"/>
<path fill-rule="evenodd" clip-rule="evenodd" d="M22.6916 24.5162C20.6411 24.4334 17.3893 22.8182 15.1524 18.9459C14.3654 17.5585 14.469 16.0055 15.6289 14.908C16.0224 14.5352 16.5194 14.6388 16.9751 14.7009C17.0786 14.7216 17.2029 14.8873 17.2651 15.0115C17.555 15.6949 17.8657 16.3575 18.1142 17.0615C18.2592 17.4343 17.9899 17.7656 17.4721 18.3868C17.3065 18.5731 17.2651 18.7595 17.4101 18.9873C18.2593 20.4368 19.4606 21.4929 21.0554 22.1141C21.2832 22.197 21.4695 22.1555 21.6145 21.9692C22.443 20.9545 22.5466 20.6439 22.9816 20.851C25.0942 21.8656 25.2599 21.907 25.2806 22.1555C25.3013 23.9364 23.665 24.5783 22.6916 24.5162Z" fill="white"/>
</svg>
